<svg width="438" height="100%" viewBox="0 0 438 330" fill="none" xmlns="http://www.w3.org/2000/svg">
<path fill-rule="evenodd" clip-rule="evenodd" d="M438 -90.1703C438 -89.2561 437.806 -89.2086 436.926 -89.9103C435.575 -90.989 435.575 -91.2861 436.926 -91.2861C437.517 -91.2861 438 -90.784 438 -90.1703ZM395.775 -90.6718C395.775 -89.5512 393.746 -89.2878 392.877 -90.2949C392.169 -91.1148 392.345 -91.2861 393.898 -91.2861C394.93 -91.2861 395.775 -91.0096 395.775 -90.6718ZM352.118 -90.5982C352.118 -89.7033 349.472 -89.7033 348.897 -90.5982C348.646 -90.9883 349.248 -91.2861 350.286 -91.2861C351.293 -91.2861 352.118 -90.9766 352.118 -90.5982ZM308.103 -90.5982C307.533 -89.7108 305.811 -89.7108 305.24 -90.5982C304.988 -90.9896 305.604 -91.2861 306.672 -91.2861C307.739 -91.2861 308.355 -90.9896 308.103 -90.5982ZM264.088 -90.5982C264.088 -89.7053 262.157 -89.7053 261.583 -90.5982C261.34 -90.9766 261.804 -91.2861 262.615 -91.2861C263.425 -91.2861 264.088 -90.9766 264.088 -90.5982ZM220.431 -91.0158C220.431 -90.363 218.289 -90.0341 217.907 -90.6285C217.675 -90.9903 218.148 -91.2861 218.958 -91.2861C219.768 -91.2861 220.431 -91.1644 220.431 -91.0158ZM131.82 -90.8163C131.304 -90.6175 130.686 -90.6423 130.449 -90.8706C130.211 -91.099 130.634 -91.2614 131.388 -91.2318C132.222 -91.1988 132.391 -91.0357 131.82 -90.8163ZM417.932 -71.7138C418.407 -71.1641 418.586 -70.0807 418.329 -69.3061C417.701 -67.402 414.642 -67.402 414.014 -69.3061C413.513 -70.8229 414.71 -72.7126 416.172 -72.7126C416.665 -72.7126 417.458 -72.2634 417.932 -71.7138ZM373.866 -71.6594C375.832 -69.7697 373.133 -66.95 370.992 -68.6574C369.605 -69.7642 369.773 -71.1662 371.392 -71.9992C372.43 -72.5331 373.045 -72.4484 373.866 -71.6594ZM330.387 -70.9949C330.635 -70.3751 330.507 -69.551 330.102 -69.1623C328.936 -68.041 326.711 -68.797 326.711 -70.3146C326.711 -72.0639 329.737 -72.6246 330.387 -70.9949ZM285.773 -71.5899C286.048 -71.3244 286.275 -70.5182 286.275 -69.7986C286.275 -68.8342 285.85 -68.5473 284.664 -68.709C283.611 -68.8528 283.054 -69.4024 283.054 -70.2953C283.054 -71.6601 284.823 -72.5021 285.773 -71.5899ZM241.851 -71.3671C243.036 -70.6626 242.346 -68.5852 240.927 -68.5852C240.367 -68.5852 239.732 -69.0268 239.516 -69.5668C238.997 -70.8676 240.605 -72.1072 241.851 -71.3671ZM198.245 -70.3455C198.245 -69.8 197.96 -69.1843 197.61 -68.9773C196.822 -68.5088 195.218 -70.2623 195.865 -70.8841C196.717 -71.7028 198.245 -71.3567 198.245 -70.3455ZM154.111 -70.878C154.935 -70.0869 154.633 -69.2731 153.515 -69.2731C152.924 -69.2731 152.441 -69.7374 152.441 -70.3049C152.441 -71.3794 153.288 -71.6697 154.111 -70.878ZM110.216 -70.3049C110.216 -69.7374 109.894 -69.2731 109.5 -69.2731C109.106 -69.2731 108.784 -69.7374 108.784 -70.3049C108.784 -70.8724 109.106 -71.3368 109.5 -71.3368C109.894 -71.3368 110.216 -70.8724 110.216 -70.3049ZM66.201 -69.961C65.9576 -69.5826 65.617 -69.2731 65.4431 -69.2731C65.2691 -69.2731 65.1275 -69.5826 65.1275 -69.961C65.1275 -70.3393 65.4688 -70.6489 65.8854 -70.6489C66.3019 -70.6489 66.4443 -70.3393 66.201 -69.961ZM438 -49.0059C438 -46.019 437.915 -45.8794 436.527 -46.5934C434.644 -47.562 434.811 -51.5952 436.748 -51.9481C437.793 -52.1386 438 -51.6537 438 -49.0059ZM396.082 -50.9946C397.448 -49.6807 397.473 -49.2494 396.271 -47.67C394.9 -45.8677 391.905 -46.4606 391.591 -48.5973C391.44 -49.6305 391.837 -50.6245 392.623 -51.1769C394.266 -52.3319 394.715 -52.3079 396.082 -50.9946ZM351.624 -51.2815C353.375 -50.3398 353.177 -47.4574 351.322 -46.892C349.348 -46.2893 347.517 -48.0009 348.135 -49.8713C348.704 -51.5952 350.039 -52.1345 351.624 -51.2815ZM308.318 -50.562C309.444 -49.4792 309.401 -48.9502 308.082 -47.6824C306.115 -45.792 303.18 -48.3847 304.958 -50.4429C305.962 -51.6069 307.185 -51.6502 308.318 -50.562ZM263.986 -50.7752C265.142 -50.0715 264.44 -47.26 263.11 -47.26C261.477 -47.26 260.524 -48.7514 261.284 -50.1169C262.069 -51.5278 262.556 -51.6461 263.986 -50.7752ZM220.303 -49.1517C220.177 -48.3008 219.59 -47.6039 219 -47.6039C218.41 -47.6039 217.823 -48.3008 217.697 -49.1517C217.522 -50.3432 217.822 -50.6995 219 -50.6995C220.178 -50.6995 220.478 -50.3432 220.303 -49.1517ZM176.297 -50.2407C177.283 -49.2941 176.722 -47.9479 175.343 -47.9479C174.389 -47.9479 173.912 -48.4067 173.912 -49.3237C173.912 -50.6493 175.312 -51.1879 176.297 -50.2407ZM132.402 -49.2446C132.402 -48.4611 132.024 -47.9541 131.552 -48.1054C130.227 -48.5299 130.077 -49.7984 131.298 -50.249C132.072 -50.5344 132.402 -50.2338 132.402 -49.2446ZM88.7451 -49.3237C88.7451 -48.9454 88.2427 -48.6358 87.6294 -48.6358C87.016 -48.6358 86.7126 -48.9454 86.9559 -49.3237C87.1992 -49.7021 87.7009 -50.0116 88.0716 -50.0116C88.4424 -50.0116 88.7451 -49.7021 88.7451 -49.3237ZM44.3726 -49.3237C44.3726 -48.9454 44.0505 -48.6358 43.6569 -48.6358C43.2632 -48.6358 42.9412 -48.9454 42.9412 -49.3237C42.9412 -49.7021 43.2632 -50.0116 43.6569 -50.0116C44.0505 -50.0116 44.3726 -49.7021 44.3726 -49.3237ZM418.624 -30.1132C421.283 -27.5569 417.788 -23.4948 414.42 -25.2277C411.794 -26.578 411.929 -30.3251 414.627 -31.0212C416.904 -31.608 417.118 -31.5599 418.624 -30.1132ZM373.693 -30.9772C375.189 -30.5961 375.877 -28.1623 374.957 -26.5113C374.245 -25.2311 372.49 -24.903 370.426 -25.6645C368.785 -26.2698 368.963 -29.8435 370.678 -30.7261C371.44 -31.1175 372.165 -31.4023 372.289 -31.3583C372.413 -31.3143 373.045 -31.143 373.693 -30.9772ZM330.618 -29.7513C331.642 -28.5668 331.024 -26.221 329.546 -25.6762C327.195 -24.8087 325.199 -26.9612 326.027 -29.4714C326.535 -31.0095 329.382 -31.1829 330.618 -29.7513ZM286.582 -29.6695C287.831 -28.4677 287.929 -27.9992 287.158 -26.9165C286.191 -25.5599 284.19 -25.2854 283.075 -26.3572C281.693 -27.6849 281.699 -28.3177 283.105 -29.6695C283.724 -30.2638 284.506 -30.7502 284.843 -30.7502C285.18 -30.7502 285.962 -30.2638 286.582 -29.6695ZM242.302 -29.7589C243.411 -28.9664 243.532 -28.5165 242.902 -27.5232C242.469 -26.8387 241.464 -26.1852 240.67 -26.071C238.82 -25.8041 238.029 -28.3047 239.512 -29.7307C240.799 -30.9676 240.611 -30.9662 242.302 -29.7589ZM198.459 -29.6275C199.305 -28.8144 199.017 -26.7906 198.001 -26.4164C196.559 -25.8839 195.208 -26.9639 195.499 -28.4168C195.765 -29.7417 197.571 -30.4805 198.459 -29.6275ZM154.495 -29.1384C155.486 -27.9903 154.301 -26.3173 152.871 -26.8449C152.241 -27.0774 151.725 -27.7083 151.725 -28.2476C151.725 -29.5773 153.596 -30.1792 154.495 -29.1384ZM110.612 -28.6266C111.349 -27.4792 109.691 -26.1639 108.703 -27.1132C107.878 -27.9071 108.394 -29.3744 109.5 -29.3744C109.847 -29.3744 110.347 -29.038 110.612 -28.6266ZM66.2232 -28.6521C66.9031 -27.5941 65.972 -26.9117 65.053 -27.7949C64.5392 -28.2889 64.527 -28.6734 65.0158 -28.9637C65.4166 -29.2017 65.9598 -29.0614 66.2232 -28.6521ZM22.5441 -27.9986C22.3008 -27.6202 21.9601 -27.3106 21.7862 -27.3106C21.6123 -27.3106 21.4706 -27.6202 21.4706 -27.9986C21.4706 -28.3769 21.812 -28.6865 22.2285 -28.6865C22.6451 -28.6865 22.7874 -28.3769 22.5441 -27.9986ZM438 -7.06756V-2.67527L436.247 -3.47049C433.134 -4.88277 433.145 -9.33284 436.266 -10.6997L438 -11.4592V-7.06756ZM395.92 -10.3331C398.506 -9.67886 398.279 -4.3517 395.637 -3.68787C393.959 -3.26618 390.765 -4.27328 390.765 -5.22397C390.765 -5.58099 390.579 -6.33838 390.352 -6.90797C389.891 -8.06159 392.413 -10.8456 393.806 -10.721C394.298 -10.677 395.249 -10.5023 395.92 -10.3331ZM351.718 -10.1274C354.587 -9.15949 354.555 -5.27074 351.666 -4.00568C350.152 -3.34322 349.658 -3.47186 348.149 -4.92267C346.64 -6.37278 346.506 -6.84812 347.195 -8.30305C348.089 -10.1879 349.659 -10.8215 351.718 -10.1274ZM308.792 -9.00883C310.554 -7.31521 309.07 -3.96372 306.543 -3.93208C305.402 -3.91832 303.451 -5.86441 303.451 -7.01734C303.451 -8.22187 305.418 -10.1129 306.672 -10.1129C307.205 -10.1129 308.16 -9.61626 308.792 -9.00883ZM265.13 -8.1462C265.782 -6.17053 264.825 -4.60966 262.963 -4.60966C261.081 -4.60966 259.567 -6.67889 260.231 -8.34364C260.857 -9.91069 264.597 -9.76003 265.13 -8.1462ZM221.121 -8.09667C221.679 -7.09439 221.584 -6.50417 220.737 -5.689C220.119 -5.09533 219.337 -4.60966 219 -4.60966C218.663 -4.60966 217.881 -5.09533 217.263 -5.689C215.848 -7.04899 216.953 -9.42503 219 -9.42503C219.759 -9.42503 220.714 -8.82723 221.121 -8.09667ZM176.386 -8.49979C177.133 -7.97491 177.389 -7.2189 177.08 -6.44707C176.4 -4.74243 173.615 -5.23016 173.337 -7.10196C173.075 -8.86919 174.761 -9.6424 176.386 -8.49979ZM132.857 -7.71008C133.105 -7.08889 132.997 -6.28197 132.617 -5.91669C131.615 -4.95431 129.43 -5.96347 129.691 -7.26775C129.994 -8.78183 132.3 -9.10378 132.857 -7.71008ZM88.2742 -8.27277C88.5333 -8.02375 88.7451 -7.40739 88.7451 -6.90247C88.7451 -5.87817 86.9001 -5.64703 86.2903 -6.59566C85.8029 -7.35304 87.6272 -8.89465 88.2742 -8.27277ZM44.5916 -7.60963C45.1634 -7.06 44.5171 -5.98548 43.6146 -5.98548C43.2439 -5.98548 42.9412 -6.44982 42.9412 -7.01734C42.9412 -8.08085 43.7857 -8.38422 44.5916 -7.60963ZM418.122 10.256C423.101 12.7635 419.613 19.7781 414.338 17.8643C412.275 17.1165 411.269 14.6882 411.964 12.1361C412.504 10.148 415.868 9.12099 418.122 10.256ZM374.058 10.3166C375.795 10.6392 376.71 13.0758 376.047 15.6142C375.258 18.6361 369.205 18.4064 368.367 15.3232C367.947 13.7823 369.101 10.5243 370.066 10.5243C370.364 10.5243 371.038 10.4129 371.561 10.2767C372.086 10.1412 373.209 10.1584 374.058 10.3166ZM329.62 10.7197C331.993 11.9813 332.713 13.3812 331.888 15.123C330.566 17.9118 326.168 18.0322 325.268 15.3046C324.271 12.2847 327.053 9.35419 329.62 10.7197ZM286.954 11.8651C287.761 12.641 288.422 13.5855 288.422 13.9639C288.422 15.4979 285.493 17.4756 283.912 17.0092C281.784 16.3812 281.742 16.3213 281.742 13.9639C281.742 11.6064 281.784 11.5466 283.912 10.9185C285.009 10.5945 285.93 10.8813 286.954 11.8651ZM243.305 12.5385C244.32 14.3594 243.53 15.954 241.354 16.4789C240.041 16.796 239.263 16.5648 238.57 15.6534C237.339 14.0361 237.36 13.6123 238.732 12.2929C240.266 10.8187 242.412 10.9343 243.305 12.5385ZM198.554 12.2943C200.021 13.7059 199.979 15.1085 198.443 15.9354C196.81 16.8132 194.667 15.694 194.667 13.9639C194.667 11.9964 197.139 10.9343 198.554 12.2943ZM155.045 12.932C155.612 14.3518 154.843 16.0276 153.625 16.0276C152.16 16.0276 150.913 14.3174 151.432 13.0194C151.993 11.614 154.494 11.5534 155.045 12.932ZM110.931 13.9639C110.931 14.8808 110.454 15.3397 109.5 15.3397C108.546 15.3397 108.069 14.8808 108.069 13.9639C108.069 13.0469 108.546 12.588 109.5 12.588C110.454 12.588 110.931 13.0469 110.931 13.9639ZM66.9553 13.3358C67.6925 14.4832 66.0342 15.7985 65.0466 14.8492C64.2207 14.0554 64.7374 12.588 65.8431 12.588C66.1902 12.588 66.6905 12.9244 66.9553 13.3358ZM22.902 13.9639C22.902 14.3422 22.4189 14.6518 21.8284 14.6518C21.238 14.6518 20.7549 14.3422 20.7549 13.9639C20.7549 13.5855 21.238 13.276 21.8284 13.276C22.4189 13.276 22.902 13.5855 22.902 13.9639ZM438 35.0544C438 39.5107 437.839 40.1917 436.868 39.834C436.245 39.6043 435.464 39.4165 435.131 39.4165C434.799 39.4165 434.047 38.4912 433.46 37.361C432.033 34.6135 433.206 31.4636 436.003 30.5266L438 29.8573V35.0544ZM395.928 30.7454C399.816 32.0758 399.916 37.4504 396.086 39.1853C394.689 39.8182 393.886 39.7797 392.263 39.0017C386.91 36.4351 390.292 28.8172 395.928 30.7454ZM353.087 32.1604C355.177 34.0226 355.284 34.4319 354.317 36.8767C353.1 39.9551 348.116 39.9826 346.612 36.9194C345.535 34.7263 346.553 32.3131 349.009 31.2372C351.217 30.2707 350.879 30.1937 353.087 32.1604ZM308.572 31.6101C311.162 32.2987 310.858 37.6589 308.192 38.3014C304.52 39.1874 301.436 36.3257 303.044 33.5252C303.465 32.7926 303.81 32.1412 303.81 32.0772C303.815 31.714 307.575 31.3446 308.572 31.6101ZM264.815 32.5477C265.596 33.2989 266.235 34.3775 266.235 34.9451C266.235 36.1056 263.755 38.7286 262.657 38.7286C261.351 38.7286 258.961 35.8875 259.381 34.8357C259.608 34.2661 259.794 33.5658 259.794 33.2796C259.794 32.9928 260.604 32.4033 261.594 31.9699C263.112 31.3054 263.616 31.3955 264.815 32.5477ZM220.61 32.5924C223.664 34.3019 220.771 39.0003 217.653 37.3961C215.596 36.3381 215.294 34.7236 216.869 33.2095C218.47 31.6713 218.852 31.608 220.61 32.5924ZM177.044 33.5823C178.471 34.9547 177.429 37.3528 175.405 37.3528C173.439 37.3528 172.031 35.4404 172.956 34.0274C173.996 32.4411 175.667 32.2595 177.044 33.5823ZM132.709 33.6181C133.887 34.7511 133.548 36.3594 132.01 36.9263C130.717 37.403 128.771 35.5325 129.267 34.2902C129.857 32.8119 131.53 32.4858 132.709 33.6181ZM88.7508 34.2634C89.4264 35.0462 89.4694 35.5559 88.9061 36.0973C87.8204 37.1409 85.7271 36.2266 86.0083 34.8323C86.3297 33.2391 87.6329 32.9687 88.7508 34.2634ZM45.0883 34.9451C45.0883 35.6536 44.6195 35.9907 43.8358 35.8462C42.3271 35.5669 42.4223 34.3459 43.9768 34.035C44.6252 33.905 45.0883 34.284 45.0883 34.9451ZM417.603 51.1109C417.846 51.4893 418.67 51.7988 419.434 51.7988C420.295 51.7988 420.824 52.2701 420.824 53.0371C420.824 53.7181 421.21 54.6468 421.682 55.1008C422.35 55.7426 422.35 56.11 421.682 56.7518C421.21 57.2058 420.824 58.0698 420.824 58.6724C420.824 59.9086 416.008 62.2881 415.404 61.3497C415.19 61.0154 414.393 60.7416 413.634 60.7416C411.935 60.7416 409.636 56.0859 410.787 54.979C411.19 54.5917 411.52 53.78 411.52 53.1753C411.52 52.5535 412.554 51.7156 413.896 51.2492C416.78 50.2469 417.041 50.2373 417.603 51.1109ZM374.501 51.6901C376.273 52.3636 378.137 55.9565 377.187 56.8694C376.782 57.2588 376.451 58.0664 376.451 58.6648C376.451 60.4754 372.523 61.499 370.075 60.3261C366.425 58.5754 366.666 53.5447 370.48 51.8745C372.432 51.0194 372.703 51.007 374.501 51.6901ZM330.323 52.0561C333.885 53.6046 333.817 58.3835 330.21 59.9629C326.686 61.5066 322.767 57.6743 324.421 54.3035C325.408 52.2941 328.32 51.1852 330.323 52.0561ZM286.354 52.2563C288.069 52.6945 289.227 55.6105 288.457 57.5559C287.275 60.5442 281.741 60.5979 280.966 57.6289C280.498 55.8362 281.575 52.4867 282.62 52.4867C282.991 52.4867 283.724 52.3684 284.248 52.2246C284.772 52.0802 285.72 52.0946 286.354 52.2563ZM243.388 53.9155C244.206 54.7018 244.69 55.8107 244.462 56.3796C244.235 56.9492 244.049 57.6495 244.049 57.9357C244.049 58.2225 243.229 58.8162 242.227 59.2551C240.638 59.9505 240.18 59.837 238.648 58.3649C236.519 56.3184 236.471 55.6436 238.324 53.8625C240.149 52.1084 241.523 52.1228 243.388 53.9155ZM199.614 54.439C200.551 56.121 199.802 58.6573 198.34 58.7591C194.319 59.0397 192.585 56.6493 195.075 54.2554C196.588 52.8018 198.752 52.8898 199.614 54.439ZM154.959 54.3166C155.542 54.8779 156.02 55.6023 156.02 55.9263C156.02 56.6906 153.952 58.6779 153.157 58.6779C151.904 58.6779 150.434 56.5949 150.781 55.314C151.252 53.5853 153.611 53.0219 154.959 54.3166ZM110.823 54.4713C112.418 55.4427 111.5 57.6461 109.5 57.6461C108.337 57.6461 107.641 57.2023 107.471 56.3528C107.248 55.2397 108.363 53.8839 109.5 53.8839C109.697 53.8839 110.292 54.148 110.823 54.4713ZM66.7971 55.0093C67.7827 55.9559 67.2223 57.3021 65.8431 57.3021C64.8891 57.3021 64.4118 56.8433 64.4118 55.9263C64.4118 54.6007 65.8124 54.0621 66.7971 55.0093ZM22.902 56.3273C22.902 57.5422 21.3611 57.331 20.9188 56.0556C20.7628 55.6057 21.1457 55.2384 21.769 55.2384C22.3924 55.2384 22.902 55.7289 22.902 56.3273ZM438 76.8889V83.2376L435.495 82.4837C434.112 82.0675 432.98 81.2661 432.967 80.6944C432.955 80.1248 432.514 79.1143 431.988 78.4477C430.606 76.697 432.635 72.9094 435.674 71.5673L438 70.5402V76.8889ZM395.387 71.7014C395.646 72.1052 396.417 72.4361 397.099 72.4361C397.812 72.4361 398.8 73.415 399.426 74.7406C400.389 76.783 400.392 77.2906 399.452 79.1975C398.105 81.9327 394.861 83.0966 391.617 82.0097C390.255 81.5536 389.333 80.7715 389.333 80.0732C389.333 79.4294 389.004 78.586 388.601 78.1987C387.587 77.2239 389.615 72.7154 391.273 72.2572C391.978 72.0632 393.085 71.6931 393.734 71.4352C394.383 71.1772 395.127 71.2969 395.387 71.7014ZM352.714 72.7677C355.309 74.1421 356.321 76.5284 355.314 78.8969C354.437 80.9586 350.34 83.1977 349.587 82.0269C349.358 81.6706 348.61 81.3789 347.925 81.3789C347.159 81.3789 346.342 80.4805 345.801 79.0434C344.713 76.1522 345.631 73.8435 348.358 72.6081C350.561 71.6099 350.527 71.6085 352.714 72.7677ZM308.674 73.0208C312.217 74.365 312.117 79.8566 308.526 81.1292C304.332 82.6158 300.467 78.9602 302.415 75.3508C303.78 72.8213 305.985 72.0006 308.674 73.0208ZM264.915 73.5856C267.438 74.2288 267.07 79.9714 264.444 80.9407C262.509 81.6541 259.735 80.6298 259.073 78.9581C258.182 76.7066 259.009 74.4909 261.012 73.7589C262.822 73.0979 262.975 73.091 264.915 73.5856ZM221.012 74.5266C223.811 77.0327 222.682 80.2321 219 80.2321C215.389 80.2321 214.197 77.0526 216.853 74.4998C218.64 72.7821 219.067 72.7849 221.012 74.5266ZM177.057 74.8692C178.418 76.1783 178.543 78.0281 177.347 79.1776C175.257 81.187 171.328 79.0104 172.187 76.3193C172.755 74.5397 172.522 74.764 174.373 74.2178C175.352 73.9295 176.324 74.1655 177.057 74.8692ZM132.939 74.9552C134.262 75.4684 134.024 78.456 132.599 79.223C130.967 80.1008 128.824 78.9815 128.824 77.2514C128.824 76.1783 130.878 74.3278 131.818 74.5542C131.942 74.5837 132.446 74.7646 132.939 74.9552ZM88.9834 75.6466C89.8416 76.4714 89.4844 78.4711 88.408 78.8687C87.0446 79.3709 85.1087 77.5101 85.6311 76.1996C86.0448 75.165 88.1253 74.8218 88.9834 75.6466ZM45.0883 77.3017C45.0883 79.0648 42.7193 78.8646 42.36 77.0719C42.1947 76.2464 42.5805 75.8756 43.6046 75.8756C44.6288 75.8756 45.0883 76.3173 45.0883 77.3017ZM0.65918 76.9646C0.624817 77.766 0.4552 77.929 0.226898 77.3808C0.02005 76.8841 0.0458069 76.2904 0.283417 76.062C0.521027 75.8337 0.689941 76.2395 0.65918 76.9646ZM419.073 92.5719C420.71 93.1036 421.47 93.9339 422.102 95.8793C423.9 101.416 419.426 105.643 413.614 103.9C411.915 103.39 410.804 102.631 410.804 101.98C410.804 101.388 410.353 100.311 409.802 99.5864C408.943 98.4569 408.943 98.0724 409.802 96.894C410.353 96.1373 410.804 95.005 410.804 94.3763C410.804 93.7482 411.529 93.0678 412.414 92.8649C413.3 92.6626 414.669 92.3538 415.456 92.1791C416.243 92.005 417.871 92.1818 419.073 92.5719ZM374.758 92.9997C379.382 95.2781 379.312 101.682 374.646 103.304C369.735 105.011 365.175 100.892 366.721 96.1449C367.346 94.227 368.588 93.2845 372.157 92.0208C372.354 91.9514 373.524 92.3916 374.758 92.9997ZM329.574 93.0733C329.817 93.4517 330.641 93.7612 331.405 93.7612C332.265 93.7612 332.794 94.2325 332.794 94.9995C332.794 95.6805 333.163 96.592 333.613 97.0247C334.84 98.2044 332.975 101.984 330.769 102.79C326.043 104.517 321.913 100.621 323.63 96.0561C324.159 94.6521 324.977 93.7612 325.739 93.7612C326.424 93.7612 327.183 93.4517 327.426 93.0733C327.67 92.695 328.153 92.3854 328.5 92.3854C328.847 92.3854 329.33 92.695 329.574 93.0733ZM286.765 93.9917C290.408 95.7273 290.255 100.807 286.509 102.507C284.363 103.481 280.895 101.987 280.311 99.8382C279.709 97.6259 280.553 94.6129 281.878 94.2442C282.525 94.0646 283.537 93.7667 284.127 93.5824C284.718 93.398 285.904 93.5824 286.765 93.9917ZM243.723 95.4501C244.843 96.5259 245.437 97.6913 245.187 98.3193C244.954 98.9013 244.765 99.6257 244.765 99.9297C244.765 100.234 243.972 100.981 243.004 101.591C239.416 103.851 234.983 99.5906 237.334 96.1414C237.969 95.2107 238.746 94.4492 239.063 94.4492C239.379 94.4492 240.133 94.2669 240.738 94.0433C241.392 93.8025 242.604 94.3735 243.723 95.4501ZM198.682 95.1233C200.635 95.8821 201.239 97.4684 200.39 99.6147C199.118 102.829 193.235 101.585 193.235 98.1013C193.235 97.1162 195.773 94.423 196.635 94.4925C196.93 94.5166 197.851 94.8007 198.682 95.1233ZM155.214 95.7576C156.088 96.2893 156.624 99.6449 155.93 100.239C154.799 101.209 152.436 101.225 151.443 100.271C149.992 98.8759 149.984 97.5963 151.418 96.2178C152.68 95.0057 153.764 94.8736 155.214 95.7576ZM111.621 97.1533C112.179 98.1556 112.084 98.7458 111.237 99.561C110.619 100.155 109.837 100.64 109.5 100.64C109.163 100.64 108.381 100.155 107.763 99.561C106.348 98.201 107.453 95.825 109.5 95.825C110.259 95.825 111.214 96.4228 111.621 97.1533ZM67.4749 97.3989C68.0425 98.8201 66.9346 100.123 65.3994 99.8389C63.4978 99.4867 63.6381 96.9139 65.5733 96.6484C66.4085 96.5342 67.2645 96.8713 67.4749 97.3989ZM22.8146 97.4436C23.6849 98.4514 23.1911 99.2645 21.7089 99.2645C20.6433 99.2645 20.4028 97.4911 21.3897 96.905C21.7383 96.6979 22.3795 96.9401 22.8146 97.4436ZM438 119.218V126.678L435.279 125.562C433.284 124.743 432.235 123.719 431.348 121.722C430.643 120.134 430.393 118.685 430.75 118.247C431.086 117.833 431.56 116.692 431.803 115.712C432.117 114.445 433.075 113.617 435.122 112.844L438 111.758V119.218ZM397.052 113.268C398.656 113.773 399.54 114.563 399.835 115.752C400.072 116.71 400.539 117.83 400.872 118.24C401.219 118.666 401.004 120.146 400.37 121.698C399.46 123.925 398.74 124.566 396.338 125.287C394.294 125.9 393.188 125.946 392.662 125.44C392.248 125.043 391.32 124.717 390.599 124.717C389.878 124.717 389.109 124.175 388.888 123.513C388.668 122.852 388.14 121.613 387.716 120.762C387.164 119.655 387.164 118.773 387.716 117.666C388.14 116.814 388.668 115.576 388.888 114.914C389.109 114.253 389.924 113.711 390.7 113.711C391.476 113.711 392.311 113.401 392.554 113.023C393.071 112.219 393.853 112.261 397.052 113.268ZM353.37 114.112C354.754 114.694 355.696 115.591 355.696 116.327C355.696 117.006 356.083 117.934 356.555 118.388C357.223 119.03 357.223 119.398 356.555 120.039C356.083 120.493 355.696 121.418 355.696 122.094C355.696 123.798 350.799 125.776 349.086 124.764C348.403 124.359 347.436 124.019 346.939 124.007C346.442 123.995 345.511 122.911 344.872 121.599C343.8 119.398 343.8 119.034 344.872 116.894C345.587 115.467 346.881 114.274 348.232 113.798C350.795 112.894 350.416 112.871 353.37 114.112ZM309.355 114.604C310.438 115.016 311.324 115.849 311.324 116.457C311.324 117.066 311.71 117.934 312.182 118.388C312.85 119.03 312.85 119.398 312.182 120.039C311.71 120.493 311.324 121.36 311.324 121.965C311.324 123.683 307.09 124.879 304.427 123.913C302.025 123.042 300.052 119.454 301.31 118.245C301.7 117.87 302.02 117.036 302.02 116.392C302.02 115.697 302.936 114.914 304.273 114.466C306.838 113.606 306.719 113.603 309.355 114.604ZM265.249 115.058C268.318 116.283 268.155 122.248 265.021 123.393C260.756 124.952 256.941 121.365 258.448 117.212C258.872 116.043 259.589 115.082 260.043 115.077C260.497 115.072 261.512 114.929 262.299 114.76C263.086 114.591 264.414 114.725 265.249 115.058ZM221.258 115.548C223.853 116.21 223.625 122.23 220.98 122.895C218.3 123.568 215.568 122.621 215.108 120.859C214 116.614 216.607 114.362 221.258 115.548ZM177.797 116.855C179.987 118.96 178.391 122.653 175.292 122.653C174.533 122.653 173.26 122.027 172.464 121.262C171.249 120.094 171.151 119.623 171.856 118.338C173.374 115.566 175.82 114.955 177.797 116.855ZM133.134 117.166C134.914 118.877 134.909 119.556 133.101 121.293C131.992 122.36 131.343 122.525 130.323 122.001C128.567 121.097 127.948 119.41 128.806 117.869C129.881 115.939 131.572 115.664 133.134 117.166ZM89.0536 117.544C89.6712 118.139 90.1765 118.89 90.1765 119.214C90.1765 119.538 89.6712 120.289 89.0536 120.883C87.6386 122.243 85.1667 121.181 85.1667 119.214C85.1667 117.246 87.6386 116.184 89.0536 117.544ZM45.4654 118.556C46.1224 119.578 44.4649 121.269 43.2468 120.819C41.678 120.24 41.9743 117.838 43.6146 117.838C44.379 117.838 45.2113 118.161 45.4654 118.556ZM1.01413 118.434C1.3226 118.913 1.38126 119.491 1.14508 119.718C0.504547 120.334 -0.193939 119.428 0.152466 118.431C0.394348 117.732 0.563232 117.732 1.01413 118.434ZM417.645 133.294C418.409 133.85 419.759 134.314 420.645 134.326C421.843 134.342 422.255 134.754 422.255 135.936C422.255 136.81 422.708 138.12 423.261 138.847C424.126 139.983 424.126 140.433 423.261 142.04C422.708 143.068 422.255 144.39 422.255 144.976C422.255 145.646 421.609 146.042 420.517 146.042C419.561 146.042 418.243 146.557 417.589 147.186C416.48 148.251 416.263 148.251 414.386 147.186C413.279 146.557 411.858 146.042 411.23 146.042C410.53 146.042 410.08 145.444 410.065 144.494C410.053 143.643 409.599 142.385 409.058 141.699C408.222 140.638 408.225 140.172 409.077 138.603C409.628 137.587 410.081 136.213 410.084 135.552C410.087 134.744 410.648 134.348 411.79 134.348C412.726 134.348 413.892 133.884 414.382 133.316C415.491 132.032 415.905 132.029 417.645 133.294ZM373.173 133.571C373.411 133.94 374.567 134.446 375.743 134.694C377.112 134.983 377.882 135.573 377.882 136.335C377.882 136.989 378.333 138.117 378.884 138.841C379.743 139.971 379.743 140.355 378.884 141.534C378.333 142.29 377.882 143.412 377.882 144.027C377.882 144.695 376.721 145.584 375.003 146.233C372.485 147.184 371.878 147.197 370.172 146.342C369.099 145.803 367.896 145.361 367.5 145.359C366.358 145.352 364.782 139.785 365.679 138.923C366.093 138.526 366.431 137.647 366.431 136.971C366.431 136.219 367.472 135.285 369.115 134.565C370.591 133.918 372.011 133.278 372.27 133.144C372.529 133.009 372.936 133.202 373.173 133.571ZM331.005 134.853C333.883 136.198 335.767 139.899 334.453 141.625C333.934 142.308 333.51 143.35 333.51 143.941C333.51 145.604 329.049 146.69 325.995 145.771C324.534 145.332 323.49 144.569 323.49 143.941C323.49 143.35 323.066 142.308 322.547 141.625C321.758 140.588 321.787 140.008 322.726 138.085C323.673 136.145 325.088 135.136 328.5 133.972C328.697 133.904 329.824 134.301 331.005 134.853ZM286.933 135.397C290.894 137.487 290.838 143.747 286.847 145.195C283.969 146.24 280.787 144.937 279.84 142.327C278.851 139.599 280.115 135.724 281.994 135.724C282.727 135.724 283.526 135.414 283.77 135.036C284.314 134.189 284.736 134.237 286.933 135.397ZM241.902 135.724C241.902 136.102 242.546 136.412 243.333 136.412C244.273 136.412 244.765 136.87 244.765 137.747C244.765 138.481 245.058 139.256 245.417 139.469C246.663 140.21 244.586 143.742 242.447 144.518C239.762 145.492 237.412 144.518 236.459 142.037C235.553 139.675 236.69 136.412 238.419 136.412C239.107 136.412 239.869 136.102 240.113 135.724C240.356 135.345 240.858 135.036 241.229 135.036C241.599 135.036 241.902 135.345 241.902 135.724ZM198.7 136.569C203.573 138.707 200.692 145.513 195.47 144.2C193.782 143.776 192.49 141.143 193.016 139.205C193.571 137.168 196.728 135.704 198.7 136.569ZM155.694 138.1C157.203 139.551 157.338 140.026 156.648 141.481C155.286 144.354 150.797 144.488 150.012 141.68C149.4 139.483 149.441 139.339 151.145 137.814C153.143 136.024 153.562 136.05 155.694 138.1ZM111.973 139.066C112.801 141.576 110.805 143.729 108.454 142.861C106.976 142.317 106.358 139.971 107.382 138.786C108.618 137.355 111.465 137.528 111.973 139.066ZM66.7807 138.581C68.2793 139.387 68.3638 141.63 66.9167 142.164C65.1869 142.802 63.6961 141.89 63.6961 140.195C63.6961 138.365 65.0559 137.653 66.7807 138.581ZM22.8683 139.469C23.8488 140.604 23.3099 141.915 21.8628 141.915C20.4951 141.915 19.9541 140.087 21.0605 139.205C21.7483 138.656 22.2271 138.726 22.8683 139.469ZM438 161.559V170.197L436.409 169.126C435.534 168.538 434.092 168.055 433.203 168.055C432.027 168.055 431.461 167.539 431.129 166.164C430.878 165.124 430.244 163.61 429.721 162.801C428.904 161.539 428.963 160.964 430.14 158.744C430.895 157.321 431.343 155.894 431.136 155.571C430.928 155.249 431.341 154.983 432.053 154.981C432.765 154.978 434.271 154.514 435.398 153.949C436.526 153.384 437.572 152.921 437.724 152.921C437.875 152.921 438 156.809 438 161.559ZM395.374 154.006C396.139 154.544 397.495 154.985 398.389 154.985C399.676 154.985 400.172 155.551 400.776 157.708C401.196 159.205 401.804 160.587 402.128 160.78C403.054 161.33 399.837 167.366 398.618 167.367C398.016 167.367 396.809 167.85 395.934 168.439C394.494 169.408 394.192 169.408 392.752 168.439C391.878 167.85 390.428 167.367 389.532 167.367C388.458 167.367 387.901 166.957 387.898 166.164C387.895 165.502 387.429 164.105 386.862 163.06C385.976 161.427 385.972 160.895 386.83 159.276C387.38 158.24 387.996 156.851 388.201 156.189C388.409 155.515 389.267 154.985 390.149 154.985C391.016 154.985 392.234 154.544 392.855 154.006C393.833 153.159 394.173 153.159 395.374 154.006ZM353.324 155.198C355.079 155.763 355.882 156.631 356.806 158.957C357.69 161.181 357.797 162.184 357.21 162.748C356.771 163.17 356.412 164.04 356.412 164.681C356.412 165.359 355.197 166.426 353.509 167.228C350.774 168.529 350.453 168.545 347.925 167.508C344.309 166.023 342.401 162.092 343.931 159.274C344.493 158.239 344.954 157.042 344.956 156.613C344.959 156.184 345.685 155.667 346.571 155.465C347.456 155.262 348.825 154.953 349.613 154.779C350.4 154.605 352.07 154.793 353.324 155.198ZM309.176 155.83C310.161 156.214 311.502 157.601 312.158 158.912C313.726 162.046 312.53 165.057 309.083 166.651C306.917 167.652 306.412 167.661 304.117 166.737C299.125 164.728 299.148 157.948 304.153 155.925C306.765 154.869 306.717 154.87 309.176 155.83ZM265.341 156.532C266.728 156.959 267.667 157.707 267.667 158.387C267.667 159.013 268.015 159.86 268.441 160.27C268.972 160.78 268.989 161.418 268.493 162.299C268.096 163.005 267.597 164.126 267.383 164.788C267.17 165.45 266.406 165.992 265.685 165.992C264.964 165.992 264.043 166.31 263.638 166.699C262.495 167.798 258.985 165.714 257.935 163.313C256.883 160.909 257.882 157.352 259.754 156.828C260.367 156.657 261.351 156.36 261.941 156.166C262.532 155.974 264.062 156.138 265.341 156.532ZM221.243 157.134C224.841 158.401 224.605 164.098 220.894 165.553C218.196 166.611 215.097 165.442 214.468 163.126C213.866 160.913 214.71 157.9 216.035 157.532C216.682 157.352 217.694 157.04 218.284 156.838C218.875 156.635 220.206 156.769 221.243 157.134ZM176.994 157.532C178.606 157.931 179.606 160.335 179.138 162.686C178.521 165.793 172.829 165.985 171.338 162.949C170.743 161.738 170.792 160.918 171.541 159.545C172.082 158.551 172.812 157.737 173.16 157.737C173.51 157.737 174.224 157.618 174.748 157.475C175.272 157.33 176.283 157.356 176.994 157.532ZM132.939 158.492C134.459 159.036 134.92 160.189 134.563 162.552C134.208 164.89 130.956 165.29 128.841 163.257C126.196 160.715 129.246 157.171 132.939 158.492ZM88.924 158.899C89.7549 159.108 90.1765 159.887 90.1765 161.213C90.1765 162.805 89.7878 163.307 88.2756 163.672C86.0899 164.2 84.2592 162.487 84.9849 160.594C85.4172 159.464 86.6288 158.383 87.3137 158.515C87.5106 158.553 88.2355 158.726 88.924 158.899ZM44.9795 159.721C46.3915 160.581 45.6772 162.862 43.9195 163.104C42.1253 163.351 41.1083 161.438 42.3006 160.057C43.2439 158.965 43.6533 158.913 44.9795 159.721ZM1.11218 160.548C1.37628 160.96 1.23456 161.641 0.796539 162.062C0.211823 162.624 0 162.425 0 161.314C0 159.653 0.37146 159.397 1.11218 160.548ZM418.276 174.613C419.041 175.168 420.409 175.622 421.318 175.622C422.518 175.622 422.971 176.017 422.971 177.064C422.971 177.857 423.49 179.352 424.126 180.385C425.189 182.116 425.189 182.437 424.126 184.413C423.49 185.594 422.971 187.029 422.971 187.6C422.971 188.231 421.845 188.931 420.108 189.381C418.533 189.788 417.245 190.419 417.245 190.783C417.245 191.772 415.391 191.58 414.454 190.496C414.003 189.974 412.715 189.37 411.59 189.154C410.106 188.868 409.408 188.232 409.045 186.835C408.771 185.776 408.07 184.402 407.49 183.782C406.553 182.783 406.599 182.393 407.9 180.343C408.707 179.071 409.368 177.488 409.37 176.826C409.372 176.028 409.929 175.622 411.025 175.622C411.934 175.622 413.302 175.168 414.067 174.613C414.83 174.057 415.778 173.603 416.172 173.603C416.565 173.603 417.513 174.057 418.276 174.613ZM374.304 175.278C375.288 175.819 376.656 176.272 377.346 176.286C378.035 176.299 378.598 176.79 378.598 177.377C378.598 177.963 379.093 179.363 379.699 180.489C380.691 182.332 380.691 182.687 379.699 184.048C379.093 184.879 378.598 186.264 378.598 187.126C378.598 188.298 378.187 188.693 376.968 188.693C376.072 188.693 374.602 189.188 373.703 189.793C372.245 190.775 371.939 190.782 370.861 189.856C370.196 189.285 368.847 188.713 367.863 188.583C366.582 188.415 366.004 187.86 365.829 186.629C365.695 185.683 365.099 184.386 364.505 183.747C363.542 182.711 363.549 182.417 364.571 181.015C365.2 180.151 365.716 178.739 365.716 177.877C365.716 176.699 366.126 176.31 367.368 176.31C368.277 176.31 369.646 175.856 370.41 175.3C372.109 174.065 372.096 174.066 374.304 175.278ZM329.539 175.569C329.764 175.919 330.91 176.408 332.086 176.656C333.437 176.941 334.225 177.538 334.225 178.276C334.225 178.918 334.727 180.132 335.34 180.972C336.348 182.356 336.348 182.647 335.34 184.031C334.727 184.871 334.225 186.11 334.225 186.782C334.225 187.611 333.677 188.005 332.524 188.005C331.588 188.005 330.415 188.476 329.918 189.052C329.108 189.99 328.84 189.99 327.351 189.052C326.436 188.476 325.033 188.005 324.231 188.005C323.313 188.005 322.775 187.553 322.775 186.782C322.775 186.11 322.273 184.871 321.66 184.031C320.652 182.647 320.652 182.356 321.66 180.972C322.273 180.132 322.775 178.918 322.775 178.276C322.775 177.538 323.563 176.941 324.914 176.656C326.09 176.408 327.236 175.919 327.461 175.569C327.685 175.22 328.153 174.934 328.5 174.934C328.847 174.934 329.315 175.22 329.539 175.569ZM287.435 176.925C290.398 178.391 291.493 181.19 290.41 184.529C289.731 186.62 289.092 187.21 286.751 187.913C284.768 188.508 283.688 188.545 283.162 188.04C282.748 187.642 281.897 187.317 281.27 187.317C280.644 187.317 279.621 186.233 278.996 184.909C277.963 182.717 277.962 182.288 278.987 180.114C279.959 178.053 281.268 177.119 284.843 175.937C285.04 175.873 286.207 176.316 287.435 176.925ZM242.938 177.381C245.24 178.285 247.408 182.3 246.214 183.447C245.81 183.835 245.48 184.648 245.48 185.252C245.48 187.014 241.245 188.166 238.47 187.159C237.208 186.702 236.176 185.838 236.176 185.24C236.176 184.642 235.79 183.781 235.318 183.327C234.65 182.685 234.65 182.318 235.318 181.676C235.79 181.222 236.176 180.358 236.176 179.755C236.176 179.153 237.245 178.195 238.552 177.626C240.441 176.803 241.338 176.753 242.938 177.381ZM199.498 178.166C200.425 178.341 201.108 178.975 201.108 179.66C201.108 180.315 201.43 181.16 201.824 181.538C202.958 182.629 201.089 185.646 198.756 186.493C194.728 187.954 191.026 184.321 192.706 180.556C193.157 179.545 193.54 178.677 193.559 178.626C193.692 178.269 198.195 177.919 199.498 178.166ZM155.415 178.836C156.067 179.002 156.78 179.826 156.999 180.668C158.34 185.803 152.153 188.502 149.591 183.901C148.292 181.567 151.157 177.929 153.873 178.463C154.069 178.502 154.764 178.67 155.415 178.836ZM111.037 179.524C113.451 180.137 113.323 184.022 110.847 185.296C109.319 186.083 107.055 185.226 106.413 183.619C105.929 182.409 106.593 179.75 107.378 179.75C107.694 179.75 108.381 179.631 108.905 179.488C109.429 179.343 110.388 179.36 111.037 179.524ZM67.5508 180.802C68.819 182.021 68.3831 183.627 66.5245 184.583C65.5826 185.067 64.9185 184.954 64.1033 184.171C62.6927 182.814 62.6927 182.188 64.1047 180.831C65.511 179.479 66.1695 179.474 67.5508 180.802ZM23.116 180.872C23.3915 181.138 23.6176 181.944 23.6176 182.664C23.6176 183.628 23.1932 183.915 22.0074 183.753C20.9546 183.61 20.3971 183.06 20.3971 182.167C20.3971 180.802 22.1663 179.96 23.116 180.872ZM438 203.5V213.343L435.316 212.054C433.84 211.345 432.068 210.607 431.38 210.413C430.691 210.219 430.127 209.403 430.127 208.598C430.127 207.793 429.59 206.26 428.934 205.192C427.819 203.379 427.819 203.134 428.934 201.499C429.59 200.536 430.127 198.963 430.127 198.003C430.127 196.787 430.515 196.26 431.408 196.26C432.111 196.26 433.883 195.674 435.344 194.958L438 193.657V203.5ZM395.712 195.156C396.168 195.684 397.657 196.317 399.021 196.563C400.892 196.9 401.5 197.355 401.5 198.42C401.5 199.196 402.045 200.717 402.711 201.801C403.848 203.651 403.848 203.849 402.711 205.057C402.045 205.764 401.5 207.023 401.5 207.853C401.5 208.879 400.868 209.581 399.532 210.04C398.449 210.411 396.759 211.136 395.775 211.652C394.208 212.472 393.718 212.429 391.838 211.306C390.657 210.602 389.128 210.023 388.439 210.021C387.75 210.019 387.186 209.523 387.186 208.918C387.186 208.313 386.68 206.793 386.061 205.539C385.039 203.468 385.039 203.071 386.061 201.171C386.68 200.02 387.186 198.6 387.186 198.014C387.186 197.427 387.601 196.948 388.109 196.948C388.616 196.948 390.294 196.328 391.838 195.572C395.174 193.937 394.704 193.987 395.712 195.156ZM352.475 196.142C353.656 196.707 355.056 197.356 355.587 197.583C356.117 197.811 356.996 199.231 357.539 200.74C358.403 203.139 358.381 203.85 357.367 206.418C356.518 208.568 355.71 209.467 354.342 209.78C353.316 210.015 352.075 210.51 351.586 210.881C350.985 211.335 349.9 211.192 348.257 210.442C346.915 209.831 345.464 209.33 345.032 209.33C344.599 209.33 344.245 208.99 344.245 208.574C344.245 208.158 343.751 206.816 343.147 205.592C342.13 203.535 342.156 203.124 343.479 200.157C344.43 198.022 345.344 196.948 346.208 196.948C346.921 196.948 348.141 196.535 348.916 196.031C350.103 195.261 350.671 195.279 352.475 196.142ZM308.103 196.948C308.346 197.326 309.325 197.635 310.279 197.635C311.578 197.635 312.129 198.109 312.482 199.527C312.741 200.567 313.259 201.794 313.634 202.252C314.081 202.799 313.891 204.006 313.081 205.771C311.719 208.74 307.039 211.42 305.391 210.175C304.915 209.814 303.638 209.316 302.556 209.068C301.122 208.738 300.588 208.19 300.588 207.047C300.588 206.183 300.241 205.144 299.816 204.735C299.264 204.205 299.337 203.161 300.073 201.069C300.931 198.629 301.564 197.989 303.887 197.212C307.248 196.088 307.538 196.069 308.103 196.948ZM265.183 197.835C266.675 198.308 267.702 199.314 268.479 201.062C269.53 203.428 269.515 203.773 268.262 206.121C267.477 207.592 266.387 208.642 265.646 208.642C264.946 208.642 263.988 209.013 263.516 209.467C262.848 210.109 262.466 210.109 261.798 209.467C261.326 209.013 260.364 208.642 259.66 208.642C258.871 208.642 257.973 207.702 257.312 206.181C255.958 203.065 257.121 198.603 259.415 198.119C260.214 197.951 261.351 197.663 261.941 197.48C262.532 197.297 263.99 197.457 265.183 197.835ZM220.074 198.323C220.317 198.702 221.076 199.011 221.761 199.011C223.696 199.011 224.929 202.994 223.846 205.749C223.37 206.962 222.471 207.954 221.849 207.954C221.227 207.954 220.331 208.326 219.859 208.78C219.191 209.421 218.809 209.421 218.141 208.78C217.669 208.326 216.774 207.954 216.151 207.954C215.529 207.954 214.63 206.962 214.154 205.749C213.071 202.994 214.304 199.011 216.239 199.011C216.924 199.011 217.683 198.702 217.926 198.323C218.17 197.945 218.653 197.635 219 197.635C219.347 197.635 219.83 197.945 220.074 198.323ZM177.166 199.198C179.45 200.3 180.374 202.768 179.416 205.209C178.949 206.396 178.086 207.266 177.376 207.266C176.698 207.266 175.96 207.551 175.737 207.898C175.506 208.258 174.441 208.104 173.263 207.539C169.583 205.775 169.653 201.158 173.386 199.367C174.584 198.793 175.594 198.361 175.632 198.408C175.67 198.454 176.36 198.81 177.166 199.198ZM133.229 200.161C135.819 200.821 135.514 206.196 132.849 206.839C129.15 207.732 126.877 205.525 127.842 201.978C128.174 200.756 130.339 199.523 131.686 199.789C131.883 199.827 132.577 199.995 133.229 200.161ZM89.7678 201.468C90.3862 202.063 90.8922 202.969 90.8922 203.483C90.8922 203.996 90.3862 204.902 89.7678 205.498C89.1487 206.092 88.2055 206.578 87.6716 206.578C87.1377 206.578 86.1944 206.092 85.5753 205.498C84.957 204.902 84.451 203.996 84.451 203.483C84.451 202.969 84.957 202.063 85.5753 201.468C86.1944 200.873 87.1377 200.387 87.6716 200.387C88.2055 200.387 89.1487 200.873 89.7678 201.468ZM45.3645 202.127C47.3312 204.017 44.6338 206.838 42.4924 205.13C41.1641 204.071 41.2493 202.006 42.642 201.493C44.155 200.935 44.1142 200.925 45.3645 202.127ZM1.05136 202.652C1.35767 203.331 1.40707 204.079 1.16229 204.315C0.43515 205.013 -0.151001 204.032 0.18396 202.676C0.480255 201.475 0.51889 201.474 1.05136 202.652ZM418.319 215.635C419.5 216.325 421.19 216.891 422.076 216.893C423.145 216.895 423.686 217.311 423.686 218.128C423.686 218.804 424.295 220.506 425.04 221.911C426.369 224.416 426.369 224.512 425.04 227.017C424.295 228.421 423.686 230.124 423.686 230.8C423.686 231.617 423.145 232.032 422.076 232.034C421.19 232.035 419.5 232.601 418.319 233.292C416.24 234.509 416.103 234.509 414.025 233.293C412.844 232.603 411.178 232.036 410.324 232.034C409.156 232.032 408.645 231.478 408.262 229.805C407.982 228.581 407.276 226.878 406.692 226.022C405.753 224.645 405.753 224.283 406.692 222.906C407.276 222.049 407.982 220.347 408.262 219.122C408.645 217.449 409.156 216.896 410.324 216.894C411.178 216.893 412.844 216.327 414.025 215.635C416.103 214.419 416.24 214.419 418.319 215.635ZM374.62 216.575C375.384 217.13 376.672 217.589 377.482 217.594C378.639 217.602 379.228 218.426 380.217 221.421C381.351 224.851 381.368 225.39 380.396 226.724C379.801 227.541 379.314 228.915 379.314 229.777C379.314 230.908 378.897 231.343 377.814 231.343C376.989 231.343 375.418 231.851 374.323 232.473C372.477 233.522 372.211 233.522 370.655 232.473C369.731 231.851 368.242 231.343 367.345 231.343C366.449 231.343 365.716 230.952 365.716 230.473C365.716 229.995 365.056 228.419 364.249 226.973C363.101 224.914 362.965 224.131 363.624 223.367C364.088 222.831 364.679 221.388 364.939 220.16C365.293 218.482 365.843 217.87 367.154 217.689C368.112 217.557 369.54 217.015 370.328 216.485C372.112 215.284 372.865 215.3 374.62 216.575ZM330.247 217.263C331.011 217.818 332.38 218.273 333.289 218.273C334.531 218.273 334.941 218.661 334.941 219.839C334.941 220.701 335.452 222.107 336.077 222.965C337.114 224.388 337.114 224.667 336.077 226.189C335.452 227.105 334.941 228.485 334.941 229.255C334.941 230.253 334.473 230.655 333.312 230.655C332.415 230.655 330.966 231.137 330.091 231.726C328.651 232.695 328.349 232.695 326.909 231.726C326.034 231.137 324.738 230.655 324.029 230.655C323.268 230.655 322.452 229.879 322.041 228.763C321.657 227.723 321.01 226.318 320.605 225.643C320.062 224.739 320.157 224.016 320.963 222.91C321.566 222.083 322.059 220.701 322.059 219.839C322.059 218.661 322.469 218.273 323.711 218.273C324.62 218.273 325.989 217.818 326.753 217.263C327.517 216.707 328.303 216.253 328.5 216.253C328.697 216.253 329.483 216.707 330.247 217.263ZM286.59 217.951C287.354 218.506 288.562 218.961 289.274 218.961C290.094 218.961 290.569 219.468 290.569 220.346C290.569 221.108 290.968 222.346 291.457 223.098C292.163 224.185 292.163 224.742 291.457 225.83C290.968 226.582 290.569 227.82 290.569 228.582C290.569 229.451 290.094 229.967 289.297 229.967C288.597 229.967 287.309 230.449 286.434 231.038C284.994 232.007 284.692 232.007 283.252 231.038C282.378 230.449 281.089 229.967 280.389 229.967C279.69 229.967 279.116 229.581 279.113 229.107C279.11 228.635 278.631 227.367 278.047 226.29C277.107 224.559 277.108 224.164 278.051 222.869C278.637 222.064 279.118 220.856 279.118 220.183C279.118 219.462 279.649 218.961 280.412 218.961C281.124 218.961 282.332 218.506 283.096 217.951C283.86 217.395 284.646 216.941 284.843 216.941C285.04 216.941 285.826 217.395 286.59 217.951ZM243.729 219.161C245.297 219.66 246.125 220.507 246.663 222.16C247.586 224.991 246.419 229.279 244.726 229.279C244.111 229.279 243.026 229.687 242.316 230.187C241.225 230.953 240.594 230.889 238.243 229.77C236.646 229.011 235.461 227.951 235.461 227.281C235.461 226.64 235.146 225.812 234.761 225.442C233.504 224.234 236.123 219.944 238.653 219.064C239.906 218.629 241.068 218.316 241.237 218.37C241.406 218.423 242.527 218.779 243.729 219.161ZM199.241 219.951C203.599 221.8 203.591 227.203 199.227 228.917C196.793 229.874 192.52 228.769 192.52 227.185C192.52 226.596 192.133 225.743 191.661 225.289C190.993 224.648 190.993 224.28 191.661 223.638C192.133 223.184 192.52 222.291 192.52 221.655C192.52 221.018 193.084 220.341 193.772 220.151C194.461 219.96 195.508 219.64 196.098 219.439C196.688 219.238 198.103 219.468 199.241 219.951ZM155.043 220.455C158.601 222.105 158.53 226.897 154.923 228.476C151.404 230.017 147.455 226.148 149.109 222.779C149.563 221.853 150.419 220.924 151.01 220.715C151.6 220.506 152.405 220.203 152.799 220.041C153.193 219.88 154.202 220.066 155.043 220.455ZM111.544 221.768C113.358 223.392 113.514 225.322 111.954 226.823C109.066 229.598 104.21 225.927 106.469 222.675C106.758 222.259 107.674 221.575 108.502 221.156C109.728 220.537 110.297 220.651 111.544 221.768ZM67.9623 223.039C69.3378 225.508 66.9732 227.853 64.1548 226.814C62.6233 226.249 62.591 222.691 64.1126 222.13C66.0771 221.405 67.2008 221.67 67.9623 223.039ZM23.6219 223.437C24.4142 224.354 24.3827 224.711 23.433 225.624C21.8979 227.099 19.8746 226.28 20.168 224.302C20.4479 222.418 22.3344 221.945 23.6219 223.437ZM438 245.445C438 255.176 437.576 257.542 436.211 255.419C435.967 255.041 434.338 254.385 432.59 253.962C430.159 253.373 429.412 252.87 429.412 251.82C429.412 251.065 428.712 249.251 427.857 247.788C426.383 245.268 426.366 245.061 427.53 243.824C428.204 243.107 428.947 241.398 429.178 240.027C429.465 238.327 429.976 237.534 430.785 237.534C431.438 237.534 433.235 236.915 434.779 236.158C436.324 235.402 437.68 234.782 437.793 234.782C437.907 234.782 438 239.581 438 245.445ZM396.078 236.515C396.835 237.066 398.526 237.71 399.835 237.946C401.516 238.249 402.216 238.75 402.216 239.651C402.216 240.352 402.734 241.971 403.367 243.248C404.425 245.38 404.425 245.742 403.367 247.708C402.734 248.885 402.216 250.476 402.216 251.245C402.216 252.2 401.594 252.785 400.248 253.095C399.165 253.345 397.338 254.005 396.189 254.563C394.346 255.457 393.879 255.456 392.253 254.56C391.237 254.001 389.557 253.349 388.52 253.112C387.075 252.782 386.525 252.132 386.175 250.336C385.923 249.046 385.242 247.613 384.663 247.15C383.262 246.033 383.331 245.312 385.039 243.225C385.826 242.263 386.471 240.744 386.471 239.849C386.471 238.745 386.882 238.222 387.751 238.222C388.454 238.222 390.294 237.603 391.838 236.846C393.383 236.09 394.658 235.48 394.673 235.492C394.689 235.504 395.321 235.965 396.078 236.515ZM352.561 237.595C353.695 238.313 355.186 238.903 355.875 238.905C356.564 238.908 357.127 239.309 357.127 239.797C357.127 240.284 357.759 241.873 358.531 243.329C359.783 245.69 359.822 246.132 358.889 247.411C358.314 248.201 357.843 249.546 357.843 250.4C357.843 251.53 357.306 252.074 355.875 252.393C354.792 252.634 353.215 253.246 352.369 253.752C351.042 254.546 350.34 254.473 347.247 253.217C344.458 252.084 343.577 251.346 343.273 249.89C343.059 248.861 342.379 247.534 341.762 246.941C340.745 245.962 340.774 245.654 342.082 243.59C342.875 242.341 343.525 240.776 343.527 240.114C343.528 239.428 344.068 238.909 344.782 238.907C345.471 238.906 347.039 238.316 348.267 237.596C350.46 236.311 350.535 236.311 352.561 237.595ZM308.069 238.169C308.293 238.519 309.44 239.008 310.616 239.256C311.792 239.504 312.755 240.023 312.755 240.408C312.755 240.794 313.247 242.105 313.847 243.321C314.858 245.369 314.829 245.773 313.456 248.757C312.498 250.837 311.525 251.98 310.711 251.98C310.017 251.98 308.852 252.401 308.121 252.914C307.019 253.689 306.475 253.695 304.942 252.949C303.925 252.455 302.522 251.887 301.824 251.687C301.126 251.487 300.386 250.775 300.177 250.104C299.97 249.434 299.379 248.085 298.864 247.107C298.088 245.634 298.095 245.111 298.901 244.052C299.435 243.35 299.873 242.229 299.873 241.562C299.873 240.782 301.053 239.848 303.184 238.942C306.91 237.358 307.488 237.267 308.069 238.169ZM265.695 239.492C267.169 240.118 268.379 240.939 268.383 241.318C268.387 241.696 268.869 242.886 269.453 243.963C270.393 245.694 270.392 246.089 269.449 247.384C268.863 248.188 268.382 249.449 268.382 250.184C268.382 250.919 268.181 251.327 267.934 251.09C267.687 250.853 266.427 251.084 265.134 251.603C263.192 252.383 262.317 252.394 260.113 251.666C257.914 250.939 257.264 250.269 256.416 247.859C255.68 245.767 255.607 244.723 256.159 244.192C256.584 243.784 256.931 242.763 256.931 241.922C256.931 240.786 257.479 240.28 259.071 239.944C260.246 239.696 261.393 239.206 261.618 238.857C262.132 238.057 262.42 238.102 265.695 239.492ZM221.565 240.424C224.106 241.21 226.224 245.312 224.798 246.683C224.364 247.099 224.01 247.933 224.01 248.535C224.01 249.927 218.965 252.222 217.982 251.277C217.597 250.907 216.707 250.604 216.003 250.604C214.231 250.604 212.173 245.897 213.226 244.251C213.647 243.594 213.99 242.623 213.99 242.095C213.99 241.567 214.714 240.983 215.6 240.798C216.487 240.614 217.694 240.3 218.284 240.102C218.875 239.903 220.351 240.048 221.565 240.424ZM176.417 240.974C176.66 241.352 177.414 241.662 178.091 241.662C179.985 241.662 181.005 244.999 179.904 247.591C178.34 251.278 172.639 251.398 170.763 247.784C169.351 245.064 170.583 241.952 173.453 240.991C176.015 240.132 175.876 240.133 176.417 240.974ZM133.288 241.712C135.15 242.755 136.072 244.853 135.549 246.857C134.672 250.216 129.028 250.686 127.53 247.525C126.457 245.261 127.244 243.147 129.594 241.978C131.951 240.807 131.703 240.824 133.288 241.712ZM89.8509 243.35C91.3602 244.8 91.494 245.276 90.8048 246.731C88.9348 250.675 83.1191 248.545 84.2649 244.336C84.4338 243.714 85.3649 242.858 86.334 242.433C87.8477 241.771 88.3422 241.9 89.8509 243.35ZM45.854 244.127C47.0385 245.499 45.9507 247.415 43.8115 247.723C41.6938 248.027 40.4062 245.572 41.9199 244.117C43.3506 242.742 44.661 242.746 45.854 244.127ZM0.95401 244.184C1.6969 244.897 1.51511 247.165 0.715698 247.165C0.322052 247.165 0 246.391 0 245.445C0 243.644 0.165344 243.425 0.95401 244.184ZM418.577 256.818C419.506 257.563 421.197 258.171 422.334 258.171C423.796 258.171 424.402 258.511 424.402 259.33C424.402 259.967 425.075 261.825 425.897 263.457L427.392 266.426L425.897 269.395C425.075 271.028 424.402 272.885 424.402 273.523C424.402 274.16 423.859 274.681 423.197 274.681C422.533 274.681 420.665 275.298 419.044 276.052C416.101 277.422 416.094 277.422 413.3 276.052C411.76 275.298 409.959 274.681 409.298 274.681C408.077 274.681 407.225 273.358 407.225 271.464C407.225 270.891 406.547 269.507 405.718 268.388C404.274 266.438 404.263 266.296 405.473 265.011C406.168 264.274 406.93 262.524 407.167 261.122C407.557 258.817 407.866 258.52 410.417 258.011C411.968 257.702 413.762 256.992 414.403 256.434C415.912 255.121 416.529 255.178 418.577 256.818ZM374.204 257.506C375.133 258.25 376.674 258.859 377.626 258.859C378.66 258.859 379.506 259.345 379.725 260.063C379.927 260.725 380.691 262.421 381.424 263.831C382.725 266.335 382.724 266.453 381.392 268.963C380.643 270.376 380.029 272.086 380.029 272.763C380.029 273.579 379.488 273.994 378.419 273.996C377.534 273.997 375.726 274.633 374.403 275.408C372.19 276.704 371.894 276.73 370.734 275.721C370.04 275.117 368.304 274.44 366.878 274.218C364.632 273.867 364.284 273.561 364.284 271.932C364.284 270.898 363.656 269.283 362.887 268.344C361.588 266.757 361.571 266.527 362.64 265.059C363.273 264.192 363.993 262.529 364.241 261.366C364.602 259.665 365.149 259.16 367.022 258.792C368.304 258.54 369.928 257.833 370.632 257.221C372.202 255.855 372.136 255.85 374.204 257.506ZM330.247 258.537C331.011 259.092 332.39 259.547 333.312 259.547C334.278 259.547 335.154 260.056 335.382 260.751C335.6 261.413 336.271 263.09 336.873 264.477C337.865 266.763 337.859 267.15 336.813 268.586C336.177 269.459 335.657 270.843 335.657 271.662C335.657 272.812 335.101 273.252 333.224 273.591C331.886 273.832 330.396 274.487 329.913 275.046C329.146 275.934 328.743 275.888 326.715 274.684C325.439 273.926 323.708 273.305 322.869 273.305C321.758 273.305 321.343 272.879 321.343 271.739C321.343 270.877 320.823 269.459 320.187 268.586C319.141 267.15 319.135 266.763 320.127 264.477C320.729 263.09 321.4 261.413 321.618 260.751C321.839 260.078 322.734 259.538 323.647 259.525C324.544 259.513 325.905 259.049 326.669 258.493C328.358 257.265 328.501 257.267 330.247 258.537ZM286.99 259.229C287.974 259.74 289.343 260.322 290.032 260.52C290.738 260.723 291.294 261.563 291.307 262.449C291.319 263.312 291.79 264.603 292.352 265.317C293.24 266.443 293.237 266.805 292.33 268.05C291.755 268.839 291.284 270.044 291.284 270.728C291.284 271.413 290.721 272.142 290.032 272.349C289.343 272.556 287.903 273.178 286.831 273.731C285.112 274.618 284.633 274.612 282.752 273.677C281.58 273.094 280.121 272.617 279.511 272.617C278.901 272.617 278.402 272.138 278.402 271.551C278.402 270.965 277.922 269.593 277.335 268.502C276.401 266.767 276.397 266.274 277.298 264.58C277.865 263.514 278.496 262.101 278.701 261.439C278.905 260.777 279.665 260.235 280.389 260.235C281.114 260.235 282.332 259.78 283.096 259.225C284.734 258.034 284.696 258.034 286.99 259.229ZM243.87 260.474C245.15 260.878 246.198 261.53 246.2 261.925C246.203 262.32 246.663 263.487 247.223 264.519C248.113 266.159 248.099 266.742 247.11 269.162C246.457 270.76 245.495 271.938 244.835 271.952C244.206 271.963 243.084 272.416 242.341 272.956C241.168 273.809 240.793 273.806 239.497 272.935C238.676 272.382 237.433 271.93 236.733 271.93C235.991 271.93 235.461 271.42 235.461 270.707C235.461 270.034 234.994 268.843 234.423 268.06C233.499 266.792 233.546 266.322 234.856 263.779C235.782 261.98 236.812 260.923 237.64 260.923C238.364 260.923 239.154 260.613 239.397 260.235C239.914 259.432 240.698 259.474 243.87 260.474ZM199.357 261.2C201.022 261.671 201.741 262.428 202.372 264.376C203.351 267.389 202.232 271.242 200.379 271.242C199.756 271.242 198.893 271.582 198.459 271.999C197.099 273.306 192.871 271.354 191.705 268.881C190.824 267.013 190.828 266.406 191.74 264.297C192.979 261.43 195.935 260.228 199.357 261.2ZM155.569 262.206C156.305 262.488 157.294 263.629 157.767 264.74C159.617 269.091 155.423 272.911 151.081 270.829C149.95 270.286 148.843 269.182 148.624 268.376C148.196 266.803 148.76 263.119 149.492 262.71C150.66 262.055 154.374 261.748 155.569 262.206ZM111.406 263.112C114.309 264.462 114.176 269.452 111.217 270.166C107.199 271.135 104.691 268.813 105.71 265.066C105.968 264.116 108.939 262.097 109.713 262.346C109.793 262.371 110.554 262.716 111.406 263.112ZM66.6383 263.49C67.2724 263.626 68.1348 264.464 68.5549 265.35C69.1783 266.666 69.0523 267.235 67.8657 268.46C67.062 269.289 65.9398 269.785 65.3536 269.569C64.771 269.354 64.0367 269.178 63.7211 269.178C62.7857 269.178 62.2847 266.3 62.9976 265.02C63.7576 263.655 64.9944 263.135 66.6383 263.49ZM23.5425 265.307C25.3188 267.365 22.3853 269.959 20.4193 268.069C19.5984 267.28 19.5103 266.688 20.0657 265.691C20.9324 264.135 22.391 263.974 23.5425 265.307ZM438 287.361C438 294.007 437.847 299.446 437.659 299.446C437.472 299.446 436.264 298.828 434.976 298.073C433.687 297.318 431.746 296.698 430.664 296.697C428.977 296.695 428.696 296.414 428.696 294.727C428.696 293.644 427.885 291.611 426.894 290.207L425.092 287.654L426.581 285.646C427.399 284.541 428.246 282.585 428.463 281.3C428.804 279.279 429.186 278.913 431.288 278.584C432.625 278.376 434.683 277.546 435.86 276.74L438 275.276V287.361ZM397.194 278.16C398.566 278.895 400.418 279.497 401.31 279.497C402.617 279.497 402.931 279.878 402.931 281.467C402.931 282.552 403.625 284.286 404.473 285.322C405.984 287.169 405.989 287.249 404.714 289.323C403.998 290.487 403.213 292.379 402.969 293.528C402.616 295.186 402.055 295.708 400.241 296.065C398.985 296.311 397.129 297.035 396.117 297.672C394.37 298.772 394.157 298.76 391.9 297.419C390.592 296.642 388.675 296.006 387.639 296.006C386.159 296.006 385.755 295.673 385.755 294.448C385.755 293.592 385.081 291.683 384.258 290.207L382.762 287.523L384.258 284.964C385.081 283.557 385.755 281.75 385.755 280.951C385.755 280.012 386.209 279.497 387.035 279.497C387.739 279.497 389.578 278.877 391.123 278.121C394.45 276.49 394.074 276.488 397.194 278.16ZM352.102 278.447C352.584 279.004 354.075 279.658 355.417 279.9C357.285 280.237 357.961 280.765 358.305 282.154C358.552 283.151 359.247 284.794 359.85 285.804C360.835 287.454 360.835 287.804 359.846 289.254C359.242 290.141 358.518 291.869 358.238 293.093C357.855 294.767 357.344 295.319 356.176 295.321C355.322 295.323 353.631 295.905 352.418 296.616C350.268 297.876 350.17 297.876 348.482 296.628C347.529 295.924 345.864 295.342 344.782 295.334C343.42 295.323 342.814 294.961 342.814 294.16C342.814 293.522 342.134 291.651 341.302 290C339.912 287.238 339.882 286.901 340.936 285.782C341.566 285.113 342.286 283.58 342.537 282.375C342.887 280.695 343.366 280.184 344.596 280.184C345.478 280.184 347.018 279.565 348.019 278.809C350.19 277.167 350.94 277.101 352.102 278.447ZM307.764 279.175C308.227 279.71 309.7 280.345 311.037 280.587C312.628 280.874 313.471 281.417 313.473 282.153C313.475 282.773 314.136 284.321 314.943 285.593C316.244 287.643 316.29 288.033 315.354 289.032C314.773 289.652 314.07 291.035 313.792 292.107C313.514 293.178 312.764 294.203 312.126 294.386C311.488 294.569 309.978 295.181 308.771 295.746C306.821 296.661 306.342 296.659 304.477 295.738C303.322 295.168 301.824 294.543 301.146 294.351C300.469 294.159 299.702 293.137 299.44 292.08C299.178 291.024 298.529 289.675 297.997 289.083C297.175 288.17 297.245 287.6 298.45 285.326C299.233 283.852 299.873 282.246 299.873 281.759C299.873 281.271 300.436 280.871 301.125 280.87C301.814 280.868 303.401 280.268 304.651 279.535C306.591 278.398 307.048 278.345 307.764 279.175ZM264.804 280.586C265.788 281.11 267.156 281.544 267.846 281.55C268.556 281.556 269.1 282.082 269.102 282.764C269.105 283.426 269.571 284.823 270.138 285.868C271.024 287.5 271.028 288.033 270.17 289.651C269.62 290.687 269.004 292.077 268.799 292.739C268.578 293.454 267.726 293.943 266.703 293.943C265.755 293.943 264.599 294.382 264.135 294.92C263.415 295.753 263.008 295.759 261.364 294.955C260.304 294.437 258.865 293.849 258.167 293.65C257.47 293.449 256.716 292.737 256.493 292.067C256.269 291.396 255.738 290.15 255.314 289.299C254.759 288.186 254.765 287.317 255.334 286.204C255.77 285.353 256.329 283.959 256.577 283.108C256.825 282.257 257.588 281.56 258.274 281.56C258.96 281.56 260.146 281.106 260.91 280.55C262.546 279.36 262.507 279.36 264.804 280.586ZM220.825 281.494C221.199 281.835 222.1 282.222 222.826 282.353C223.601 282.493 224.524 283.645 225.056 285.139C226.301 288.63 225.101 292.455 222.578 293.034C221.594 293.26 220.43 293.714 219.991 294.044C219.515 294.404 218.362 294.228 217.128 293.61C215.993 293.041 214.74 292.574 214.344 292.571C213.949 292.569 213.267 291.469 212.83 290.126C211.841 287.088 213.159 282.717 215.174 282.353C215.9 282.222 216.801 281.835 217.175 281.494C217.549 281.152 218.37 280.872 219 280.872C219.63 280.872 220.451 281.152 220.825 281.494ZM176.387 282.201C176.646 282.605 177.419 282.936 178.104 282.936C178.866 282.936 179.684 283.827 180.213 285.231C181.396 288.374 180.252 291.35 177.353 292.669C175.387 293.564 174.851 293.56 172.731 292.637C171.413 292.063 170.333 291.099 170.333 290.498C170.333 289.895 170.004 289.086 169.601 288.699C168.587 287.724 170.615 283.215 172.273 282.757C172.978 282.563 174.085 282.193 174.734 281.935C175.383 281.677 176.127 281.797 176.387 282.201ZM133.509 283.403C135.555 283.794 136.821 287.222 135.737 289.433C134.581 291.789 132.298 292.669 129.744 291.743C126.885 290.705 125.774 288.255 127.072 285.851C128.418 283.357 130.039 282.741 133.509 283.403ZM89.3284 284.095C90.5672 284.571 91.6043 287.272 91.1663 288.882C90.2939 292.089 84.982 291.943 84.1325 288.688C83.6866 286.982 84.7344 284.312 85.8487 284.312C86.1965 284.312 86.9101 284.182 87.434 284.022C87.9586 283.863 88.8109 283.896 89.3284 284.095ZM46.0423 285.459C46.3049 285.71 46.5196 286.629 46.5196 287.498C46.5196 290.302 42.2377 291.256 41.2099 288.68C40.2609 286.303 44.1936 283.681 46.0423 285.459ZM1.36554 286.635C2.11987 287.515 2.16782 288.007 1.55591 288.595C0.473083 289.636 -0.171753 288.924 0.120972 287.009C0.339966 285.576 0.432281 285.548 1.36554 286.635ZM419.034 298.117C420.215 298.844 422.032 299.44 423.073 299.442C425.026 299.446 425.821 300.498 425.849 303.114C425.858 303.934 426.495 305.379 427.265 306.325C429.021 308.483 429.021 308.807 427.265 310.953C426.477 311.915 425.828 313.357 425.823 314.157C425.805 316.537 424.691 317.549 422.165 317.48C420.86 317.444 419.38 317.744 418.876 318.145C418.225 318.665 417.961 318.653 417.961 318.103C417.961 316.908 415.108 317.193 414.611 318.438C414.211 319.441 414.105 319.436 413.491 318.381C413.017 317.567 412.29 317.342 411.078 317.634C408.747 318.196 406.511 316.942 406.507 315.072C406.506 314.234 405.828 312.482 405.003 311.18C403.54 308.875 403.535 308.757 404.788 306.718C405.495 305.567 406.257 303.542 406.481 302.217C406.843 300.08 407.182 299.764 409.501 299.402C410.937 299.178 412.934 298.477 413.938 297.844C416.157 296.447 416.338 296.456 419.034 298.117ZM373.924 298.45C374.699 299.013 376.551 299.789 378.039 300.174C379.843 300.641 380.745 301.27 380.745 302.062C380.745 302.715 381.405 304.432 382.211 305.878L383.677 308.506L382.211 311.416C381.405 313.017 380.745 314.834 380.745 315.454C380.745 316.199 379.892 316.735 378.234 317.034C376.853 317.283 374.902 318.108 373.897 318.867L372.072 320.247L370.504 318.845C369.642 318.074 367.728 317.228 366.252 316.967C363.921 316.553 363.569 316.242 363.569 314.596C363.569 313.554 362.925 311.915 362.137 310.953C360.401 308.831 360.381 308.498 361.892 306.892C362.545 306.2 363.274 304.477 363.514 303.065C363.907 300.737 364.196 300.459 366.618 300.081C368.087 299.851 369.88 299.15 370.6 298.523C372.17 297.158 372.146 297.158 373.924 298.45ZM330.309 299.702C331.085 300.221 332.768 300.865 334.047 301.133C335.799 301.499 336.374 301.988 336.378 303.112C336.38 303.933 336.994 305.497 337.741 306.587C339.076 308.534 339.076 308.606 337.74 310.715C336.99 311.894 336.377 313.557 336.375 314.408C336.373 315.435 335.942 315.956 335.092 315.956C334.389 315.956 332.617 316.541 331.156 317.257C328.55 318.534 328.45 318.534 325.844 317.257C324.383 316.541 322.611 315.956 321.908 315.956C321.058 315.956 320.626 315.435 320.624 314.408C320.622 313.557 320.032 311.931 319.314 310.796C318.05 308.799 318.05 308.667 319.315 306.669C320.034 305.534 320.623 303.933 320.625 303.112C320.627 301.987 321.201 301.499 322.953 301.133C324.232 300.865 325.915 300.221 326.691 299.702C327.467 299.183 328.282 298.758 328.5 298.758C328.718 298.758 329.533 299.183 330.309 299.702ZM286.237 300.434C286.705 300.976 288.055 301.625 289.235 301.874C290.415 302.123 291.541 302.84 291.736 303.466C291.931 304.093 292.604 305.611 293.231 306.84C294.253 308.843 294.258 309.199 293.282 310.279C292.683 310.942 291.982 312.335 291.724 313.376C291.467 314.42 290.766 315.268 290.161 315.268C289.559 315.268 288.061 315.767 286.832 316.378C284.776 317.4 284.442 317.4 282.642 316.378C281.566 315.767 280.011 315.268 279.186 315.268C278.103 315.268 277.686 314.833 277.686 313.701C277.686 312.839 277.157 311.409 276.51 310.521C275.42 309.024 275.42 308.768 276.51 306.994C277.157 305.942 277.686 304.432 277.686 303.639C277.686 302.726 278.145 302.197 278.939 302.195C279.628 302.193 281.245 301.574 282.534 300.819C285.329 299.181 285.169 299.198 286.237 300.434ZM242.933 301.876C243.698 302.431 244.905 302.885 245.617 302.885C246.329 302.885 246.912 303.379 246.912 303.983C246.912 304.587 247.441 305.942 248.088 306.994C249.178 308.768 249.178 309.024 248.088 310.521C247.441 311.409 246.912 312.685 246.912 313.357C246.912 314.07 246.381 314.58 245.64 314.58C244.94 314.58 243.66 315.056 242.795 315.639C241.38 316.591 241.01 316.591 239.093 315.639C237.921 315.056 236.464 314.58 235.854 314.58C235.244 314.58 234.745 314.1 234.745 313.514C234.745 312.928 234.25 311.527 233.644 310.401C232.652 308.558 232.652 308.203 233.644 306.842C234.25 306.011 234.745 304.781 234.745 304.108C234.745 303.387 235.276 302.885 236.04 302.885C236.752 302.885 237.959 302.431 238.724 301.876C239.487 301.32 240.435 300.866 240.828 300.866C241.222 300.866 242.17 301.32 242.933 301.876ZM198.58 302.61C199.334 303.14 200.454 303.573 201.071 303.573C202.526 303.573 204.384 308.954 203.291 310.005C202.878 310.402 202.539 311.294 202.539 311.987C202.539 312.681 201.975 313.415 201.287 313.62C200.598 313.825 199.472 314.281 198.785 314.634C197.978 315.048 196.566 314.986 194.802 314.457C192.595 313.794 191.916 313.165 191.273 311.182C190.307 308.21 191.513 303.573 193.251 303.573C193.854 303.573 194.992 303.14 195.779 302.61C197.005 301.785 197.405 301.785 198.58 302.61ZM155.841 303.975C157.315 304.595 158.167 305.441 158.167 306.286C158.167 307.02 158.452 307.789 158.799 307.995C159.776 308.575 157.3 313.204 156.014 313.204C155.387 313.204 154.488 313.576 154.016 314.03C153.348 314.671 152.966 314.671 152.298 314.03C151.826 313.576 150.859 313.204 150.151 313.204C149.387 313.204 148.863 312.7 148.863 311.966C148.863 311.285 148.508 310.387 148.075 309.97C146.913 308.853 148.779 304.261 150.396 304.261C151.081 304.261 151.84 303.952 152.083 303.573C152.63 302.722 152.939 302.755 155.841 303.975ZM111.323 304.716C113.436 305.138 114.562 308.398 113.358 310.607C110.783 315.331 103.253 311.946 105.433 307.044C105.861 306.081 106.227 305.241 106.247 305.177C106.36 304.808 110.087 304.469 111.323 304.716ZM68.0088 306.343C68.8519 307.153 69.3479 308.27 69.1189 308.842C68.892 309.412 68.7059 310.112 68.7059 310.398C68.7059 310.685 67.9265 311.261 66.9732 311.678C65.4889 312.328 64.9807 312.187 63.4284 310.695C61.8668 309.194 61.7351 308.748 62.4773 307.468C62.951 306.65 63.3383 305.942 63.3383 305.894C63.3383 305.847 64.0461 305.599 64.912 305.343C66.0192 305.017 66.9374 305.313 68.0088 306.343ZM24.0585 308.118C24.7527 310.777 21.8757 312.235 20.0678 310.141C18.7531 308.619 19.8324 306.325 21.8628 306.325C23.1274 306.325 23.7157 306.806 24.0585 308.118ZM438 323.232V329.714H431.201C427.462 329.714 424.402 329.452 424.402 329.133C424.402 328.813 425.046 327.991 425.833 327.306C426.621 326.622 427.265 325.335 427.265 324.448C427.265 323.196 427.656 322.835 429.012 322.835C429.973 322.835 430.991 322.473 431.276 322.03C431.622 321.492 431.406 321.368 430.626 321.656C429.983 321.893 429.327 321.868 429.169 321.601C429.01 321.334 430.932 320.133 433.44 318.933L438 316.751V323.232ZM416.788 318.497C417.643 319.319 417.249 320.771 416.172 320.771C415.581 320.771 415.098 320.325 415.098 319.78C415.098 318.63 416.119 317.855 416.788 318.497ZM394.677 318.669C394.878 318.982 394.403 319.4 393.62 319.597C391.903 320.028 391.735 322.02 393.364 322.621C394.007 322.858 395.134 322.691 395.869 322.249C396.693 321.755 397.206 321.713 397.206 322.141C397.206 322.522 398.011 322.835 398.995 322.835C401.222 322.835 401.355 321.66 399.174 321.257C398.01 321.041 398.208 320.933 399.89 320.865C401.524 320.799 402.216 321.078 402.216 321.803C402.216 322.37 402.512 322.835 402.875 322.835C403.237 322.835 403.741 323.742 403.994 324.851C404.248 325.96 404.917 327.236 405.482 327.687C406.047 328.138 406.51 328.778 406.51 329.11C406.51 329.442 400.852 329.714 393.937 329.714H381.363L382.782 327.799C383.562 326.746 384.425 324.733 384.699 323.327C385.089 321.331 385.534 320.768 386.729 320.756C387.571 320.748 389.621 320.147 391.285 319.421C392.95 318.695 394.476 318.356 394.677 318.669ZM352.102 319.721C352.584 320.279 354.152 320.942 355.589 321.196C358.46 321.703 359.247 322.439 359.264 324.634C359.27 325.434 359.942 326.904 360.758 327.901L362.241 329.714H350.328H338.416L339.88 327.925C340.686 326.94 341.55 325.083 341.801 323.797C342.189 321.81 342.554 321.459 344.228 321.459C345.312 321.459 347.018 320.84 348.019 320.083C350.19 318.441 350.94 318.375 352.102 319.721ZM394.663 320.713C394.894 321.071 394.777 321.545 394.404 321.766C394.031 321.988 393.538 321.876 393.308 321.517C393.077 321.159 393.194 320.685 393.567 320.464C393.939 320.242 394.433 320.354 394.663 320.713ZM309.428 321.259C310.551 321.826 311.958 322.358 312.555 322.443C313.153 322.527 314.049 323.736 314.548 325.13C315.046 326.523 315.852 328.125 316.339 328.688C317.116 329.589 315.938 329.714 306.648 329.714C296.351 329.714 296.104 329.68 297.287 328.423C297.956 327.713 298.692 326.011 298.924 324.64C299.285 322.496 299.613 322.147 301.261 322.147C302.315 322.147 303.802 321.692 304.567 321.137C306.245 319.917 306.796 319.931 309.428 321.259ZM264.404 321.825C265.168 322.38 266.497 322.835 267.356 322.835C268.541 322.835 269.029 323.366 269.375 325.025C269.626 326.23 270.36 327.778 271.007 328.465C272.137 329.666 271.817 329.714 262.716 329.714H253.249L254.732 327.901C255.548 326.904 256.216 325.536 256.216 324.861C256.216 324.061 256.949 323.477 258.313 323.189C259.467 322.946 260.795 322.302 261.263 321.759C262.313 320.543 262.651 320.55 264.404 321.825ZM222.002 323.416C223.9 324.227 224.942 325.273 225.701 327.129L226.757 329.714H218.996H211.234L212.421 327.043C213.494 324.627 214.978 323.578 219 322.392C219.197 322.334 220.547 322.795 222.002 323.416ZM175.72 323.552C175.915 323.856 176.962 324.292 178.045 324.521C179.503 324.828 180.217 325.557 180.793 327.325L181.571 329.714H174.969H168.367L169.517 327.466C170.654 325.245 175.032 322.482 175.72 323.552ZM133.608 325.129C134.909 325.749 136.696 328.221 136.696 329.402C136.696 329.574 134.216 329.714 131.185 329.714C126.899 329.714 125.866 329.53 126.533 328.888C127.006 328.434 127.392 327.541 127.392 326.905C127.392 326.268 127.956 325.591 128.645 325.401C129.333 325.21 130.38 324.904 130.971 324.72C131.561 324.535 132.748 324.72 133.608 325.129ZM89.6397 326.06C90.3282 326.234 90.8922 326.637 90.8922 326.957C90.8922 327.276 91.0876 328.027 91.3266 328.626C91.6909 329.538 91.1133 329.714 87.7481 329.714C83.4469 329.714 82.9051 329.136 85.1667 326.962C86.5909 325.593 87.2508 325.461 89.6397 326.06ZM46.0358 327.873L47.5931 329.37L44.4771 329.585C40.9623 329.827 40.5844 329.664 41.1849 328.161C41.8963 326.378 44.3303 326.234 46.0358 327.873ZM1.43137 328.682C2.16138 329.527 2.112 329.714 1.16086 329.714C0.522461 329.714 0 329.25 0 328.682C0 328.114 0.121674 327.65 0.270538 327.65C0.418671 327.65 0.941132 328.114 1.43137 328.682Z" fill="#FFCD03"/>
</svg>
