<svg width="438" height="100%" viewBox="0 0 438 330" fill="none" xmlns="http://www.w3.org/2000/svg">
<path fill-rule="evenodd" clip-rule="evenodd" d="M0 -90.1703C0 -89.2561 0.193951 -89.2086 1.07353 -89.9103C2.42546 -90.989 2.42546 -91.2861 1.07353 -91.2861C0.483088 -91.2861 0 -90.784 0 -90.1703ZM42.2255 -90.6718C42.2255 -89.5512 44.2537 -89.2878 45.1233 -90.2949C45.8311 -91.1148 45.6551 -91.2861 44.102 -91.2861C43.07 -91.2861 42.2255 -91.0096 42.2255 -90.6718ZM85.8824 -90.5982C85.8824 -89.7033 88.5275 -89.7033 89.1029 -90.5982C89.3541 -90.9883 88.7523 -91.2861 87.7138 -91.2861C86.7068 -91.2861 85.8824 -90.9766 85.8824 -90.5982ZM129.897 -90.5982C130.467 -89.7108 132.189 -89.7108 132.76 -90.5982C133.012 -90.9896 132.396 -91.2861 131.328 -91.2861C130.261 -91.2861 129.645 -90.9896 129.897 -90.5982ZM173.912 -90.5982C173.912 -89.7053 175.843 -89.7053 176.417 -90.5982C176.66 -90.9766 176.196 -91.2861 175.385 -91.2861C174.575 -91.2861 173.912 -90.9766 173.912 -90.5982ZM217.569 -91.0158C217.569 -90.363 219.711 -90.0341 220.093 -90.6285C220.325 -90.9903 219.852 -91.2861 219.042 -91.2861C218.232 -91.2861 217.569 -91.1644 217.569 -91.0158ZM306.18 -90.8163C306.696 -90.6175 307.314 -90.6423 307.551 -90.8706C307.789 -91.099 307.366 -91.2614 306.612 -91.2318C305.778 -91.1988 305.609 -91.0357 306.18 -90.8163ZM20.0678 -71.7138C19.5933 -71.1641 19.4144 -70.0807 19.6706 -69.3061C20.299 -67.402 23.3579 -67.402 23.9862 -69.3061C24.4872 -70.8229 23.2899 -72.7126 21.8284 -72.7126C21.3346 -72.7126 20.5423 -72.2634 20.0678 -71.7138ZM64.1341 -71.6594C62.1681 -69.7697 64.8669 -66.95 67.0076 -68.6574C68.3946 -69.7642 68.2271 -71.1662 66.6082 -71.9992C65.5705 -72.5331 64.955 -72.4484 64.1341 -71.6594ZM107.613 -70.9949C107.365 -70.3751 107.493 -69.551 107.898 -69.1623C109.064 -68.041 111.289 -68.797 111.289 -70.3146C111.289 -72.0639 108.263 -72.6246 107.613 -70.9949ZM152.227 -71.5899C151.952 -71.3244 151.725 -70.5182 151.725 -69.7986C151.725 -68.8342 152.15 -68.5473 153.336 -68.709C154.389 -68.8528 154.946 -69.4024 154.946 -70.2953C154.946 -71.6601 153.177 -72.5021 152.227 -71.5899ZM196.149 -71.3671C194.964 -70.6626 195.654 -68.5852 197.073 -68.5852C197.633 -68.5852 198.268 -69.0268 198.484 -69.5668C199.003 -70.8676 197.395 -72.1072 196.149 -71.3671ZM239.755 -70.3455C239.755 -69.8 240.04 -69.1843 240.39 -68.9773C241.178 -68.5088 242.782 -70.2623 242.135 -70.8841C241.283 -71.7028 239.755 -71.3567 239.755 -70.3455ZM283.889 -70.878C283.065 -70.0869 283.367 -69.2731 284.485 -69.2731C285.076 -69.2731 285.559 -69.7374 285.559 -70.3049C285.559 -71.3794 284.712 -71.6697 283.889 -70.878ZM327.784 -70.3049C327.784 -69.7374 328.106 -69.2731 328.5 -69.2731C328.894 -69.2731 329.216 -69.7374 329.216 -70.3049C329.216 -70.8724 328.894 -71.3368 328.5 -71.3368C328.106 -71.3368 327.784 -70.8724 327.784 -70.3049ZM371.799 -69.961C372.042 -69.5826 372.383 -69.2731 372.557 -69.2731C372.731 -69.2731 372.873 -69.5826 372.873 -69.961C372.873 -70.3393 372.531 -70.6489 372.115 -70.6489C371.698 -70.6489 371.556 -70.3393 371.799 -69.961ZM0 -49.0059C0 -46.019 0.0851667 -45.8794 1.47288 -46.5934C3.35585 -47.562 3.1891 -51.5952 1.25245 -51.9481C0.206833 -52.1386 0 -51.6537 0 -49.0059ZM41.9185 -50.9946C40.5522 -49.6807 40.5272 -49.2494 41.7288 -47.67C43.1001 -45.8677 46.0952 -46.4606 46.4087 -48.5973C46.5604 -49.6305 46.1632 -50.6245 45.3774 -51.1769C43.7342 -52.3319 43.2854 -52.3079 41.9185 -50.9946ZM86.3762 -51.2815C84.6249 -50.3398 84.8231 -47.4574 86.6782 -46.892C88.6521 -46.2893 90.4828 -48.0009 89.8652 -49.8713C89.2962 -51.5952 87.9614 -52.1345 86.3762 -51.2815ZM129.682 -50.562C128.556 -49.4792 128.599 -48.9502 129.918 -47.6824C131.885 -45.792 134.82 -48.3847 133.042 -50.4429C132.038 -51.6069 130.815 -51.6502 129.682 -50.562ZM174.014 -50.7752C172.858 -50.0715 173.56 -47.26 174.89 -47.26C176.523 -47.26 177.476 -48.7514 176.716 -50.1169C175.931 -51.5278 175.444 -51.6461 174.014 -50.7752ZM217.697 -49.1517C217.823 -48.3008 218.41 -47.6039 219 -47.6039C219.59 -47.6039 220.177 -48.3008 220.303 -49.1517C220.478 -50.3432 220.178 -50.6995 219 -50.6995C217.822 -50.6995 217.522 -50.3432 217.697 -49.1517ZM261.703 -50.2407C260.717 -49.2941 261.278 -47.9479 262.657 -47.9479C263.611 -47.9479 264.088 -48.4067 264.088 -49.3237C264.088 -50.6493 262.688 -51.1879 261.703 -50.2407ZM305.598 -49.2446C305.598 -48.4611 305.976 -47.9541 306.448 -48.1054C307.773 -48.5299 307.923 -49.7984 306.702 -50.249C305.928 -50.5344 305.598 -50.2338 305.598 -49.2446ZM349.255 -49.3237C349.255 -48.9454 349.757 -48.6358 350.371 -48.6358C350.984 -48.6358 351.287 -48.9454 351.044 -49.3237C350.801 -49.7021 350.299 -50.0116 349.928 -50.0116C349.558 -50.0116 349.255 -49.7021 349.255 -49.3237ZM393.627 -49.3237C393.627 -48.9454 393.949 -48.6358 394.343 -48.6358C394.737 -48.6358 395.059 -48.9454 395.059 -49.3237C395.059 -49.7021 394.737 -50.0116 394.343 -50.0116C393.949 -50.0116 393.627 -49.7021 393.627 -49.3237ZM19.3765 -30.1132C16.717 -27.5569 20.2117 -23.4948 23.5804 -25.2277C26.2056 -26.578 26.071 -30.3251 23.3729 -31.0212C21.0956 -31.608 20.8816 -31.5599 19.3765 -30.1132ZM64.3066 -30.9772C62.8115 -30.5961 62.123 -28.1623 63.0427 -26.5113C63.7555 -25.2311 65.5096 -24.903 67.5737 -25.6645C69.2154 -26.2698 69.0372 -29.8435 67.3217 -30.7261C66.5603 -31.1175 65.8353 -31.4023 65.7114 -31.3583C65.5869 -31.3143 64.955 -31.143 64.3066 -30.9772ZM107.382 -29.7513C106.358 -28.5668 106.976 -26.221 108.454 -25.6762C110.805 -24.8087 112.801 -26.9612 111.973 -29.4714C111.465 -31.0095 108.618 -31.1829 107.382 -29.7513ZM151.418 -29.6695C150.169 -28.4677 150.071 -27.9992 150.842 -26.9165C151.809 -25.5599 153.81 -25.2854 154.925 -26.3572C156.307 -27.6849 156.301 -28.3177 154.895 -29.6695C154.276 -30.2638 153.494 -30.7502 153.157 -30.7502C152.82 -30.7502 152.038 -30.2638 151.418 -29.6695ZM195.698 -29.7589C194.589 -28.9664 194.468 -28.5165 195.098 -27.5232C195.531 -26.8387 196.536 -26.1852 197.33 -26.071C199.18 -25.8041 199.971 -28.3047 198.488 -29.7307C197.201 -30.9676 197.389 -30.9662 195.698 -29.7589ZM239.541 -29.6275C238.695 -28.8144 238.983 -26.7906 239.999 -26.4164C241.441 -25.8839 242.792 -26.9639 242.501 -28.4168C242.235 -29.7417 240.429 -30.4805 239.541 -29.6275ZM283.505 -29.1384C282.514 -27.9903 283.699 -26.3173 285.129 -26.8449C285.759 -27.0774 286.275 -27.7083 286.275 -28.2476C286.275 -29.5773 284.404 -30.1792 283.505 -29.1384ZM327.388 -28.6266C326.651 -27.4792 328.309 -26.1639 329.297 -27.1132C330.122 -27.9071 329.606 -29.3744 328.5 -29.3744C328.153 -29.3744 327.653 -29.038 327.388 -28.6266ZM371.777 -28.6521C371.097 -27.5941 372.028 -26.9117 372.947 -27.7949C373.461 -28.2889 373.473 -28.6734 372.984 -28.9637C372.583 -29.2017 372.04 -29.0614 371.777 -28.6521ZM415.456 -27.9986C415.699 -27.6202 416.04 -27.3106 416.214 -27.3106C416.388 -27.3106 416.529 -27.6202 416.529 -27.9986C416.529 -28.3769 416.188 -28.6865 415.771 -28.6865C415.355 -28.6865 415.213 -28.3769 415.456 -27.9986ZM0 -7.06756V-2.67527L1.75272 -3.47049C4.86595 -4.88277 4.8545 -9.33284 1.73411 -10.6997L0 -11.4592V-7.06756ZM42.0802 -10.3331C39.4944 -9.67886 39.7213 -4.3517 42.3629 -3.68787C44.0412 -3.26618 47.2353 -4.27328 47.2353 -5.22397C47.2353 -5.58099 47.4214 -6.33838 47.6482 -6.90797C48.1091 -8.06159 45.5871 -10.8456 44.1936 -10.721C43.702 -10.677 42.7508 -10.5023 42.0802 -10.3331ZM86.2824 -10.1274C83.4132 -9.15949 83.4454 -5.27074 86.3339 -4.00568C87.8476 -3.34322 88.3422 -3.47186 89.8508 -4.92267C91.3602 -6.37278 91.494 -6.84812 90.8048 -8.30305C89.9109 -10.1879 88.3407 -10.8215 86.2824 -10.1274ZM129.208 -9.00883C127.446 -7.31521 128.93 -3.96372 131.457 -3.93208C132.598 -3.91832 134.549 -5.86441 134.549 -7.01734C134.549 -8.22187 132.582 -10.1129 131.328 -10.1129C130.795 -10.1129 129.84 -9.61626 129.208 -9.00883ZM172.87 -8.1462C172.218 -6.17053 173.175 -4.60966 175.037 -4.60966C176.919 -4.60966 178.433 -6.67889 177.769 -8.34364C177.143 -9.91069 173.403 -9.76003 172.87 -8.1462ZM216.879 -8.09667C216.321 -7.09439 216.416 -6.50417 217.263 -5.689C217.881 -5.09533 218.663 -4.60966 219 -4.60966C219.337 -4.60966 220.119 -5.09533 220.737 -5.689C222.152 -7.04899 221.047 -9.42503 219 -9.42503C218.241 -9.42503 217.286 -8.82723 216.879 -8.09667ZM261.614 -8.49979C260.867 -7.97491 260.611 -7.2189 260.92 -6.44707C261.6 -4.74243 264.385 -5.23016 264.663 -7.10196C264.925 -8.86919 263.239 -9.6424 261.614 -8.49979ZM305.143 -7.71008C304.895 -7.08889 305.003 -6.28197 305.383 -5.91669C306.385 -4.95431 308.57 -5.96347 308.309 -7.26775C308.006 -8.78183 305.7 -9.10378 305.143 -7.71008ZM349.726 -8.27277C349.467 -8.02375 349.255 -7.40739 349.255 -6.90247C349.255 -5.87817 351.1 -5.64703 351.71 -6.59566C352.197 -7.35304 350.373 -8.89465 349.726 -8.27277ZM393.408 -7.60963C392.837 -7.06 393.483 -5.98548 394.385 -5.98548C394.756 -5.98548 395.059 -6.44982 395.059 -7.01734C395.059 -8.08085 394.214 -8.38422 393.408 -7.60963ZM19.8782 10.256C14.8992 12.7635 18.3874 19.7781 23.662 17.8643C25.7246 17.1165 26.7309 14.6882 26.036 12.1361C25.4956 10.148 22.1319 9.12099 19.8782 10.256ZM63.9423 10.3166C62.2046 10.6392 61.2899 13.0758 61.9527 15.6142C62.7421 18.6361 68.7946 18.4064 69.6334 15.3232C70.0528 13.7823 68.8991 10.5243 67.9337 10.5243C67.6359 10.5243 66.9625 10.4129 66.4386 10.2767C65.914 10.1412 64.7911 10.1584 63.9423 10.3166ZM108.38 10.7197C106.007 11.9813 105.287 13.3812 106.112 15.123C107.434 17.9118 111.832 18.0322 112.732 15.3046C113.729 12.2847 110.947 9.35419 108.38 10.7197ZM151.046 11.8651C150.239 12.641 149.578 13.5855 149.578 13.9639C149.578 15.4979 152.507 17.4756 154.088 17.0092C156.216 16.3812 156.258 16.3213 156.258 13.9639C156.258 11.6064 156.216 11.5466 154.088 10.9185C152.991 10.5945 152.07 10.8813 151.046 11.8651ZM194.695 12.5385C193.68 14.3594 194.47 15.954 196.646 16.4789C197.959 16.796 198.737 16.5648 199.43 15.6534C200.661 14.0361 200.64 13.6123 199.268 12.2929C197.734 10.8187 195.588 10.9343 194.695 12.5385ZM239.446 12.2943C237.979 13.7059 238.021 15.1085 239.557 15.9354C241.19 16.8132 243.333 15.694 243.333 13.9639C243.333 11.9964 240.861 10.9343 239.446 12.2943ZM282.955 12.932C282.388 14.3518 283.157 16.0276 284.375 16.0276C285.84 16.0276 287.087 14.3174 286.568 13.0194C286.007 11.614 283.506 11.5534 282.955 12.932ZM327.069 13.9639C327.069 14.8808 327.546 15.3397 328.5 15.3397C329.454 15.3397 329.931 14.8808 329.931 13.9639C329.931 13.0469 329.454 12.588 328.5 12.588C327.546 12.588 327.069 13.0469 327.069 13.9639ZM371.045 13.3358C370.308 14.4832 371.966 15.7985 372.953 14.8492C373.779 14.0554 373.263 12.588 372.157 12.588C371.81 12.588 371.309 12.9244 371.045 13.3358ZM415.098 13.9639C415.098 14.3422 415.581 14.6518 416.172 14.6518C416.762 14.6518 417.245 14.3422 417.245 13.9639C417.245 13.5855 416.762 13.276 416.172 13.276C415.581 13.276 415.098 13.5855 415.098 13.9639ZM0 35.0544C0 39.5107 0.161029 40.1917 1.13222 39.834C1.75486 39.6043 2.53639 39.4165 2.86919 39.4165C3.20126 39.4165 3.95345 38.4912 4.54031 37.361C5.96668 34.6135 4.79438 31.4636 1.99676 30.5266L0 29.8573V35.0544ZM42.0716 30.7454C38.184 32.0758 38.0838 37.4504 41.9142 39.1853C43.3112 39.8182 44.1142 39.7797 45.7366 39.0017C51.09 36.4351 47.7084 28.8172 42.0716 30.7454ZM84.9133 32.1604C82.8228 34.0226 82.7162 34.4319 83.6831 36.8767C84.9004 39.9551 89.8845 39.9826 91.3881 36.9194C92.4652 34.7263 91.4468 32.3131 88.9906 31.2372C86.7827 30.2707 87.1212 30.1937 84.9133 32.1604ZM129.428 31.6101C126.838 32.2987 127.142 37.6589 129.808 38.3014C133.48 39.1874 136.564 36.3257 134.956 33.5252C134.535 32.7926 134.19 32.1412 134.19 32.0772C134.185 31.714 130.425 31.3446 129.428 31.6101ZM173.185 32.5477C172.404 33.2989 171.765 34.3775 171.765 34.9451C171.765 36.1056 174.245 38.7286 175.343 38.7286C176.649 38.7286 179.039 35.8875 178.619 34.8357C178.392 34.2661 178.206 33.5658 178.206 33.2796C178.206 32.9928 177.396 32.4033 176.406 31.9699C174.888 31.3054 174.384 31.3955 173.185 32.5477ZM217.39 32.5924C214.336 34.3019 217.229 39.0003 220.347 37.3961C222.404 36.3381 222.706 34.7236 221.131 33.2095C219.53 31.6713 219.148 31.608 217.39 32.5924ZM260.956 33.5823C259.529 34.9547 260.571 37.3528 262.595 37.3528C264.561 37.3528 265.969 35.4404 265.044 34.0274C264.004 32.4411 262.333 32.2595 260.956 33.5823ZM305.291 33.6181C304.113 34.7511 304.452 36.3594 305.99 36.9263C307.283 37.403 309.229 35.5325 308.733 34.2902C308.143 32.8119 306.47 32.4858 305.291 33.6181ZM349.249 34.2634C348.574 35.0462 348.531 35.5559 349.094 36.0973C350.18 37.1409 352.273 36.2266 351.992 34.8323C351.67 33.2391 350.367 32.9687 349.249 34.2634ZM392.912 34.9451C392.912 35.6536 393.381 35.9907 394.164 35.8462C395.673 35.5669 395.578 34.3459 394.023 34.035C393.375 33.905 392.912 34.284 392.912 34.9451ZM20.3971 51.1109C20.1537 51.4893 19.33 51.7988 18.5656 51.7988C17.7054 51.7988 17.1765 52.2701 17.1765 53.0371C17.1765 53.7181 16.79 54.6468 16.3176 55.1008C15.6499 55.7426 15.6499 56.11 16.3176 56.7518C16.79 57.2058 17.1765 58.0698 17.1765 58.6724C17.1765 59.9086 21.9923 62.2881 22.5956 61.3497C22.8104 61.0154 23.6069 60.7416 24.3663 60.7416C26.0646 60.7416 28.3641 56.0859 27.2125 54.979C26.8096 54.5917 26.4804 53.78 26.4804 53.1753C26.4804 52.5535 25.4462 51.7156 24.1036 51.2492C21.2201 50.2469 20.9589 50.2373 20.3971 51.1109ZM63.4993 51.6901C61.7265 52.3636 59.8629 55.9565 60.8126 56.8694C61.2177 57.2588 61.549 58.0664 61.549 58.6648C61.549 60.4754 65.4774 61.499 67.9251 60.3261C71.5751 58.5754 71.3339 53.5447 67.52 51.8745C65.5676 51.0194 65.2971 51.007 63.4993 51.6901ZM107.677 52.0561C104.115 53.6046 104.183 58.3835 107.79 59.9629C111.314 61.5066 115.233 57.6743 113.579 54.3035C112.592 52.2941 109.68 51.1852 107.677 52.0561ZM151.646 52.2563C149.931 52.6945 148.773 55.6105 149.543 57.5559C150.725 60.5442 156.259 60.5979 157.034 57.6289C157.502 55.8362 156.425 52.4867 155.38 52.4867C155.009 52.4867 154.276 52.3684 153.752 52.2246C153.228 52.0802 152.28 52.0946 151.646 52.2563ZM194.612 53.9155C193.794 54.7018 193.31 55.8107 193.538 56.3796C193.765 56.9492 193.951 57.6495 193.951 57.9357C193.951 58.2225 194.771 58.8162 195.773 59.2551C197.362 59.9505 197.82 59.837 199.352 58.3649C201.481 56.3184 201.529 55.6436 199.676 53.8625C197.851 52.1084 196.477 52.1228 194.612 53.9155ZM238.386 54.439C237.449 56.121 238.198 58.6573 239.66 58.7591C243.681 59.0397 245.415 56.6493 242.925 54.2554C241.412 52.8018 239.248 52.8898 238.386 54.439ZM283.041 54.3166C282.458 54.8779 281.98 55.6023 281.98 55.9263C281.98 56.6906 284.048 58.6779 284.843 58.6779C286.096 58.6779 287.566 56.5949 287.219 55.314C286.748 53.5853 284.389 53.0219 283.041 54.3166ZM327.177 54.4713C325.582 55.4427 326.5 57.6461 328.5 57.6461C329.663 57.6461 330.359 57.2023 330.529 56.3528C330.752 55.2397 329.637 53.8839 328.5 53.8839C328.303 53.8839 327.708 54.148 327.177 54.4713ZM371.203 55.0093C370.217 55.9559 370.778 57.3021 372.157 57.3021C373.111 57.3021 373.588 56.8433 373.588 55.9263C373.588 54.6007 372.188 54.0621 371.203 55.0093ZM415.098 56.3273C415.098 57.5422 416.639 57.331 417.081 56.0556C417.237 55.6057 416.854 55.2384 416.231 55.2384C415.608 55.2384 415.098 55.7289 415.098 56.3273ZM0 76.8889V83.2376L2.5049 82.4837C3.88832 82.0675 5.01982 81.2661 5.03271 80.6944C5.04487 80.1248 5.48573 79.1143 6.01176 78.4477C7.39447 76.697 5.3655 72.9094 2.32598 71.5673L0 70.5402V76.8889ZM42.6134 71.7014C42.3536 72.1052 41.5828 72.4361 40.9008 72.4361C40.1879 72.4361 39.1996 73.415 38.5741 74.7406C37.6107 76.783 37.6079 77.2906 38.5476 79.1975C39.8952 81.9327 43.1387 83.0966 46.3829 82.0097C47.7449 81.5536 48.6667 80.7715 48.6667 80.0732C48.6667 79.4294 48.9959 78.586 49.3988 78.1987C50.4129 77.2239 48.3854 72.7154 46.7272 72.2572C46.0222 72.0632 44.915 71.6931 44.2659 71.4352C43.6168 71.1772 42.8732 71.2969 42.6134 71.7014ZM85.2862 72.7677C82.6911 74.1421 81.6791 76.5284 82.6861 78.8969C83.5628 80.9586 87.6601 83.1977 88.413 82.0269C88.642 81.6706 89.3899 81.3789 90.0748 81.3789C90.8413 81.3789 91.6579 80.4805 92.199 79.0434C93.2868 76.1522 92.3693 73.8435 89.6419 72.6081C87.439 71.6099 87.4733 71.6085 85.2862 72.7677ZM129.326 73.0208C125.783 74.365 125.883 79.8566 129.474 81.1292C133.668 82.6158 137.533 78.9602 135.585 75.3508C134.22 72.8213 132.015 72.0006 129.326 73.0208ZM173.085 73.5856C170.562 74.2288 170.93 79.9714 173.556 80.9407C175.491 81.6541 178.265 80.6298 178.927 78.9581C179.818 76.7066 178.991 74.4909 176.988 73.7589C175.178 73.0979 175.025 73.091 173.085 73.5856ZM216.988 74.5266C214.189 77.0327 215.318 80.2321 219 80.2321C222.611 80.2321 223.803 77.0526 221.147 74.4998C219.36 72.7821 218.933 72.7849 216.988 74.5266ZM260.943 74.8692C259.582 76.1783 259.457 78.0281 260.653 79.1776C262.743 81.187 266.672 79.0104 265.813 76.3193C265.245 74.5397 265.478 74.764 263.627 74.2178C262.648 73.9295 261.676 74.1655 260.943 74.8692ZM305.061 74.9552C303.738 75.4684 303.976 78.456 305.401 79.223C307.033 80.1008 309.176 78.9815 309.176 77.2514C309.176 76.1783 307.122 74.3278 306.182 74.5542C306.058 74.5837 305.554 74.7646 305.061 74.9552ZM349.017 75.6466C348.158 76.4714 348.516 78.4711 349.592 78.8687C350.955 79.3709 352.891 77.5101 352.369 76.1996C351.955 75.165 349.875 74.8218 349.017 75.6466ZM392.912 77.3017C392.912 79.0648 395.281 78.8646 395.64 77.0719C395.805 76.2464 395.42 75.8756 394.395 75.8756C393.371 75.8756 392.912 76.3173 392.912 77.3017ZM437.341 76.9646C437.375 77.766 437.545 77.929 437.773 77.3808C437.98 76.8841 437.954 76.2904 437.717 76.062C437.479 75.8337 437.31 76.2395 437.341 76.9646ZM18.927 92.5719C17.2903 93.1036 16.5302 93.9339 15.8983 95.8793C14.1005 101.416 18.5742 105.643 24.3856 103.9C26.0853 103.39 27.1961 102.631 27.1961 101.98C27.1961 101.388 27.647 100.311 28.198 99.5864C29.0569 98.4569 29.0569 98.0724 28.198 96.894C27.647 96.1373 27.1961 95.005 27.1961 94.3763C27.1961 93.7482 26.4711 93.0678 25.5858 92.8649C24.7005 92.6626 23.3314 92.3538 22.5441 92.1791C21.7569 92.005 20.1294 92.1818 18.927 92.5719ZM63.2423 92.9997C58.6183 95.2781 58.6877 101.682 63.354 103.304C68.265 105.011 72.8247 100.892 71.2788 96.1449C70.654 94.227 69.4123 93.2845 65.8431 92.0208C65.6463 91.9514 64.4762 92.3916 63.2423 92.9997ZM108.426 93.0733C108.183 93.4517 107.359 93.7612 106.595 93.7612C105.735 93.7612 105.206 94.2325 105.206 94.9995C105.206 95.6805 104.837 96.592 104.387 97.0247C103.16 98.2044 105.025 101.984 107.231 102.79C111.957 104.517 116.087 100.621 114.37 96.0561C113.841 94.6521 113.023 93.7612 112.261 93.7612C111.576 93.7612 110.817 93.4517 110.574 93.0733C110.33 92.695 109.847 92.3854 109.5 92.3854C109.153 92.3854 108.67 92.695 108.426 93.0733ZM151.235 93.9917C147.592 95.7273 147.745 100.807 151.491 102.507C153.637 103.481 157.105 101.987 157.689 99.8382C158.291 97.6259 157.447 94.6129 156.122 94.2442C155.475 94.0646 154.463 93.7667 153.873 93.5824C153.282 93.398 152.096 93.5824 151.235 93.9917ZM194.277 95.4501C193.157 96.5259 192.563 97.6913 192.813 98.3193C193.046 98.9013 193.235 99.6257 193.235 99.9297C193.235 100.234 194.028 100.981 194.996 101.591C198.584 103.851 203.017 99.5906 200.666 96.1414C200.031 95.2107 199.254 94.4492 198.937 94.4492C198.621 94.4492 197.867 94.2669 197.262 94.0433C196.608 93.8025 195.396 94.3735 194.277 95.4501ZM239.318 95.1233C237.365 95.8821 236.761 97.4684 237.61 99.6147C238.882 102.829 244.765 101.585 244.765 98.1013C244.765 97.1162 242.227 94.423 241.365 94.4925C241.07 94.5166 240.149 94.8007 239.318 95.1233ZM282.786 95.7576C281.912 96.2893 281.376 99.6449 282.07 100.239C283.201 101.209 285.564 101.225 286.557 100.271C288.008 98.8759 288.016 97.5963 286.582 96.2178C285.32 95.0057 284.236 94.8736 282.786 95.7576ZM326.379 97.1533C325.821 98.1556 325.916 98.7458 326.763 99.561C327.381 100.155 328.163 100.64 328.5 100.64C328.837 100.64 329.619 100.155 330.237 99.561C331.652 98.201 330.547 95.825 328.5 95.825C327.741 95.825 326.786 96.4228 326.379 97.1533ZM370.525 97.3989C369.958 98.8201 371.065 100.123 372.601 99.8389C374.502 99.4867 374.362 96.9139 372.427 96.6484C371.591 96.5342 370.735 96.8713 370.525 97.3989ZM415.185 97.4436C414.315 98.4514 414.809 99.2645 416.291 99.2645C417.357 99.2645 417.597 97.4911 416.61 96.905C416.262 96.6979 415.62 96.9401 415.185 97.4436ZM0 119.218V126.678L2.72104 125.562C4.71637 124.743 5.76485 123.719 6.6523 121.722C7.35725 120.134 7.60703 118.685 7.2499 118.247C6.91353 117.833 6.43975 116.692 6.19713 115.712C5.88294 114.445 4.92535 113.617 2.87777 112.844L0 111.758V119.218ZM40.948 113.268C39.3441 113.773 38.4595 114.563 38.1654 115.752C37.9278 116.71 37.4612 117.83 37.1277 118.24C36.7813 118.666 36.996 120.146 37.6301 121.698C38.5404 123.925 39.2604 124.566 41.6622 125.287C43.7062 125.9 44.812 125.946 45.338 125.44C45.7517 125.043 46.6799 124.717 47.4006 124.717C48.122 124.717 48.8914 124.175 49.1118 123.513C49.3323 122.852 49.8597 121.613 50.2841 120.762C50.8359 119.655 50.8359 118.773 50.2841 117.666C49.8597 116.814 49.3323 115.576 49.1118 114.914C48.8914 114.253 48.0762 113.711 47.2997 113.711C46.5239 113.711 45.6894 113.401 45.4461 113.023C44.9286 112.219 44.1471 112.261 40.948 113.268ZM84.6299 114.112C83.2458 114.694 82.3039 115.591 82.3039 116.327C82.3039 117.006 81.9174 117.934 81.4451 118.388C80.7774 119.03 80.7774 119.398 81.4451 120.039C81.9174 120.493 82.3039 121.418 82.3039 122.094C82.3039 123.798 87.2014 125.776 88.914 124.764C89.5975 124.359 90.5637 124.019 91.0611 124.007C91.5585 123.995 92.4888 122.911 93.128 121.599C94.2001 119.398 94.2001 119.034 93.128 116.894C92.413 115.467 91.119 114.274 89.7678 113.798C87.2049 112.894 87.5843 112.871 84.6299 114.112ZM128.645 114.604C127.562 115.016 126.676 115.849 126.676 116.457C126.676 117.066 126.29 117.934 125.818 118.388C125.15 119.03 125.15 119.398 125.818 120.039C126.29 120.493 126.676 121.36 126.676 121.965C126.676 123.683 130.91 124.879 133.573 123.913C135.975 123.042 137.948 119.454 136.69 118.245C136.3 117.87 135.98 117.036 135.98 116.392C135.98 115.697 135.064 114.914 133.727 114.466C131.162 113.606 131.281 113.603 128.645 114.604ZM172.751 115.058C169.682 116.283 169.845 122.248 172.979 123.393C177.244 124.952 181.059 121.365 179.552 117.212C179.128 116.043 178.411 115.082 177.957 115.077C177.503 115.072 176.488 114.929 175.701 114.76C174.914 114.591 173.586 114.725 172.751 115.058ZM216.742 115.548C214.147 116.21 214.375 122.23 217.02 122.895C219.7 123.568 222.432 122.621 222.892 120.859C224 116.614 221.393 114.362 216.742 115.548ZM260.203 116.855C258.013 118.96 259.609 122.653 262.708 122.653C263.467 122.653 264.74 122.027 265.536 121.262C266.751 120.094 266.849 119.623 266.144 118.338C264.626 115.566 262.18 114.955 260.203 116.855ZM304.866 117.166C303.086 118.877 303.091 119.556 304.899 121.293C306.008 122.36 306.657 122.525 307.677 122.001C309.433 121.097 310.052 119.41 309.194 117.869C308.119 115.939 306.428 115.664 304.866 117.166ZM348.946 117.544C348.329 118.139 347.824 118.89 347.824 119.214C347.824 119.538 348.329 120.289 348.946 120.883C350.361 122.243 352.833 121.181 352.833 119.214C352.833 117.246 350.361 116.184 348.946 117.544ZM392.535 118.556C391.878 119.578 393.535 121.269 394.753 120.819C396.322 120.24 396.026 117.838 394.385 117.838C393.621 117.838 392.789 118.161 392.535 118.556ZM436.986 118.434C436.677 118.913 436.619 119.491 436.855 119.718C437.495 120.334 438.194 119.428 437.848 118.431C437.606 117.732 437.437 117.732 436.986 118.434ZM20.3548 133.294C19.5912 133.85 18.2414 134.314 17.3554 134.326C16.1573 134.342 15.7451 134.754 15.7451 135.936C15.7451 136.81 15.2921 138.12 14.7388 138.847C13.8743 139.983 13.8743 140.433 14.7388 142.04C15.2921 143.068 15.7451 144.39 15.7451 144.976C15.7451 145.646 16.3906 146.042 17.4835 146.042C18.4389 146.042 19.7565 146.557 20.4107 147.186C21.52 148.251 21.7368 148.251 23.6141 147.186C24.7212 146.557 26.1419 146.042 26.7695 146.042C27.4702 146.042 27.9204 145.444 27.9347 144.494C27.9468 143.643 28.4006 142.385 28.9416 141.699C29.7783 140.638 29.7754 140.172 28.923 138.603C28.3719 137.587 27.9189 136.213 27.9161 135.552C27.9132 134.744 27.3521 134.348 26.2099 134.348C25.2745 134.348 24.1079 133.884 23.6176 133.316C22.509 132.032 22.0947 132.029 20.3548 133.294ZM64.8269 133.571C64.5893 133.94 63.4327 134.446 62.2568 134.694C60.8877 134.983 60.1176 135.573 60.1176 136.335C60.1176 136.989 59.6668 138.117 59.1157 138.841C58.2569 139.971 58.2569 140.355 59.1157 141.534C59.6668 142.29 60.1176 143.412 60.1176 144.027C60.1176 144.695 61.2792 145.584 62.9969 146.233C65.5146 147.184 66.1215 147.197 67.8277 146.342C68.9013 145.803 70.1036 145.361 70.5001 145.359C71.6423 145.352 73.2176 139.785 72.3208 138.923C71.9072 138.526 71.5686 137.647 71.5686 136.971C71.5686 136.219 70.528 135.285 68.8848 134.565C67.4091 133.918 65.9891 133.278 65.7301 133.144C65.471 133.009 65.0645 133.202 64.8269 133.571ZM106.995 134.853C104.117 136.198 102.233 139.899 103.547 141.625C104.066 142.308 104.49 143.35 104.49 143.941C104.49 145.604 108.951 146.69 112.005 145.771C113.466 145.332 114.51 144.569 114.51 143.941C114.51 143.35 114.934 142.308 115.453 141.625C116.242 140.588 116.213 140.008 115.274 138.085C114.327 136.145 112.912 135.136 109.5 133.972C109.303 133.904 108.176 134.301 106.995 134.853ZM151.067 135.397C147.106 137.487 147.162 143.747 151.153 145.195C154.031 146.24 157.213 144.937 158.16 142.327C159.149 139.599 157.885 135.724 156.006 135.724C155.273 135.724 154.474 135.414 154.23 135.036C153.686 134.189 153.264 134.237 151.067 135.397ZM196.098 135.724C196.098 136.102 195.454 136.412 194.667 136.412C193.727 136.412 193.235 136.87 193.235 137.747C193.235 138.481 192.942 139.256 192.583 139.469C191.337 140.21 193.414 143.742 195.553 144.518C198.238 145.492 200.588 144.518 201.541 142.037C202.447 139.675 201.31 136.412 199.581 136.412C198.893 136.412 198.131 136.102 197.887 135.724C197.644 135.345 197.142 135.036 196.771 135.036C196.401 135.036 196.098 135.345 196.098 135.724ZM239.3 136.569C234.427 138.707 237.308 145.513 242.53 144.2C244.218 143.776 245.51 141.143 244.984 139.205C244.429 137.168 241.272 135.704 239.3 136.569ZM282.306 138.1C280.797 139.551 280.662 140.026 281.352 141.481C282.714 144.354 287.203 144.488 287.988 141.68C288.6 139.483 288.559 139.339 286.855 137.814C284.857 136.024 284.438 136.05 282.306 138.1ZM326.027 139.066C325.199 141.576 327.195 143.729 329.546 142.861C331.024 142.317 331.642 139.971 330.618 138.786C329.382 137.355 326.535 137.528 326.027 139.066ZM371.219 138.581C369.721 139.387 369.636 141.63 371.083 142.164C372.813 142.802 374.304 141.89 374.304 140.195C374.304 138.365 372.944 137.653 371.219 138.581ZM415.132 139.469C414.151 140.604 414.69 141.915 416.137 141.915C417.505 141.915 418.046 140.087 416.939 139.205C416.252 138.656 415.773 138.726 415.132 139.469ZM0 161.559V170.197L1.59097 169.126C2.46554 168.538 3.90836 168.055 4.79725 168.055C5.97312 168.055 6.53851 167.539 6.87059 166.164C7.12179 165.124 7.75589 163.61 8.27906 162.801C9.09637 161.539 9.03697 160.964 7.85967 158.744C7.10462 157.321 6.65731 155.894 6.86415 155.571C7.0717 155.249 6.65874 154.983 5.94664 154.981C5.23453 154.978 3.72944 154.514 2.60224 153.949C1.47431 153.384 0.42798 152.921 0.276255 152.921C0.124529 152.921 0 156.809 0 161.559ZM42.6256 154.006C41.8612 154.544 40.505 154.985 39.6111 154.985C38.3243 154.985 37.8283 155.551 37.2236 157.708C36.8042 159.205 36.1958 160.587 35.8723 160.78C34.9462 161.33 38.1625 167.366 39.3821 167.367C39.984 167.367 41.1913 167.85 42.0659 168.439C43.5059 169.408 43.8079 169.408 45.2478 168.439C46.1224 167.85 47.5717 167.367 48.4684 167.367C49.542 167.367 50.0995 166.957 50.1023 166.164C50.1052 165.502 50.5711 164.105 51.1379 163.06C52.024 161.427 52.0282 160.895 51.1701 159.276C50.6205 158.24 50.0036 156.851 49.7989 156.189C49.5913 155.515 48.7332 154.985 47.8508 154.985C46.9841 154.985 45.766 154.544 45.1448 154.006C44.1671 153.159 43.8272 153.159 42.6256 154.006ZM84.6757 155.198C82.9208 155.763 82.1178 156.631 81.1939 158.957C80.31 161.181 80.2034 162.184 80.7902 162.748C81.229 163.17 81.5882 164.04 81.5882 164.681C81.5882 165.359 82.8035 166.426 84.4911 167.228C87.2264 168.529 87.547 168.545 90.0748 167.508C93.6912 166.023 95.5985 162.092 94.0691 159.274C93.5073 158.239 93.0464 157.042 93.0435 156.613C93.0414 156.184 92.3149 155.667 91.4289 155.465C90.5436 155.262 89.1745 154.953 88.3873 154.779C87.6 154.605 85.9296 154.793 84.6757 155.198ZM128.824 155.83C127.839 156.214 126.498 157.601 125.842 158.912C124.274 162.046 125.47 165.057 128.917 166.651C131.083 167.652 131.588 167.661 133.883 166.737C138.875 164.728 138.852 157.948 133.847 155.925C131.235 154.869 131.283 154.87 128.824 155.83ZM172.659 156.532C171.272 156.959 170.333 157.707 170.333 158.387C170.333 159.013 169.985 159.86 169.559 160.27C169.028 160.78 169.011 161.418 169.507 162.299C169.904 163.005 170.403 164.126 170.617 164.788C170.83 165.45 171.594 165.992 172.315 165.992C173.036 165.992 173.957 166.31 174.362 166.699C175.505 167.798 179.015 165.714 180.065 163.313C181.117 160.909 180.118 157.352 178.246 156.828C177.633 156.657 176.649 156.36 176.059 156.166C175.468 155.974 173.938 156.138 172.659 156.532ZM216.757 157.134C213.159 158.401 213.395 164.098 217.106 165.553C219.804 166.611 222.903 165.442 223.532 163.126C224.134 160.913 223.29 157.9 221.965 157.532C221.318 157.352 220.306 157.04 219.716 156.838C219.125 156.635 217.794 156.769 216.757 157.134ZM261.006 157.532C259.394 157.931 258.394 160.335 258.862 162.686C259.479 165.793 265.171 165.985 266.662 162.949C267.257 161.738 267.208 160.918 266.459 159.545C265.918 158.551 265.188 157.737 264.84 157.737C264.49 157.737 263.776 157.618 263.252 157.475C262.728 157.33 261.717 157.356 261.006 157.532ZM305.061 158.492C303.541 159.036 303.08 160.189 303.437 162.552C303.792 164.89 307.044 165.29 309.159 163.257C311.804 160.715 308.754 157.171 305.061 158.492ZM349.076 158.899C348.245 159.108 347.824 159.887 347.824 161.213C347.824 162.805 348.212 163.307 349.724 163.672C351.91 164.2 353.741 162.487 353.015 160.594C352.583 159.464 351.371 158.383 350.686 158.515C350.489 158.553 349.764 158.726 349.076 158.899ZM393.021 159.721C391.608 160.581 392.323 162.862 394.08 163.104C395.875 163.351 396.892 161.438 395.699 160.057C394.756 158.965 394.347 158.913 393.021 159.721ZM436.888 160.548C436.624 160.96 436.765 161.641 437.203 162.062C437.788 162.624 438 162.425 438 161.314C438 159.653 437.629 159.397 436.888 160.548ZM19.7236 174.613C18.9592 175.168 17.5909 175.622 16.6819 175.622C15.4817 175.622 15.0294 176.017 15.0294 177.064C15.0294 177.857 14.5098 179.352 13.8743 180.385C12.8108 182.116 12.8108 182.437 13.8743 184.413C14.5098 185.594 15.0294 187.029 15.0294 187.6C15.0294 188.231 16.1552 188.931 17.8922 189.381C19.4667 189.788 20.7549 190.419 20.7549 190.783C20.7549 191.772 22.6092 191.58 23.5461 190.496C23.997 189.974 25.2852 189.37 26.4103 189.154C27.8939 188.868 28.5917 188.232 28.9545 186.835C29.2293 185.776 29.93 184.402 30.5104 183.782C31.4473 182.783 31.4007 182.393 30.0996 180.343C29.293 179.071 28.6317 177.488 28.6303 176.826C28.6282 176.028 28.0706 175.622 26.9749 175.622C26.066 175.622 24.6976 175.168 23.9333 174.613C23.1696 174.057 22.2221 173.603 21.8284 173.603C21.4348 173.603 20.4872 174.057 19.7236 174.613ZM63.6961 175.278C62.712 175.819 61.3436 176.272 60.6544 176.286C59.9652 176.299 59.402 176.79 59.402 177.377C59.402 177.963 58.9067 179.363 58.3005 180.489C57.3093 182.332 57.3093 182.687 58.3005 184.048C58.9067 184.879 59.402 186.264 59.402 187.126C59.402 188.298 59.8128 188.693 61.0316 188.693C61.9283 188.693 63.3976 189.188 64.2965 189.793C65.7551 190.775 66.0607 190.782 67.1392 189.856C67.8041 189.285 69.1532 188.713 70.1373 188.583C71.4176 188.415 71.9959 187.86 72.1705 186.629C72.3051 185.683 72.9005 184.386 73.4945 183.747C74.4579 182.711 74.4507 182.417 73.4294 181.015C72.7996 180.151 72.2843 178.739 72.2843 177.877C72.2843 176.699 71.8742 176.31 70.6318 176.31C69.7229 176.31 68.3545 175.856 67.5901 175.3C65.8911 174.065 65.904 174.066 63.6961 175.278ZM108.461 175.569C108.236 175.919 107.09 176.408 105.914 176.656C104.563 176.941 103.775 177.538 103.775 178.276C103.775 178.918 103.273 180.132 102.66 180.972C101.652 182.356 101.652 182.647 102.66 184.031C103.273 184.871 103.775 186.11 103.775 186.782C103.775 187.611 104.323 188.005 105.476 188.005C106.412 188.005 107.585 188.476 108.082 189.052C108.892 189.99 109.16 189.99 110.649 189.052C111.564 188.476 112.967 188.005 113.769 188.005C114.687 188.005 115.225 187.553 115.225 186.782C115.225 186.11 115.727 184.871 116.34 184.031C117.348 182.647 117.348 182.356 116.34 180.972C115.727 180.132 115.225 178.918 115.225 178.276C115.225 177.538 114.437 176.941 113.086 176.656C111.91 176.408 110.764 175.919 110.539 175.569C110.315 175.22 109.847 174.934 109.5 174.934C109.153 174.934 108.685 175.22 108.461 175.569ZM150.565 176.925C147.602 178.391 146.507 181.19 147.59 184.529C148.269 186.62 148.908 187.21 151.249 187.913C153.232 188.508 154.312 188.545 154.838 188.04C155.252 187.642 156.103 187.317 156.73 187.317C157.356 187.317 158.379 186.233 159.004 184.909C160.037 182.717 160.038 182.288 159.013 180.114C158.041 178.053 156.732 177.119 153.157 175.937C152.96 175.873 151.793 176.316 150.565 176.925ZM195.062 177.381C192.76 178.285 190.592 182.3 191.786 183.447C192.19 183.835 192.52 184.648 192.52 185.252C192.52 187.014 196.755 188.166 199.53 187.159C200.792 186.702 201.824 185.838 201.824 185.24C201.824 184.642 202.21 183.781 202.682 183.327C203.35 182.685 203.35 182.318 202.682 181.676C202.21 181.222 201.824 180.358 201.824 179.755C201.824 179.153 200.755 178.195 199.448 177.626C197.559 176.803 196.662 176.753 195.062 177.381ZM238.502 178.166C237.575 178.341 236.892 178.975 236.892 179.66C236.892 180.315 236.57 181.16 236.176 181.538C235.042 182.629 236.911 185.646 239.244 186.493C243.272 187.954 246.974 184.321 245.294 180.556C244.843 179.545 244.46 178.677 244.441 178.626C244.308 178.269 239.805 177.919 238.502 178.166ZM282.585 178.836C281.933 179.002 281.22 179.826 281.001 180.668C279.66 185.803 285.847 188.502 288.409 183.901C289.708 181.567 286.843 177.929 284.127 178.463C283.931 178.502 283.236 178.67 282.585 178.836ZM326.963 179.524C324.549 180.137 324.677 184.022 327.153 185.296C328.681 186.083 330.945 185.226 331.587 183.619C332.071 182.409 331.407 179.75 330.622 179.75C330.306 179.75 329.619 179.631 329.095 179.488C328.571 179.343 327.612 179.36 326.963 179.524ZM370.449 180.802C369.181 182.021 369.617 183.627 371.475 184.583C372.417 185.067 373.082 184.954 373.897 184.171C375.307 182.814 375.307 182.188 373.895 180.831C372.489 179.479 371.831 179.474 370.449 180.802ZM414.884 180.872C414.608 181.138 414.382 181.944 414.382 182.664C414.382 183.628 414.807 183.915 415.993 183.753C417.045 183.61 417.603 183.06 417.603 182.167C417.603 180.802 415.834 179.96 414.884 180.872ZM0 203.5V213.343L2.68382 212.054C4.16028 211.345 5.93161 210.607 6.6201 210.413C7.3093 210.219 7.87255 209.403 7.87255 208.598C7.87255 207.793 8.41003 206.26 9.06631 205.192C10.1806 203.379 10.1806 203.134 9.06631 201.499C8.41003 200.536 7.87255 198.963 7.87255 198.003C7.87255 196.787 7.48536 196.26 6.59219 196.26C5.88867 196.26 4.11734 195.674 2.65591 194.958L0 193.657V203.5ZM42.2878 195.156C41.8319 195.684 40.3432 196.317 38.9791 196.563C37.1083 196.9 36.5 197.355 36.5 198.42C36.5 199.196 35.9554 200.717 35.2891 201.801C34.1518 203.651 34.1518 203.849 35.2891 205.057C35.9554 205.764 36.5 207.023 36.5 207.853C36.5 208.879 37.132 209.581 38.4681 210.04C39.551 210.411 41.2414 211.136 42.2255 211.652C43.7921 212.472 44.2817 212.429 46.1618 211.306C47.3426 210.602 48.8721 210.023 49.5613 210.021C50.2505 210.019 50.8137 209.523 50.8137 208.918C50.8137 208.313 51.3197 206.793 51.9388 205.539C52.9615 203.468 52.9615 203.071 51.9388 201.171C51.3197 200.02 50.8137 198.6 50.8137 198.014C50.8137 197.427 50.3986 196.948 49.8912 196.948C49.3845 196.948 47.7062 196.328 46.1618 195.572C42.826 193.937 43.2962 193.987 42.2878 195.156ZM85.5245 196.142C84.3436 196.707 82.9437 197.356 82.4134 197.583C81.8831 197.811 81.0042 199.231 80.461 200.74C79.5972 203.139 79.6187 203.85 80.6328 206.418C81.4823 208.568 82.2903 209.467 83.658 209.78C84.6843 210.015 85.9253 210.51 86.4141 210.881C87.0146 211.335 88.0995 211.192 89.7435 210.442C91.0847 209.831 92.5361 209.33 92.9684 209.33C93.4014 209.33 93.7549 208.99 93.7549 208.574C93.7549 208.158 94.2494 206.816 94.8535 205.592C95.8698 203.535 95.844 203.124 94.5214 200.157C93.5695 198.022 92.6556 196.948 91.7925 196.948C91.0789 196.948 89.8594 196.535 89.0836 196.031C87.897 195.261 87.3288 195.279 85.5245 196.142ZM129.897 196.948C129.654 197.326 128.675 197.635 127.721 197.635C126.422 197.635 125.871 198.109 125.518 199.527C125.259 200.567 124.741 201.794 124.366 202.252C123.919 202.799 124.109 204.006 124.919 205.771C126.281 208.74 130.961 211.42 132.609 210.175C133.085 209.814 134.362 209.316 135.444 209.068C136.878 208.738 137.412 208.19 137.412 207.047C137.412 206.183 137.759 205.144 138.184 204.735C138.736 204.205 138.663 203.161 137.927 201.069C137.069 198.629 136.436 197.989 134.113 197.212C130.752 196.088 130.462 196.069 129.897 196.948ZM172.817 197.835C171.325 198.308 170.298 199.314 169.521 201.062C168.47 203.428 168.485 203.773 169.738 206.121C170.523 207.592 171.613 208.642 172.354 208.642C173.054 208.642 174.012 209.013 174.484 209.467C175.152 210.109 175.534 210.109 176.202 209.467C176.674 209.013 177.636 208.642 178.34 208.642C179.129 208.642 180.027 207.702 180.688 206.181C182.042 203.065 180.879 198.603 178.585 198.119C177.786 197.951 176.649 197.663 176.059 197.48C175.468 197.297 174.01 197.457 172.817 197.835ZM217.926 198.323C217.683 198.702 216.924 199.011 216.239 199.011C214.304 199.011 213.071 202.994 214.154 205.749C214.63 206.962 215.529 207.954 216.151 207.954C216.773 207.954 217.669 208.326 218.141 208.78C218.809 209.421 219.191 209.421 219.859 208.78C220.331 208.326 221.226 207.954 221.849 207.954C222.471 207.954 223.37 206.962 223.846 205.749C224.929 202.994 223.696 199.011 221.761 199.011C221.076 199.011 220.317 198.702 220.074 198.323C219.83 197.945 219.347 197.635 219 197.635C218.653 197.635 218.17 197.945 217.926 198.323ZM260.834 199.198C258.55 200.3 257.626 202.768 258.584 205.209C259.051 206.396 259.914 207.266 260.624 207.266C261.302 207.266 262.04 207.551 262.263 207.898C262.494 208.258 263.559 208.104 264.737 207.539C268.417 205.775 268.347 201.158 264.614 199.367C263.416 198.793 262.406 198.361 262.368 198.408C262.33 198.454 261.64 198.81 260.834 199.198ZM304.771 200.161C302.181 200.821 302.486 206.196 305.151 206.839C308.85 207.732 311.123 205.525 310.158 201.978C309.826 200.756 307.661 199.523 306.314 199.789C306.117 199.827 305.423 199.995 304.771 200.161ZM348.232 201.468C347.614 202.063 347.108 202.969 347.108 203.483C347.108 203.996 347.614 204.902 348.232 205.498C348.851 206.092 349.795 206.578 350.328 206.578C350.862 206.578 351.806 206.092 352.425 205.498C353.043 204.902 353.549 203.996 353.549 203.483C353.549 202.969 353.043 202.063 352.425 201.468C351.806 200.873 350.862 200.387 350.328 200.387C349.795 200.387 348.851 200.873 348.232 201.468ZM392.635 202.127C390.669 204.017 393.366 206.838 395.508 205.13C396.836 204.071 396.751 202.006 395.358 201.493C393.845 200.935 393.886 200.925 392.635 202.127ZM436.949 202.652C436.642 203.331 436.593 204.079 436.838 204.315C437.565 205.013 438.151 204.032 437.816 202.676C437.52 201.475 437.481 201.474 436.949 202.652ZM19.6814 215.635C18.5005 216.325 16.81 216.891 15.924 216.893C14.8555 216.895 14.3137 217.311 14.3137 218.128C14.3137 218.804 13.7047 220.506 12.9596 221.911C11.6313 224.416 11.6313 224.512 12.9596 227.017C13.7047 228.421 14.3137 230.124 14.3137 230.8C14.3137 231.617 14.8555 232.032 15.924 232.034C16.81 232.035 18.5005 232.601 19.6814 233.292C21.7597 234.509 21.8971 234.509 23.9755 233.293C25.1564 232.603 26.8218 232.036 27.6763 232.034C28.8436 232.032 29.3553 231.478 29.7382 229.805C30.018 228.581 30.7244 226.878 31.3084 226.022C32.2474 224.645 32.2474 224.283 31.3084 222.906C30.7244 222.049 30.018 220.347 29.7382 219.122C29.3553 217.449 28.8443 216.896 27.6763 216.894C26.8218 216.893 25.1564 216.327 23.9755 215.635C21.8971 214.419 21.7597 214.419 19.6814 215.635ZM63.3805 216.575C62.6161 217.13 61.3279 217.589 60.5177 217.594C59.3612 217.602 58.7722 218.426 57.7831 221.421C56.6494 224.851 56.6315 225.39 57.6042 226.724C58.1989 227.541 58.6863 228.915 58.6863 229.777C58.6863 230.908 59.1028 231.343 60.1864 231.343C61.0108 231.343 62.5818 231.851 63.6768 232.473C65.5225 233.522 65.7887 233.522 67.3454 232.473C68.2693 231.851 69.7579 231.343 70.6547 231.343C71.5507 231.343 72.2843 230.952 72.2843 230.473C72.2843 229.995 72.9442 228.419 73.7508 226.973C74.8994 224.914 75.0347 224.131 74.3755 223.367C73.9118 222.831 73.3206 221.388 73.0608 220.16C72.7066 218.482 72.1569 217.87 70.8465 217.689C69.8882 217.557 68.4597 217.015 67.6724 216.485C65.8875 215.284 65.1346 215.3 63.3805 216.575ZM107.753 217.263C106.989 217.818 105.62 218.273 104.711 218.273C103.469 218.273 103.059 218.661 103.059 219.839C103.059 220.701 102.548 222.107 101.923 222.965C100.886 224.388 100.886 224.667 101.923 226.189C102.548 227.105 103.059 228.485 103.059 229.255C103.059 230.253 103.527 230.655 104.688 230.655C105.585 230.655 107.034 231.137 107.909 231.726C109.349 232.695 109.651 232.695 111.091 231.726C111.966 231.137 113.262 230.655 113.971 230.655C114.732 230.655 115.548 229.879 115.959 228.763C116.343 227.723 116.99 226.318 117.395 225.643C117.938 224.739 117.843 224.016 117.037 222.91C116.434 222.083 115.941 220.701 115.941 219.839C115.941 218.661 115.531 218.273 114.289 218.273C113.38 218.273 112.011 217.818 111.247 217.263C110.483 216.707 109.697 216.253 109.5 216.253C109.303 216.253 108.517 216.707 107.753 217.263ZM151.41 217.951C150.646 218.506 149.438 218.961 148.726 218.961C147.906 218.961 147.431 219.468 147.431 220.346C147.431 221.108 147.032 222.346 146.543 223.098C145.837 224.185 145.837 224.742 146.543 225.83C147.032 226.582 147.431 227.82 147.431 228.582C147.431 229.451 147.906 229.967 148.703 229.967C149.403 229.967 150.691 230.449 151.566 231.038C153.006 232.007 153.308 232.007 154.748 231.038C155.622 230.449 156.911 229.967 157.611 229.967C158.31 229.967 158.884 229.581 158.887 229.107C158.89 228.635 159.369 227.367 159.953 226.29C160.893 224.559 160.892 224.164 159.949 222.869C159.363 222.064 158.882 220.856 158.882 220.183C158.882 219.462 158.351 218.961 157.588 218.961C156.876 218.961 155.668 218.506 154.904 217.951C154.14 217.395 153.354 216.941 153.157 216.941C152.96 216.941 152.174 217.395 151.41 217.951ZM194.271 219.161C192.703 219.66 191.875 220.507 191.337 222.16C190.414 224.991 191.581 229.279 193.274 229.279C193.889 229.279 194.974 229.687 195.684 230.187C196.775 230.953 197.406 230.889 199.757 229.77C201.354 229.011 202.539 227.951 202.539 227.281C202.539 226.64 202.854 225.812 203.239 225.442C204.496 224.234 201.877 219.944 199.347 219.064C198.094 218.629 196.932 218.316 196.763 218.37C196.594 218.423 195.473 218.779 194.271 219.161ZM238.759 219.951C234.401 221.8 234.409 227.203 238.773 228.917C241.207 229.874 245.48 228.769 245.48 227.185C245.48 226.596 245.867 225.743 246.339 225.289C247.007 224.648 247.007 224.28 246.339 223.638C245.867 223.184 245.48 222.291 245.48 221.655C245.48 221.018 244.916 220.341 244.228 220.151C243.539 219.96 242.492 219.64 241.902 219.439C241.312 219.238 239.897 219.468 238.759 219.951ZM282.957 220.455C279.399 222.105 279.47 226.897 283.077 228.476C286.596 230.017 290.545 226.148 288.891 222.779C288.437 221.853 287.581 220.924 286.99 220.715C286.4 220.506 285.595 220.203 285.201 220.041C284.807 219.88 283.798 220.066 282.957 220.455ZM326.456 221.768C324.642 223.392 324.486 225.322 326.046 226.823C328.934 229.598 333.79 225.927 331.531 222.675C331.242 222.259 330.326 221.575 329.498 221.156C328.272 220.537 327.703 220.651 326.456 221.768ZM370.038 223.039C368.662 225.508 371.027 227.853 373.845 226.814C375.377 226.249 375.409 222.691 373.887 222.13C371.923 221.405 370.799 221.67 370.038 223.039ZM414.378 223.437C413.586 224.354 413.617 224.711 414.567 225.624C416.102 227.099 418.125 226.28 417.832 224.302C417.552 222.418 415.666 221.945 414.378 223.437ZM0 245.445C0 255.176 0.424402 257.542 1.78922 255.419C2.03255 255.041 3.66217 254.385 5.40987 253.962C7.84106 253.373 8.58823 252.87 8.58823 251.82C8.58823 251.065 9.28818 249.251 10.1434 247.788C11.617 245.268 11.6342 245.061 10.4705 243.824C9.7956 243.107 9.05343 241.398 8.82155 240.027C8.53456 238.327 8.02356 237.534 7.21483 237.534C6.56213 237.534 4.76504 236.915 3.22059 236.158C1.67614 235.402 0.319912 234.782 0.206833 234.782C0.0930392 234.782 0 239.581 0 245.445ZM41.922 236.515C41.1648 237.066 39.4744 237.71 38.1647 237.946C36.4843 238.249 35.7843 238.75 35.7843 239.651C35.7843 240.352 35.2662 241.971 34.6328 243.248C33.575 245.38 33.575 245.742 34.6328 247.708C35.2662 248.885 35.7843 250.476 35.7843 251.245C35.7843 252.2 36.4062 252.785 37.7524 253.095C38.8353 253.345 40.6617 254.005 41.8111 254.563C43.654 255.457 44.1213 255.456 45.7474 254.56C46.7629 254.001 48.4427 253.349 49.4804 253.112C50.9254 252.782 51.475 252.132 51.825 250.336C52.0769 249.046 52.7575 247.613 53.3372 247.15C54.7378 246.033 54.6691 245.312 52.9608 243.225C52.1735 242.263 51.5294 240.744 51.5294 239.849C51.5294 238.745 51.1179 238.222 50.249 238.222C49.5455 238.222 47.7062 237.603 46.1618 236.846C44.6173 236.09 43.342 235.48 43.3269 235.492C43.3112 235.504 42.6792 235.965 41.922 236.515ZM85.4393 237.595C84.305 238.313 82.8142 238.903 82.125 238.905C81.4358 238.908 80.8726 239.309 80.8726 239.797C80.8726 240.284 80.2406 241.873 79.4691 243.329C78.2166 245.69 78.178 246.132 79.1112 247.411C79.6859 248.201 80.1569 249.546 80.1569 250.4C80.1569 251.53 80.6936 252.074 82.125 252.393C83.2078 252.634 84.7852 253.246 85.6311 253.752C86.958 254.546 87.6601 254.473 90.7533 253.217C93.5416 252.084 94.4234 251.346 94.7268 249.89C94.9408 248.861 95.6207 247.534 96.2376 246.941C97.2553 245.962 97.226 245.654 95.9177 243.59C95.1247 242.341 94.4749 240.776 94.4734 240.114C94.472 239.428 93.9317 238.909 93.2181 238.907C92.5289 238.906 90.9609 238.316 89.7335 237.596C87.5399 236.311 87.4647 236.311 85.4393 237.595ZM129.931 238.169C129.707 238.519 128.56 239.008 127.384 239.256C126.208 239.504 125.245 240.023 125.245 240.408C125.245 240.794 124.753 242.105 124.153 243.321C123.142 245.369 123.171 245.773 124.544 248.757C125.502 250.837 126.475 251.98 127.289 251.98C127.983 251.98 129.148 252.401 129.879 252.914C130.981 253.689 131.525 253.695 133.058 252.949C134.075 252.455 135.478 251.887 136.176 251.687C136.874 251.487 137.614 250.775 137.823 250.104C138.03 249.434 138.621 248.085 139.136 247.107C139.912 245.634 139.905 245.111 139.099 244.052C138.565 243.35 138.127 242.229 138.127 241.562C138.127 240.782 136.947 239.848 134.816 238.942C131.09 237.358 130.512 237.267 129.931 238.169ZM172.305 239.492C170.831 240.118 169.621 240.939 169.617 241.318C169.613 241.696 169.131 242.886 168.547 243.963C167.607 245.694 167.608 246.089 168.551 247.384C169.137 248.188 169.618 249.449 169.618 250.184C169.618 250.919 169.819 251.327 170.066 251.09C170.313 250.853 171.573 251.084 172.866 251.603C174.808 252.383 175.683 252.394 177.887 251.666C180.086 250.939 180.736 250.269 181.584 247.859C182.32 245.767 182.393 244.723 181.841 244.192C181.416 243.784 181.069 242.763 181.069 241.922C181.069 240.786 180.521 240.28 178.929 239.944C177.754 239.696 176.607 239.206 176.382 238.857C175.868 238.057 175.58 238.102 172.305 239.492ZM216.435 240.424C213.894 241.21 211.776 245.312 213.202 246.683C213.636 247.099 213.99 247.933 213.99 248.535C213.99 249.927 219.035 252.222 220.018 251.277C220.403 250.907 221.293 250.604 221.997 250.604C223.769 250.604 225.827 245.897 224.774 244.251C224.353 243.594 224.01 242.623 224.01 242.095C224.01 241.567 223.286 240.983 222.4 240.798C221.513 240.614 220.306 240.3 219.716 240.102C219.125 239.903 217.649 240.048 216.435 240.424ZM261.583 240.974C261.34 241.352 260.586 241.662 259.909 241.662C258.015 241.662 256.995 244.999 258.096 247.591C259.66 251.278 265.361 251.398 267.237 247.784C268.649 245.064 267.417 241.952 264.547 240.991C261.985 240.132 262.124 240.133 261.583 240.974ZM304.712 241.712C302.85 242.755 301.928 244.853 302.451 246.857C303.328 250.216 308.972 250.686 310.47 247.525C311.543 245.261 310.756 243.147 308.406 241.978C306.049 240.807 306.297 240.824 304.712 241.712ZM348.149 243.35C346.64 244.8 346.506 245.276 347.195 246.731C349.065 250.675 354.881 248.545 353.735 244.336C353.566 243.714 352.635 242.858 351.666 242.433C350.152 241.771 349.658 241.9 348.149 243.35ZM392.146 244.127C390.962 245.499 392.049 247.415 394.189 247.723C396.306 248.027 397.594 245.572 396.08 244.117C394.649 242.742 393.339 242.746 392.146 244.127ZM437.046 244.184C436.303 244.897 436.485 247.165 437.284 247.165C437.678 247.165 438 246.391 438 245.445C438 243.644 437.835 243.425 437.046 244.184ZM19.423 256.818C18.494 257.563 16.8029 258.171 15.6657 258.171C14.2042 258.171 13.598 258.511 13.598 259.33C13.598 259.967 12.9253 261.825 12.103 263.457L10.6079 266.426L12.103 269.395C12.9253 271.028 13.598 272.885 13.598 273.523C13.598 274.16 14.1405 274.681 14.8033 274.681C15.4667 274.681 17.3346 275.298 18.9557 276.052C21.8993 277.422 21.9057 277.422 24.7005 276.052C26.2399 275.298 28.0406 274.681 28.7019 274.681C29.9228 274.681 30.7745 273.358 30.7745 271.464C30.7745 270.891 31.453 269.507 32.2817 268.388C33.726 266.438 33.7367 266.296 32.5265 265.011C31.8323 264.274 31.0701 262.524 30.8332 261.122C30.4431 258.817 30.134 258.52 27.5826 258.011C26.0317 257.702 24.2381 256.992 23.5969 256.434C22.0882 255.121 21.4713 255.178 19.423 256.818ZM63.7956 257.506C62.8666 258.25 61.3264 258.859 60.3739 258.859C59.3404 258.859 58.4938 259.345 58.2748 260.063C58.0729 260.725 57.3093 262.421 56.5764 263.831C55.2753 266.335 55.276 266.453 56.6079 268.963C57.3572 270.376 57.9706 272.086 57.9706 272.763C57.9706 273.579 58.5124 273.994 59.5809 273.996C60.4662 273.997 62.274 274.633 63.5973 275.408C65.8095 276.704 66.1058 276.73 67.2659 275.721C67.9601 275.117 69.6957 274.44 71.122 274.218C73.3679 273.867 73.7157 273.561 73.7157 271.932C73.7157 270.898 74.3441 269.283 75.1127 268.344C76.4117 266.757 76.4288 266.527 75.3596 265.059C74.7269 264.192 74.007 262.529 73.7593 261.366C73.3979 259.665 72.8511 259.16 70.9782 258.792C69.6964 258.54 68.0718 257.833 67.3675 257.221C65.798 255.855 65.8639 255.85 63.7956 257.506ZM107.753 258.537C106.989 259.092 105.61 259.547 104.688 259.547C103.722 259.547 102.846 260.056 102.618 260.751C102.4 261.413 101.729 263.09 101.127 264.477C100.135 266.763 100.141 267.15 101.187 268.586C101.823 269.459 102.343 270.843 102.343 271.662C102.343 272.812 102.899 273.252 104.776 273.591C106.114 273.832 107.604 274.487 108.087 275.046C108.854 275.934 109.257 275.888 111.285 274.684C112.561 273.926 114.292 273.305 115.131 273.305C116.242 273.305 116.657 272.879 116.657 271.739C116.657 270.877 117.177 269.459 117.813 268.586C118.859 267.15 118.865 266.763 117.873 264.477C117.271 263.09 116.6 261.413 116.382 260.751C116.161 260.078 115.266 259.538 114.353 259.525C113.456 259.513 112.095 259.049 111.331 258.493C109.642 257.265 109.499 257.267 107.753 258.537ZM151.01 259.229C150.026 259.74 148.657 260.322 147.968 260.52C147.262 260.723 146.706 261.563 146.693 262.449C146.681 263.312 146.21 264.603 145.648 265.317C144.76 266.443 144.763 266.805 145.67 268.05C146.245 268.839 146.716 270.044 146.716 270.728C146.716 271.413 147.279 272.142 147.968 272.349C148.657 272.556 150.097 273.178 151.169 273.731C152.888 274.618 153.367 274.612 155.248 273.677C156.42 273.094 157.879 272.617 158.489 272.617C159.099 272.617 159.598 272.138 159.598 271.551C159.598 270.965 160.078 269.593 160.665 268.502C161.599 266.767 161.603 266.274 160.702 264.58C160.135 263.514 159.504 262.101 159.299 261.439C159.095 260.777 158.335 260.235 157.611 260.235C156.886 260.235 155.668 259.78 154.904 259.225C153.266 258.034 153.304 258.034 151.01 259.229ZM194.13 260.474C192.85 260.878 191.802 261.53 191.8 261.925C191.797 262.32 191.337 263.487 190.777 264.519C189.887 266.159 189.901 266.742 190.89 269.162C191.543 270.76 192.505 271.938 193.165 271.952C193.794 271.963 194.916 272.416 195.659 272.956C196.832 273.809 197.207 273.806 198.503 272.935C199.324 272.382 200.567 271.93 201.267 271.93C202.009 271.93 202.539 271.42 202.539 270.707C202.539 270.034 203.006 268.843 203.577 268.06C204.501 266.792 204.454 266.322 203.144 263.779C202.218 261.98 201.188 260.923 200.36 260.923C199.636 260.923 198.846 260.613 198.603 260.235C198.086 259.432 197.302 259.474 194.13 260.474ZM238.643 261.2C236.978 261.671 236.259 262.428 235.628 264.376C234.649 267.389 235.768 271.242 237.621 271.242C238.244 271.242 239.107 271.582 239.541 271.999C240.901 273.306 245.129 271.354 246.295 268.881C247.176 267.013 247.172 266.406 246.26 264.297C245.021 261.43 242.065 260.228 238.643 261.2ZM282.431 262.206C281.695 262.488 280.706 263.629 280.233 264.74C278.383 269.091 282.577 272.911 286.919 270.829C288.05 270.286 289.157 269.182 289.376 268.376C289.804 266.803 289.24 263.119 288.508 262.71C287.34 262.055 283.626 261.748 282.431 262.206ZM326.594 263.112C323.691 264.462 323.824 269.452 326.783 270.166C330.801 271.135 333.309 268.813 332.29 265.066C332.032 264.116 329.061 262.097 328.287 262.346C328.207 262.371 327.446 262.716 326.594 263.112ZM371.362 263.49C370.728 263.626 369.865 264.464 369.445 265.35C368.822 266.666 368.948 267.235 370.134 268.46C370.938 269.289 372.06 269.785 372.646 269.569C373.229 269.354 373.963 269.178 374.279 269.178C375.214 269.178 375.715 266.3 375.002 265.02C374.242 263.655 373.006 263.135 371.362 263.49ZM414.457 265.307C412.681 267.365 415.615 269.959 417.581 268.069C418.402 267.28 418.49 266.688 417.934 265.691C417.068 264.135 415.609 263.974 414.457 265.307ZM0 287.361C0 294.007 0.153157 299.446 0.340667 299.446C0.528176 299.446 1.73554 298.828 3.02449 298.073C4.31344 297.318 6.25367 296.698 7.33578 296.697C9.02337 296.695 9.30392 296.414 9.30392 294.727C9.30392 293.644 10.1148 291.611 11.106 290.207L12.9081 287.654L11.4195 285.646C10.6015 284.541 9.75409 282.585 9.53724 281.3C9.19585 279.279 8.81439 278.913 6.71171 278.584C5.3748 278.376 3.31721 277.546 2.1399 276.74L0 275.276V287.361ZM40.8056 278.16C39.4336 278.895 37.5821 279.497 36.6904 279.497C35.3828 279.497 35.0686 279.878 35.0686 281.467C35.0686 282.552 34.3751 284.286 33.527 285.322C32.0162 287.169 32.0112 287.249 33.2859 289.323C34.0015 290.487 34.7866 292.379 35.0307 293.528C35.3842 295.186 35.9446 295.708 37.7589 296.065C39.0149 296.311 40.8707 297.035 41.8827 297.672C43.6297 298.772 43.8429 298.76 46.1002 297.419C47.4078 296.642 49.3251 296.006 50.3614 296.006C51.8414 296.006 52.2451 295.673 52.2451 294.448C52.2451 293.592 52.9186 291.683 53.7416 290.207L55.2381 287.523L53.7416 284.964C52.9186 283.557 52.2451 281.75 52.2451 280.951C52.2451 280.012 51.7906 279.497 50.9647 279.497C50.2612 279.497 48.4219 278.877 46.8774 278.121C43.5502 276.49 43.926 276.488 40.8056 278.16ZM85.8981 278.447C85.4164 279.004 83.9249 279.658 82.583 279.9C80.7151 280.237 80.0388 280.765 79.6952 282.154C79.4483 283.151 78.7534 284.794 78.1501 285.804C77.1653 287.454 77.1653 287.804 78.1537 289.254C78.7584 290.141 79.482 291.869 79.7618 293.093C80.1447 294.767 80.6557 295.319 81.8237 295.321C82.6782 295.323 84.3694 295.905 85.5818 296.616C87.7324 297.876 87.8297 297.876 89.518 296.628C90.4706 295.924 92.136 295.342 93.2181 295.334C94.5801 295.323 95.1863 294.961 95.1863 294.16C95.1863 293.522 95.8662 291.651 96.6978 290C98.0884 287.238 98.1177 286.901 97.0642 285.782C96.4344 285.113 95.7137 283.58 95.4632 282.375C95.1133 280.695 94.6338 280.184 93.4042 280.184C92.5225 280.184 90.9823 279.565 89.9811 278.809C87.8097 277.167 87.0604 277.101 85.8981 278.447ZM130.236 279.175C129.773 279.71 128.3 280.345 126.963 280.587C125.372 280.874 124.529 281.417 124.527 282.153C124.525 282.773 123.864 284.321 123.057 285.593C121.756 287.643 121.71 288.033 122.646 289.032C123.227 289.652 123.93 291.035 124.208 292.107C124.486 293.178 125.236 294.203 125.874 294.386C126.512 294.569 128.022 295.181 129.229 295.746C131.179 296.661 131.658 296.659 133.523 295.738C134.678 295.168 136.176 294.543 136.854 294.351C137.531 294.159 138.298 293.137 138.56 292.08C138.822 291.024 139.471 289.675 140.003 289.083C140.825 288.17 140.755 287.6 139.55 285.326C138.767 283.852 138.127 282.246 138.127 281.759C138.127 281.271 137.564 280.871 136.875 280.87C136.186 280.868 134.599 280.268 133.349 279.535C131.409 278.398 130.952 278.345 130.236 279.175ZM173.196 280.586C172.212 281.11 170.844 281.544 170.154 281.55C169.444 281.556 168.9 282.082 168.898 282.764C168.895 283.426 168.429 284.823 167.862 285.868C166.976 287.5 166.972 288.033 167.83 289.651C168.38 290.687 168.996 292.077 169.201 292.739C169.422 293.454 170.274 293.943 171.297 293.943C172.245 293.943 173.401 294.382 173.865 294.92C174.585 295.753 174.992 295.759 176.636 294.955C177.696 294.437 179.135 293.849 179.833 293.65C180.53 293.449 181.284 292.737 181.507 292.067C181.731 291.396 182.262 290.15 182.686 289.299C183.241 288.186 183.235 287.317 182.666 286.204C182.23 285.353 181.671 283.959 181.423 283.108C181.175 282.257 180.412 281.56 179.726 281.56C179.04 281.56 177.854 281.106 177.09 280.55C175.454 279.36 175.493 279.36 173.196 280.586ZM217.175 281.494C216.801 281.835 215.9 282.222 215.174 282.353C214.399 282.493 213.476 283.645 212.944 285.139C211.699 288.63 212.899 292.455 215.422 293.034C216.406 293.26 217.57 293.714 218.009 294.044C218.485 294.404 219.638 294.228 220.872 293.61C222.007 293.041 223.26 292.574 223.656 292.571C224.051 292.569 224.733 291.469 225.17 290.126C226.159 287.088 224.841 282.717 222.826 282.353C222.1 282.222 221.199 281.835 220.825 281.494C220.451 281.152 219.63 280.872 219 280.872C218.37 280.872 217.549 281.152 217.175 281.494ZM261.613 282.201C261.354 282.605 260.581 282.936 259.896 282.936C259.134 282.936 258.316 283.827 257.787 285.231C256.604 288.374 257.748 291.35 260.647 292.669C262.613 293.564 263.149 293.56 265.269 292.637C266.587 292.063 267.667 291.099 267.667 290.498C267.667 289.895 267.996 289.086 268.399 288.699C269.413 287.724 267.385 283.215 265.727 282.757C265.022 282.563 263.915 282.193 263.266 281.935C262.617 281.677 261.873 281.797 261.613 282.201ZM304.491 283.403C302.445 283.794 301.179 287.222 302.263 289.433C303.419 291.789 305.702 292.669 308.256 291.743C311.115 290.705 312.226 288.255 310.928 285.851C309.582 283.357 307.961 282.741 304.491 283.403ZM348.672 284.095C347.433 284.571 346.396 287.272 346.834 288.882C347.706 292.089 353.018 291.943 353.867 288.688C354.313 286.982 353.266 284.312 352.151 284.312C351.803 284.312 351.09 284.182 350.566 284.022C350.041 283.863 349.189 283.896 348.672 284.095ZM391.958 285.459C391.695 285.71 391.48 286.629 391.48 287.498C391.48 290.302 395.762 291.256 396.79 288.68C397.739 286.303 393.806 283.681 391.958 285.459ZM436.634 286.635C435.88 287.515 435.832 288.007 436.444 288.595C437.527 289.636 438.172 288.924 437.879 287.009C437.66 285.576 437.568 285.548 436.634 286.635ZM18.9657 298.117C17.7848 298.844 15.9677 299.44 14.9271 299.442C12.974 299.446 12.1788 300.498 12.1509 303.114C12.1423 303.934 11.5054 305.379 10.7353 306.325C8.979 308.483 8.979 308.807 10.7353 310.953C11.5225 311.915 12.1717 313.357 12.1774 314.157C12.1953 316.537 13.3089 317.549 15.8346 317.48C17.14 317.444 18.62 317.744 19.1239 318.145C19.7751 318.665 20.0392 318.653 20.0392 318.103C20.0392 316.908 22.8919 317.193 23.3886 318.438C23.7894 319.441 23.8946 319.436 24.5094 318.381C24.9832 317.567 25.7103 317.342 26.922 317.634C29.253 318.196 31.4895 316.942 31.4931 315.072C31.4945 314.234 32.1715 312.482 32.9974 311.18C34.4596 308.875 34.4653 308.757 33.2121 306.718C32.505 305.567 31.7428 303.542 31.5188 302.217C31.1574 300.08 30.8182 299.764 28.4993 299.402C27.063 299.178 25.0662 298.477 24.0621 297.844C21.8435 296.447 21.6624 296.456 18.9657 298.117ZM64.0761 298.45C63.301 299.013 61.4488 299.789 59.9609 300.174C58.1567 300.641 57.2549 301.27 57.2549 302.062C57.2549 302.715 56.595 304.432 55.7892 305.878L54.3234 308.506L55.7892 311.416C56.595 313.017 57.2549 314.834 57.2549 315.454C57.2549 316.199 58.108 316.735 59.7662 317.034C61.1468 317.283 63.0985 318.108 64.1026 318.867L65.9276 320.247L67.4957 318.845C68.3581 318.074 70.2718 317.228 71.7476 316.967C74.0793 316.553 74.4314 316.242 74.4314 314.596C74.4314 313.554 75.0755 311.915 75.8627 310.953C77.599 308.831 77.619 308.498 76.1075 306.892C75.4548 306.2 74.7255 304.477 74.4865 303.065C74.0929 300.737 73.8037 300.459 71.3818 300.081C69.9125 299.851 68.1205 299.15 67.3998 298.523C65.8303 297.158 65.8539 297.158 64.0761 298.45ZM107.691 299.702C106.915 300.221 105.232 300.865 103.953 301.133C102.201 301.499 101.626 301.988 101.622 303.112C101.62 303.933 101.006 305.497 100.259 306.587C98.9236 308.534 98.9236 308.606 100.26 310.715C101.01 311.894 101.623 313.557 101.625 314.408C101.627 315.435 102.058 315.956 102.908 315.956C103.611 315.956 105.383 316.541 106.844 317.257C109.45 318.534 109.55 318.534 112.156 317.257C113.617 316.541 115.389 315.956 116.092 315.956C116.942 315.956 117.374 315.435 117.376 314.408C117.378 313.557 117.968 311.931 118.686 310.796C119.95 308.799 119.95 308.667 118.685 306.669C117.966 305.534 117.377 303.933 117.375 303.112C117.373 301.987 116.799 301.499 115.047 301.133C113.768 300.865 112.085 300.221 111.309 299.702C110.533 299.183 109.718 298.758 109.5 298.758C109.282 298.758 108.467 299.183 107.691 299.702ZM151.763 300.434C151.295 300.976 149.945 301.625 148.765 301.874C147.585 302.123 146.459 302.84 146.264 303.466C146.069 304.093 145.396 305.611 144.769 306.84C143.747 308.843 143.742 309.199 144.718 310.279C145.317 310.942 146.018 312.335 146.276 313.376C146.533 314.42 147.234 315.268 147.839 315.268C148.441 315.268 149.939 315.767 151.168 316.378C153.224 317.4 153.558 317.4 155.358 316.378C156.434 315.767 157.989 315.268 158.814 315.268C159.897 315.268 160.314 314.833 160.314 313.701C160.314 312.839 160.843 311.409 161.49 310.521C162.58 309.024 162.58 308.768 161.49 306.994C160.843 305.942 160.314 304.432 160.314 303.639C160.314 302.726 159.855 302.197 159.061 302.195C158.372 302.193 156.755 301.574 155.466 300.819C152.671 299.181 152.831 299.198 151.763 300.434ZM195.067 301.876C194.302 302.431 193.095 302.885 192.383 302.885C191.671 302.885 191.088 303.379 191.088 303.983C191.088 304.587 190.559 305.942 189.912 306.994C188.822 308.768 188.822 309.024 189.912 310.521C190.559 311.409 191.088 312.685 191.088 313.357C191.088 314.07 191.619 314.58 192.36 314.58C193.06 314.58 194.34 315.056 195.205 315.639C196.62 316.591 196.99 316.591 198.907 315.639C200.079 315.056 201.536 314.58 202.146 314.58C202.756 314.58 203.255 314.1 203.255 313.514C203.255 312.928 203.75 311.527 204.356 310.401C205.348 308.558 205.348 308.203 204.356 306.842C203.75 306.011 203.255 304.781 203.255 304.108C203.255 303.387 202.724 302.885 201.96 302.885C201.248 302.885 200.041 302.431 199.276 301.876C198.513 301.32 197.565 300.866 197.172 300.866C196.778 300.866 195.83 301.32 195.067 301.876ZM239.42 302.61C238.666 303.14 237.546 303.573 236.929 303.573C235.474 303.573 233.616 308.954 234.709 310.005C235.122 310.402 235.461 311.294 235.461 311.987C235.461 312.681 236.025 313.415 236.713 313.62C237.402 313.825 238.528 314.281 239.215 314.634C240.022 315.048 241.434 314.986 243.198 314.457C245.405 313.794 246.084 313.165 246.727 311.182C247.693 308.21 246.487 303.573 244.749 303.573C244.146 303.573 243.008 303.14 242.221 302.61C240.995 301.785 240.595 301.785 239.42 302.61ZM282.159 303.975C280.685 304.595 279.833 305.441 279.833 306.286C279.833 307.02 279.548 307.789 279.201 307.995C278.224 308.575 280.7 313.204 281.986 313.204C282.613 313.204 283.512 313.576 283.984 314.03C284.652 314.671 285.034 314.671 285.702 314.03C286.174 313.576 287.141 313.204 287.849 313.204C288.613 313.204 289.137 312.7 289.137 311.966C289.137 311.285 289.492 310.387 289.925 309.97C291.087 308.853 289.221 304.261 287.604 304.261C286.919 304.261 286.16 303.952 285.917 303.573C285.37 302.722 285.061 302.755 282.159 303.975ZM326.677 304.716C324.564 305.138 323.438 308.398 324.642 310.607C327.217 315.331 334.747 311.946 332.567 307.044C332.139 306.081 331.773 305.241 331.753 305.177C331.64 304.808 327.913 304.469 326.677 304.716ZM369.991 306.343C369.148 307.153 368.652 308.27 368.881 308.842C369.108 309.412 369.294 310.112 369.294 310.398C369.294 310.685 370.074 311.261 371.027 311.678C372.511 312.328 373.019 312.187 374.572 310.695C376.133 309.194 376.265 308.748 375.523 307.468C375.049 306.65 374.662 305.942 374.662 305.894C374.662 305.847 373.954 305.599 373.088 305.343C371.981 305.017 371.063 305.313 369.991 306.343ZM413.941 308.118C413.247 310.777 416.124 312.235 417.932 310.141C419.247 308.619 418.168 306.325 416.137 306.325C414.873 306.325 414.284 306.806 413.941 308.118ZM0 323.232V329.714H6.79902C10.5385 329.714 13.598 329.452 13.598 329.133C13.598 328.813 12.9539 327.991 12.1667 327.306C11.3794 326.622 10.7353 325.335 10.7353 324.448C10.7353 323.196 10.3438 322.835 8.9883 322.835C8.02714 322.835 7.00872 322.473 6.72387 322.03C6.3782 321.492 6.59362 321.368 7.37443 321.656C8.01712 321.893 8.67269 321.868 8.83085 321.601C8.98973 321.334 7.06812 320.133 4.56035 318.933L0 316.751V323.232ZM21.2122 318.497C20.357 319.319 20.7506 320.771 21.8284 320.771C22.4189 320.771 22.902 320.325 22.902 319.78C22.902 318.63 21.8807 317.855 21.2122 318.497ZM43.3234 318.669C43.1222 318.982 43.5975 319.4 44.3804 319.597C46.0974 320.028 46.2648 322.02 44.6359 322.621C43.9932 322.858 42.866 322.691 42.131 322.249C41.3065 321.755 40.7941 321.713 40.7941 322.141C40.7941 322.522 39.989 322.835 39.0049 322.835C36.7777 322.835 36.6446 321.66 38.826 321.257C39.9904 321.041 39.7922 320.933 38.1103 320.865C36.4764 320.799 35.7843 321.078 35.7843 321.803C35.7843 322.37 35.488 322.835 35.1252 322.835C34.763 322.835 34.2592 323.742 34.0058 324.851C33.7525 325.96 33.0826 327.236 32.5179 327.687C31.9525 328.138 31.4902 328.778 31.4902 329.11C31.4902 329.442 37.1484 329.714 44.0634 329.714H56.6366L55.2181 327.799C54.438 326.746 53.5748 324.733 53.3007 323.327C52.9107 321.331 52.4662 320.768 51.271 320.756C50.4287 320.748 48.379 320.147 46.715 319.421C45.0503 318.695 43.5245 318.356 43.3234 318.669ZM85.8981 319.721C85.4164 320.279 83.8477 320.942 82.4113 321.196C79.5399 321.703 78.7527 322.439 78.7362 324.634C78.7305 325.434 78.0578 326.904 77.2419 327.901L75.759 329.714H87.6716H99.5842L98.1199 327.925C97.314 326.94 96.4502 325.083 96.199 323.797C95.8111 321.81 95.4461 321.459 93.7721 321.459C92.6878 321.459 90.9823 320.84 89.9811 320.083C87.8097 318.441 87.0604 318.375 85.8981 319.721ZM43.337 320.713C43.1065 321.071 43.2232 321.545 43.596 321.766C43.9689 321.988 44.462 321.876 44.6925 321.517C44.9229 321.159 44.8063 320.685 44.4334 320.464C44.0605 320.242 43.5674 320.354 43.337 320.713ZM128.572 321.259C127.449 321.826 126.042 322.358 125.445 322.443C124.847 322.527 123.951 323.736 123.452 325.13C122.954 326.523 122.148 328.125 121.661 328.688C120.884 329.589 122.062 329.714 131.352 329.714C141.649 329.714 141.896 329.68 140.713 328.423C140.044 327.713 139.308 326.011 139.076 324.64C138.715 322.496 138.387 322.147 136.739 322.147C135.685 322.147 134.198 321.692 133.433 321.137C131.755 319.917 131.204 319.931 128.572 321.259ZM173.596 321.825C172.832 322.38 171.503 322.835 170.644 322.835C169.459 322.835 168.971 323.366 168.625 325.025C168.374 326.23 167.64 327.778 166.993 328.465C165.863 329.666 166.183 329.714 175.284 329.714H184.751L183.268 327.901C182.452 326.904 181.784 325.536 181.784 324.861C181.784 324.061 181.051 323.477 179.687 323.189C178.533 322.946 177.205 322.302 176.737 321.759C175.687 320.543 175.349 320.55 173.596 321.825ZM215.998 323.416C214.1 324.227 213.058 325.273 212.299 327.129L211.243 329.714H219.004H226.766L225.579 327.043C224.506 324.627 223.022 323.578 219 322.392C218.803 322.334 217.453 322.795 215.998 323.416ZM262.28 323.552C262.085 323.856 261.038 324.292 259.955 324.521C258.497 324.828 257.783 325.557 257.207 327.325L256.429 329.714H263.031H269.633L268.483 327.466C267.346 325.245 262.968 322.482 262.28 323.552ZM304.392 325.129C303.091 325.749 301.304 328.221 301.304 329.402C301.304 329.574 303.784 329.714 306.815 329.714C311.101 329.714 312.134 329.53 311.467 328.888C310.994 328.434 310.608 327.541 310.608 326.905C310.608 326.268 310.044 325.591 309.355 325.401C308.667 325.21 307.62 324.904 307.029 324.72C306.439 324.535 305.252 324.72 304.392 325.129ZM348.36 326.06C347.672 326.234 347.108 326.637 347.108 326.957C347.108 327.276 346.912 328.027 346.673 328.626C346.309 329.538 346.887 329.714 350.252 329.714C354.553 329.714 355.095 329.136 352.833 326.962C351.409 325.593 350.749 325.461 348.36 326.06ZM391.964 327.873L390.407 329.37L393.523 329.585C397.038 329.827 397.416 329.664 396.815 328.161C396.104 326.378 393.67 326.234 391.964 327.873ZM436.569 328.682C435.839 329.527 435.888 329.714 436.839 329.714C437.478 329.714 438 329.25 438 328.682C438 328.114 437.878 327.65 437.729 327.65C437.581 327.65 437.059 328.114 436.569 328.682Z" fill="#FFB500"/>
</svg>
