<svg xmlns="http://www.w3.org/2000/svg" width="16" height="16" viewBox="0 0 16 16" fill="none">
  <path d="M15.317 8.44189L12.0366 11.7231C11.9786 11.7812 11.9097 11.8272 11.8339 11.8587C11.7581 11.8901 11.6768 11.9063 11.5947 11.9063C11.5126 11.9063 11.4314 11.8901 11.3555 11.8587C11.2797 11.8273 11.2108 11.7813 11.1527 11.7233C11.0947 11.6652 11.0486 11.5963 11.0172 11.5205C10.9858 11.4447 10.9696 11.3634 10.9696 11.2813C10.9696 11.1993 10.9858 11.118 11.0172 11.0421C11.0486 10.9663 11.0946 10.8974 11.1526 10.8394L13.3664 8.625H6.125C5.95924 8.625 5.80027 8.55915 5.68306 8.44194C5.56585 8.32473 5.5 8.16576 5.5 8C5.5 7.83424 5.56585 7.67527 5.68306 7.55806C5.80027 7.44085 5.95924 7.375 6.125 7.375H13.3664L11.1526 5.16064C11.0354 5.04342 10.9696 4.88443 10.9696 4.71867C10.9696 4.5529 11.0355 4.39394 11.1527 4.27674C11.27 4.15954 11.4289 4.09371 11.5947 4.09373C11.7605 4.09376 11.9194 4.15963 12.0366 4.27686L15.317 7.55811C15.4342 7.67531 15.5 7.83426 15.5 8C15.5 8.16574 15.4342 8.32469 15.317 8.44189ZM6.125 14.25H1.75V1.75H6.125C6.29076 1.75 6.44973 1.68415 6.56694 1.56694C6.68415 1.44973 6.75 1.29076 6.75 1.125C6.75 0.95924 6.68415 0.800269 6.56694 0.683058C6.44973 0.565848 6.29076 0.5 6.125 0.5H1.75C1.4186 0.500379 1.10087 0.632197 0.866535 0.866535C0.632197 1.10087 0.500379 1.4186 0.5 1.75V14.25C0.500379 14.5814 0.632197 14.8991 0.866535 15.1335C1.10087 15.3678 1.4186 15.4996 1.75 15.5H6.125C6.29076 15.5 6.44973 15.4342 6.56694 15.3169C6.68415 15.1997 6.75 15.0408 6.75 14.875C6.75 14.7092 6.68415 14.5503 6.56694 14.4331C6.44973 14.3158 6.29076 14.25 6.125 14.25Z" fill="currentColor"/>
</svg>