<svg width="13" height="16" viewBox="0 0 13 16" fill="none" xmlns="http://www.w3.org/2000/svg">
<path d="M6.43532 7.0386C8.10283 7.0386 9.45462 5.68682 9.45462 4.0193C9.45462 2.35179 8.10283 1 6.43532 1C4.7678 1 3.41602 2.35179 3.41602 4.0193C3.41602 5.68682 4.7678 7.0386 6.43532 7.0386Z" fill="currentColor" stroke="currentColor" stroke-width="1.2" stroke-miterlimit="10"/>
<path d="M1.15234 11.7059C1.70225 10.8726 2.49296 10.1807 3.44504 9.69971C4.39712 9.21868 5.44472 9.19958 6.54399 9.19958C7.64326 9.19959 8.75548 9.21872 9.70755 9.69977C10.6596 10.1808 11.4503 10.8727 12.0002 11.706" fill="currentColor"/>
<path d="M1.15234 11.7059C1.70225 10.8726 2.49296 10.1807 3.44504 9.69971C4.39712 9.21868 5.44472 9.19958 6.54399 9.19958C7.64326 9.19959 8.75548 9.21872 9.70755 9.69977C10.6596 10.1808 11.4503 10.8727 12.0002 11.706V14.5868H1.15234V11.7059Z" stroke="currentColor" stroke-width="1.2" stroke-linecap="round" stroke-linejoin="round"/>
<rect x="1" y="11.2656" width="10.8695" height="3.62316" fill="currentColor"/>
</svg>
