<svg width="47" height="47" viewBox="0 0 47 47" fill="none" xmlns="http://www.w3.org/2000/svg">
<path d="M8.93571 24.4332H5.26445H1.49309H1.45162L1.42232 24.4038L1.17586 24.157C0.996328 23.9773 0.9 23.7539 0.9 23.5086C0.9 23.4449 0.923178 23.3794 0.970995 23.2987C1.01878 23.218 1.09659 23.1133 1.21787 22.969C1.46093 22.6798 1.89027 22.2181 2.63623 21.4488C4.12911 19.9094 6.89846 17.1301 12.004 12.0181C17.2377 6.77775 20.0119 4.00481 21.519 2.5421C22.2719 1.81136 22.7111 1.4051 22.9836 1.18138C23.2509 0.961953 23.3775 0.9 23.5 0.9C23.6225 0.9 23.7491 0.961953 24.0164 1.18138C24.2889 1.4051 24.7281 1.81136 25.481 2.5421C26.9881 4.00481 29.7623 6.77775 34.996 12.0181C40.1015 17.1301 42.8709 19.9094 44.3638 21.4488C45.1097 22.2181 45.5391 22.6798 45.7821 22.969C45.9034 23.1133 45.9812 23.218 46.029 23.2987C46.0768 23.3794 46.1 23.4449 46.1 23.5086C46.1 23.7539 46.0037 23.9773 45.8242 24.1569C45.8242 24.1569 45.8241 24.1569 45.8241 24.157L45.5777 24.4038L45.5484 24.4332H45.5069H41.7355H38.0643V25.2932C38.0643 25.7317 38.06 25.9884 38.0242 26.1632C38.0057 26.2541 37.9782 26.3263 37.9372 26.3925C37.8972 26.4573 37.8466 26.5125 37.7885 26.5707C37.7884 26.5707 37.7884 26.5707 37.7884 26.5707L37.7177 26.5C37.3915 26.8267 36.9299 26.8267 36.6037 26.5L8.93571 24.4332ZM8.93571 24.4332V33.3391V42.3451V42.3865L8.96497 42.4158L9.21154 42.6625L8.93571 24.4332ZM32.7132 36.2207L32.7131 36.2207C32.4308 36.0772 32.1077 36.1468 31.8634 36.3216C31.6187 36.4967 31.4357 36.7886 31.4357 37.12C31.4357 37.2048 31.4648 37.291 31.5262 37.3939C31.5871 37.496 31.6841 37.6214 31.8291 37.7865C32.1196 38.1171 32.6169 38.6224 33.4441 39.4434C33.9889 39.9842 34.5093 40.4824 34.9091 40.8495C35.1088 41.0329 35.2791 41.1842 35.4076 41.292C35.4717 41.3457 35.5264 41.3896 35.5698 41.4213C35.5914 41.4371 35.6113 41.4508 35.6289 41.4615C35.644 41.4707 35.6659 41.483 35.6891 41.4888L35.6892 41.4888C35.7702 41.5092 35.8742 41.5032 35.9719 41.4847C36.072 41.4658 36.1782 41.4314 36.2673 41.3845L36.2207 41.296L36.2673 41.3845C36.2988 41.3679 36.3473 41.3291 36.4021 41.2825C36.4608 41.2326 36.5367 41.1649 36.6276 41.0817C36.8095 40.9152 37.0532 40.6848 37.3412 40.4074C37.9173 39.8526 38.6721 39.1084 39.4666 38.3086C40.7586 37.0082 41.4828 36.2708 41.8838 35.8223C42.0838 35.5984 42.2076 35.442 42.2813 35.3205C42.357 35.1959 42.3835 35.1025 42.3835 35.0073C42.3835 34.5134 41.9547 34.0894 41.4586 34.0894C41.2711 34.0894 41.1072 34.1679 40.7616 34.4633C40.4143 34.7603 39.8629 35.2956 38.8978 36.2475C37.7101 37.419 36.5225 38.5805 36.2583 38.8292L35.8463 39.2169L34.4386 37.8189C34.0319 37.4151 33.6369 37.035 33.3277 36.7477C33.1732 36.6041 33.0397 36.4833 32.9367 36.3941C32.8853 36.3496 32.8408 36.3124 32.8048 36.2841C32.7711 36.2575 32.7385 36.2336 32.7132 36.2207ZM35.613 28.3615C34.938 28.4753 33.8698 28.8389 33.1484 29.1993C30.9208 30.3119 29.2498 32.3418 28.5192 34.8185C28.3651 35.3411 28.2713 36.0903 28.2434 36.8455C28.2155 37.601 28.2532 38.3721 28.3667 38.9393C28.6879 40.5452 29.4661 42.0569 30.5991 43.2778C31.4552 44.2004 32.3013 44.8169 33.418 45.3314C34.1459 45.6668 34.6386 45.8628 35.1798 45.9723C35.72 46.0815 36.3035 46.1037 37.2114 46.0995C37.9473 46.0962 38.3726 46.0888 38.7122 46.0492C39.0553 46.0092 39.3094 45.9366 39.703 45.8077C43.6019 44.531 46.1 41.1722 46.1 37.197C46.1 32.8464 42.9604 29.1294 38.6413 28.3634C38.2932 28.3016 37.7146 28.2714 37.1382 28.2711C36.5616 28.2707 35.9759 28.3004 35.613 28.3615ZM38.1083 30.1723C39.7156 30.3961 41.0621 31.0749 42.2255 32.2488C42.8263 32.855 43.0739 33.201 43.4371 33.9414C43.7453 34.5696 43.942 35.0648 44.0622 35.5619C44.1823 36.0587 44.2271 36.5617 44.2271 37.2067C44.2271 37.8516 44.1823 38.3547 44.0622 38.8514C43.942 39.3485 43.7453 39.8437 43.4371 40.4719C42.6617 42.0528 41.2822 43.2644 39.5339 43.8958C35.993 45.1747 32.0623 43.4259 30.5847 39.9107C30.455 39.6023 30.3156 39.0899 30.2084 38.5685C30.1011 38.0468 30.0286 37.5279 30.0286 37.2067C30.0286 36.8854 30.1011 36.3665 30.2084 35.8448C30.3156 35.3234 30.455 34.8111 30.5847 34.5027C31.5375 32.2359 33.4948 30.6628 35.9234 30.2122C36.3708 30.1292 36.6804 30.087 36.995 30.0813C37.3098 30.0755 37.6332 30.1061 38.1083 30.1723Z" fill="#747675" stroke="#747675" stroke-width="0.2"/>
</svg>
