<svg xmlns="http://www.w3.org/2000/svg" width="50" height="45" viewBox="0 0 50 45" fill="none">
  <path fill-rule="evenodd" clip-rule="evenodd" d="M41.8819 0.19878C41.4976 0.576969 41.6831 1.30563 42.3378 1.99257L42.9958 2.68219L38.0266 2.68338C33.6615 2.68428 32.942 2.75401 32.1055 3.25618C30.8412 4.01583 30.3051 5.56018 30.7964 7.02644C31.3361 8.63755 32.5702 9.23627 35.3554 9.23746C37.8211 9.23866 38.6546 9.66632 38.6546 10.9296C38.6546 12.271 37.8414 12.5169 33.4025 12.5169C29.981 12.5169 29.2262 12.5956 29.0813 12.9678C28.9845 13.2157 29.0837 13.63 29.3015 13.8884C29.6358 14.2853 30.3586 14.342 33.9492 14.2535C38.5158 14.1408 39.0954 13.9718 39.981 12.4954C40.9797 10.8298 40.2624 8.60238 38.4931 7.87401C37.927 7.64126 36.5163 7.45053 35.3581 7.45053C33.1269 7.45053 32.3012 7.0482 32.3012 5.96042C32.3012 4.639 32.9605 4.47032 38.124 4.47032H42.9958L42.3378 5.15994C41.5781 5.95685 41.4864 6.7174 42.1212 6.9573C42.6975 7.17545 46.2182 4.25008 46.2182 3.55331C46.2182 3.00048 43.0161 0 42.4264 0C42.238 0 41.9926 0.0894063 41.8819 0.19878ZM13.5536 6.12106C10.4334 6.98174 8.23032 8.77404 6.6462 11.7399C5.91375 13.1108 5.83267 13.5731 5.83085 16.3959C5.82873 19.3219 5.89317 19.6584 6.79808 21.4709C7.33298 22.542 9.12978 25.012 10.8059 26.9799C12.4768 28.9417 14.2969 31.4189 14.8509 32.4843C15.4045 33.5497 16.0734 34.4626 16.3373 34.5126C16.6643 34.5749 17.1172 34.0057 17.7598 32.7245C18.2787 31.691 20.0001 29.3223 21.5855 27.4609C25.0608 23.3806 25.7318 22.3653 26.5735 19.9165C27.4394 17.3964 27.2923 14.2505 26.1996 11.9149C24.0606 7.34414 18.4454 4.77132 13.5536 6.12106ZM19.2199 7.90412C20.2609 8.20869 21.3095 8.84318 22.4117 9.83529C24.5232 11.7364 25.3984 13.6532 25.3899 16.3584C25.3794 19.6473 24.499 21.4015 20.548 26.0074C19.2498 27.5208 17.8052 29.3289 17.3381 30.0256C16.8709 30.7224 16.4404 31.2922 16.3814 31.2922C16.3224 31.2922 15.9503 30.7895 15.5546 30.1746C15.1589 29.5601 13.5859 27.5875 12.0596 25.7913C10.533 23.9952 8.84872 21.6548 8.31654 20.5903C7.48485 18.9255 7.35022 18.3402 7.35536 16.4055C7.36051 14.4245 7.48334 13.9319 8.38401 12.2797C10.5514 8.30436 14.7677 6.60176 19.2199 7.90412ZM14.5898 12.4811C12.9597 13.2104 12.219 14.3753 12.1985 16.2422C12.1773 18.1769 13.0574 19.4372 14.9189 20.1376C16.0523 20.5638 16.4849 20.5933 17.4452 20.3098C21.6399 19.0719 21.6478 13.3972 17.4558 12.2129C16.1055 11.8314 16.0247 11.8389 14.5898 12.4811ZM18.105 14.5801C19.2526 15.7105 19.2526 16.7738 18.105 17.9042C16.8933 19.0978 15.2995 18.9762 14.234 17.6092C13.7596 17.0006 13.7596 15.4825 14.234 14.8793C15.3153 13.5042 16.8894 13.3826 18.105 14.5801ZM29.3775 18.6463C29.0746 19.4238 29.6213 19.6375 32.1509 19.7299L34.5703 19.8184L34.7219 25.6298C34.8946 32.2685 35.1457 33.1554 37.2381 34.5195C38.324 35.2273 38.7905 35.3209 41.7288 35.4198C44.9236 35.5277 45.008 35.5483 45.008 36.2209C45.008 37.1045 46.3401 38.1467 47.4692 38.1467C48.11 38.1467 48.336 38.2901 48.336 38.6966C48.336 39.5391 47.3482 40.2328 46.1483 40.2328C45.2056 40.2328 44.992 40.0901 44.4789 39.1153C42.9205 36.1565 38.4368 36.124 37.1846 39.0622L36.6881 40.2269L30.6224 40.2299L24.5567 40.2328L24.1798 39.2059C23.074 36.1935 18.262 36.1401 16.7711 39.1236L16.2165 40.2328H11.0049C5.52559 40.2328 4.52266 40.4436 4.93714 41.5072C5.11655 41.9679 5.71861 42.0213 10.7774 42.0228L16.4177 42.0248L16.9296 42.9106C17.5601 44.0022 19.16 44.9985 20.2848 45C21.669 45.0018 23.1451 44.2195 23.8878 43.0903L24.5864 42.0284L30.6373 42.0266L36.6881 42.0248L37.2 42.9106C37.8726 44.0752 39.4528 44.9991 40.7724 44.9991C42.0921 44.9991 43.6723 44.0752 44.3449 42.9106C44.7999 42.1232 45.0168 42.0246 46.2984 42.0228C47.517 42.0213 47.9146 41.863 48.87 40.9997L50 39.9786L49.9946 36.0078C49.9894 32.2411 49.944 31.9455 49.1111 30.2491C47.3161 26.5927 42.8167 23.305 38.2765 22.3316L36.5368 21.9588V20.7169C36.5368 19.8044 36.3514 19.3034 35.8368 18.8272C35.2223 18.2589 34.7945 18.1793 32.3478 18.1793C30.0951 18.1793 29.5245 18.269 29.3775 18.6463ZM41.2983 25.2075C44.766 26.8502 47.4544 29.8298 48.1999 32.8568L48.4017 33.6764H43.675H38.9484L37.8181 32.6569L36.6881 31.6376L36.5877 27.6975L36.4869 23.7576L37.7978 23.9639C38.5185 24.0774 40.0938 24.6371 41.2983 25.2075ZM38.2514 25.8286C37.6829 26.3883 38.1772 27.0576 39.7036 27.7949C40.6133 28.2345 41.9058 29.0818 42.5756 29.6778C43.8448 30.8073 44.7055 30.8753 44.7055 29.8462C44.7055 29.1053 42.7154 27.3446 40.7933 26.3853C39.25 25.6149 38.6105 25.4748 38.2514 25.8286ZM0.240462 29.6427C0.0320097 29.89 -0.05845 30.2983 0.0395739 30.5501C0.192661 30.9426 1.00378 30.9963 5.74614 30.9265L11.2745 30.8452V30.1001V29.3551L5.94703 29.274C1.4948 29.2061 0.557224 29.2666 0.240462 29.6427ZM3.55966 33.5274C2.85231 34.3669 3.73332 34.9072 5.64721 34.8074C7.01894 34.7359 7.35597 34.6146 7.44401 34.1592C7.50361 33.851 7.36868 33.4842 7.14419 33.3441C6.44985 32.9108 3.97263 33.0374 3.55966 33.5274ZM9.12312 33.5065C8.82179 34.2799 9.24384 34.9188 9.98749 34.8148C10.4873 34.7448 10.6694 34.5207 10.6694 33.9744C10.6694 33.4281 10.4873 33.204 9.98749 33.134C9.57815 33.0768 9.23234 33.2258 9.12312 33.5065ZM48.336 35.9115C48.336 36.1896 48.0504 36.3586 47.5797 36.3586C47.1089 36.3586 46.8233 36.1896 46.8233 35.9115C46.8233 35.6335 47.1089 35.4645 47.5797 35.4645C48.0504 35.4645 48.336 35.6335 48.336 35.9115ZM6.89096 37.0998C6.68553 37.3435 6.59628 37.7459 6.6931 37.9938C6.95389 38.6635 15.2926 38.6635 15.5534 37.9938C15.6502 37.7459 15.5609 37.3435 15.3555 37.0998C14.8112 36.4536 7.43524 36.4536 6.89096 37.0998ZM22.0381 39.3158C23.1293 40.3908 23.179 41.4974 22.1797 42.4814C20.7135 43.9259 18.0817 43.0101 18.0817 41.0554C18.0817 38.6623 20.3584 37.6612 22.0381 39.3158ZM41.9608 38.8807C43.4136 39.6207 43.6427 41.3069 42.45 42.4814C40.9863 43.9235 38.3388 42.9103 38.3618 40.9168C38.3724 39.9915 38.8026 39.3194 39.7135 38.8047C40.5216 38.3482 40.9434 38.3625 41.9608 38.8807ZM1.93712 40.6131C1.21889 41.1305 1.60191 42.021 2.54251 42.021C3.40597 42.021 3.78445 41.3057 3.25379 40.676C2.79786 40.1348 2.61361 40.1259 1.93712 40.6131Z" fill="#747675"/>
</svg>