<svg width="18" height="14" viewBox="0 0 18 14" fill="none" xmlns="http://www.w3.org/2000/svg">
<path d="M15.875 0.125H2.125C1.7936 0.125379 1.47587 0.257197 1.24154 0.491535C1.0072 0.725874 0.875379 1.0436 0.875 1.375V12.625C0.875379 12.9564 1.0072 13.2741 1.24154 13.5085C1.47587 13.7428 1.7936 13.8746 2.125 13.875H15.875C16.2064 13.8746 16.5241 13.7428 16.7585 13.5085C16.9928 13.2741 17.1246 12.9564 17.125 12.625V1.375C17.1246 1.0436 16.9928 0.725874 16.7585 0.491535C16.5241 0.257197 16.2064 0.125379 15.875 0.125ZM9 9.5C8.00578 9.49888 7.0526 9.10344 6.34958 8.40042C5.64656 7.6974 5.25112 6.74422 5.25 5.75C5.25 5.58424 5.31585 5.42527 5.43306 5.30806C5.55027 5.19085 5.70924 5.125 5.875 5.125C6.04076 5.125 6.19973 5.19085 6.31694 5.30806C6.43415 5.42527 6.5 5.58424 6.5 5.75C6.5 6.41304 6.76339 7.04893 7.23223 7.51777C7.70107 7.98661 8.33696 8.25 9 8.25C9.66304 8.25 10.2989 7.98661 10.7678 7.51777C11.2366 7.04893 11.5 6.41304 11.5 5.75C11.5 5.58424 11.5658 5.42527 11.6831 5.30806C11.8003 5.19085 11.9592 5.125 12.125 5.125C12.2908 5.125 12.4497 5.19085 12.5669 5.30806C12.6842 5.42527 12.75 5.58424 12.75 5.75C12.7489 6.74422 12.3534 7.6974 11.6504 8.40042C10.9474 9.10344 9.99422 9.49888 9 9.5ZM2.125 2.625V1.375H15.875L15.8751 2.625H2.125Z" fill="currentColor"/>
</svg>
