<svg xmlns="http://www.w3.org/2000/svg" width="49" height="45" viewBox="0 0 49 45" fill="none">
  <path fill-rule="evenodd" clip-rule="evenodd" d="M15.9877 2.11272C13.532 3.29439 9.01007 5.46557 5.93898 6.93742C2.868 8.40936 0.275392 9.69488 0.177641 9.79432C0.00700963 9.96783 0 10.366 0 19.8628V29.7506L0.200207 29.9349C0.310344 30.0363 4.84087 32.2648 10.2681 34.8872C18.9249 39.07 20.1871 39.655 20.5547 39.655C20.9116 39.655 21.455 39.4232 24.2052 38.0974C26.607 36.9396 27.4562 36.5689 27.5129 36.6536C27.555 36.7162 27.6185 36.9464 27.6542 37.165C27.7327 37.647 28.2109 38.9168 28.542 39.5225C29.5524 41.3709 31.3331 43.0021 33.3678 43.9432C35.9546 45.1396 39.0921 45.3326 41.7517 44.4586C45.7514 43.1444 48.4982 39.9163 48.9468 36.0029C49.3014 32.9089 47.8606 29.6018 45.2637 27.5491C44.3333 26.8137 43.1993 26.1866 42.1297 25.8163L41.2896 25.5254L41.2416 17.7429L41.1936 9.9604L40.9535 9.74712C40.5919 9.42583 21.1856 0.0476068 20.7888 0.00244012C20.498 -0.0307056 19.8513 0.253552 15.9877 2.11272ZM29.4773 6.12663C34.2608 8.44401 38.1409 10.3681 38.0997 10.4022C38.0257 10.4635 30.9722 13.934 30.8625 13.9631C30.7458 13.994 13.3197 5.49032 13.3801 5.43198C13.4629 5.35199 20.6246 1.91641 20.7124 1.91455C20.7497 1.91367 24.6938 3.80917 29.4773 6.12663ZM19.8506 10.6334C24.5652 12.9017 28.4771 14.8027 28.5435 14.8579C28.6365 14.9351 27.7431 15.4023 24.6835 16.8768C22.4939 17.932 20.6464 18.793 20.5776 18.7902C20.3525 18.7808 3.18996 10.4449 3.20926 10.3542C3.23 10.2572 10.9698 6.51775 11.1606 6.51254C11.2256 6.51068 15.1361 8.36516 19.8506 10.6334ZM10.8225 16.1643L19.6366 20.4277V28.8923C19.6366 33.5478 19.6218 37.3569 19.6037 37.3569C19.5857 37.3569 17.9329 36.5594 15.9309 35.5846C13.9289 34.6098 9.94677 32.6708 7.08175 31.2757L1.87253 28.739V20.32C1.87244 15.6895 1.90297 11.901 1.94042 11.901C1.97777 11.901 5.97471 13.8195 10.8225 16.1643ZM39.3212 18.5301V25.1593H38.3255C34.8755 25.1593 31.7016 26.6104 29.6403 29.1302C28.4326 30.6064 27.7898 32.1638 27.4908 34.3377C27.4669 34.5117 27.0016 34.7692 24.5817 35.9476C22.9974 36.7191 21.6686 37.3518 21.629 37.3537C21.5895 37.3554 21.557 33.5442 21.557 28.8842V20.4113L27.7745 17.4184C31.1941 15.7723 35.1586 13.8595 36.5845 13.1678C38.0105 12.476 39.2095 11.908 39.2492 11.9056C39.2888 11.903 39.3212 14.8841 39.3212 18.5301ZM40.456 27.1887C43.5868 27.8963 46.0448 30.1625 46.8784 33.1099C47.204 34.2611 47.2201 35.8077 46.9182 36.9592C46.48 38.6306 45.2852 40.3644 43.8342 41.4343C42.922 42.1069 41.4473 42.7759 40.3294 43.0242C39.0785 43.302 37.3983 43.2873 36.1476 42.9876C32.9265 42.2156 30.501 39.9754 29.6975 37.03C29.405 35.9581 29.4078 34.0983 29.7033 33.0892C29.934 32.3014 30.5179 31.1079 30.9659 30.5087C32.3145 28.7043 34.6344 27.3477 36.9244 27.0244C37.8196 26.898 39.5199 26.9771 40.456 27.1887ZM39.5135 33.8653L36.4902 36.6492L35.1451 35.4171L33.7999 34.1849L33.0797 34.7937L32.3595 35.4025L34.0399 36.9602C34.9642 37.817 35.837 38.5749 35.9796 38.6446C36.1223 38.7141 36.377 38.7711 36.5457 38.7711C36.8193 38.7711 37.181 38.4729 39.8873 36.016C41.5564 34.5007 43.1589 33.0492 43.4483 32.7905L43.9746 32.3202L43.3069 31.7008C42.9396 31.3601 42.6161 31.0813 42.5879 31.0813C42.5598 31.0813 41.1763 32.3342 39.5135 33.8653Z" fill="#747675"/>
</svg>