 <svg xmlns="http://www.w3.org/2000/svg" width="41" height="45" viewBox="0 0 41 45" fill="none">
                        <path fill-rule="evenodd" clip-rule="evenodd" d="M0.13483 0.165887C0.010265 0.319076 0 1.81686 0 19.8718C0 39.2146 0.00162933 39.4186 0.164974 40.0748C0.761812 42.4726 2.48968 44.2489 4.80664 44.8469C5.5762 45.0454 33.2255 45.0536 34.0651 44.8554C36.7092 44.2315 38.6143 41.8699 38.9017 38.8598C38.9463 38.3936 38.9299 38.278 38.7924 38.0889L38.6307 37.8664L35.9552 37.8211L33.2799 37.7757L33.2594 19.0535C33.2404 1.79002 33.2282 0.31835 33.1042 0.165615C32.9746 0.00634888 32.3471 0 16.6196 0C0.883526 0 0.26461 0.00625821 0.13483 0.165887ZM32.0171 19.5908V37.8211H21.7988H11.5803L11.4115 38.0601C11.3022 38.2147 11.2427 38.4319 11.2427 38.6759C11.2427 39.6268 10.7607 40.92 10.0987 41.7454C9.63064 42.3289 9.19291 42.6909 8.47656 43.0866C7.09632 43.849 5.13032 43.801 3.72254 42.9705C2.98566 42.5357 2.12022 41.5832 1.75051 40.8C1.18423 39.6002 1.22406 41.1471 1.22301 20.2937L1.22203 1.36047H16.6196H32.0171V19.5908ZM3.16595 6.34079L2.9736 6.51411L2.94924 11.3972C2.93588 14.0829 2.94704 16.4153 2.97417 16.5801C3.00122 16.745 3.09466 16.9593 3.18184 17.0563C3.335 17.2268 3.49288 17.2326 7.94318 17.2326C12.4376 17.2326 12.55 17.2284 12.7091 17.0512C12.8682 16.8741 12.872 16.7489 12.872 11.7C12.872 6.65116 12.8682 6.52599 12.7091 6.34886C12.55 6.17173 12.4376 6.16747 7.95223 6.16747C3.55089 6.16747 3.35023 6.17472 3.16595 6.34079ZM11.65 11.701V15.874L7.92282 15.8504L4.19563 15.8268L4.17437 11.7907C4.16272 9.57091 4.1707 7.70371 4.19221 7.64131C4.22268 7.55288 5.04828 7.52794 7.94066 7.52794H11.65V11.701ZM36.8238 7.97045C36.0006 8.2722 35.2527 8.98382 34.9224 9.77942L34.7463 10.2035L34.7244 19.0479L34.7025 27.8922L35.8447 31.927C37.0466 36.1726 37.0885 36.2792 37.557 36.2792C38.036 36.2792 38.0717 36.1887 39.2717 31.9256L40.4079 27.8896L40.4082 19.1634C40.4084 10.5596 40.406 10.43 40.2397 9.93515C40.014 9.26371 39.3902 8.51319 38.7945 8.19656C38.4343 8.0051 38.1858 7.94415 37.6792 7.92302C37.3207 7.90805 36.9358 7.92946 36.8238 7.97045ZM8.52617 10.798L7.01501 12.526L6.47439 11.5916C6.17703 11.0776 5.87478 10.606 5.80268 10.5436C5.44805 10.2368 4.88811 10.6062 4.88811 11.147C4.88811 11.2944 5.19957 11.9273 5.70304 12.8029C6.54029 14.2588 6.69215 14.4203 7.07611 14.2621C7.28068 14.1778 10.7486 10.1807 10.833 9.93189C10.9127 9.69707 10.7778 9.27179 10.5877 9.1586C10.1984 8.92668 10.0803 9.02064 8.52617 10.798ZM38.1898 9.3916C38.574 9.57027 38.8354 9.84246 39.0313 10.2679C39.1604 10.548 39.1864 10.803 39.1864 11.7871V12.9698H37.5917H35.997L36.0234 11.6628C36.0497 10.3603 36.0506 10.3545 36.299 10.0075C36.7785 9.33736 37.54 9.0893 38.1898 9.3916ZM14.993 9.54842C14.8786 9.6129 14.7589 9.79012 14.7153 9.95973C14.6523 10.2042 14.668 10.3018 14.8028 10.5027L14.9671 10.7477H22.689H30.4109L30.5752 10.5027C30.71 10.3018 30.7257 10.2042 30.6627 9.95973C30.6191 9.79012 30.4994 9.6129 30.385 9.54842C30.0922 9.38353 15.2858 9.38353 14.993 9.54842ZM39.1864 20.5431V26.8466H37.5977H36.0091V20.5431V14.2396H37.5977H39.1864V20.5431ZM14.8552 15.0165C14.6866 15.2043 14.6558 15.3051 14.6962 15.538C14.7237 15.6968 14.8236 15.8982 14.918 15.9855C15.0788 16.1342 15.5713 16.1442 22.689 16.1442C29.8067 16.1442 30.2991 16.1342 30.4599 15.9855C30.5544 15.8982 30.6543 15.6968 30.6818 15.538C30.7222 15.3051 30.6914 15.2043 30.5228 15.0165L30.3137 14.7838H22.689H15.0643L14.8552 15.0165ZM3.1288 21.4142C2.98085 21.5961 2.97246 21.8351 2.94892 26.5159C2.93246 29.7804 2.95307 31.5372 3.01034 31.7561C3.06925 31.9813 3.16774 32.1183 3.32164 32.1893C3.48368 32.264 4.80477 32.286 8.03793 32.2681C12.3229 32.2443 12.537 32.2353 12.7006 32.0704C12.8711 31.8986 12.872 31.8683 12.872 26.7017V21.5057L12.6909 21.3646C12.5322 21.2408 11.9402 21.2233 7.89691 21.2233C3.31121 21.2233 3.2831 21.2244 3.1288 21.4142ZM11.65 26.7568V30.9298L7.92282 30.9063L4.19563 30.8827L4.17445 26.7332L4.15327 22.5838H7.90163H11.65V26.7568ZM8.58499 25.7696C7.33339 27.1547 6.98153 27.498 6.92328 27.3908C6.88263 27.316 6.61891 26.867 6.33719 26.3931C5.87877 25.622 5.79657 25.5285 5.55444 25.5026C5.14278 25.4586 4.88811 25.6885 4.88811 26.1042C4.88811 26.3867 5.02971 26.6802 5.70573 27.7993C6.15544 28.5437 6.56783 29.1843 6.62225 29.2227C6.67667 29.2612 6.83554 29.2933 6.97534 29.2941C7.20092 29.2953 7.43743 29.0557 9.07315 27.1693C10.6278 25.3763 10.9168 25.0012 10.9168 24.7758C10.9168 24.4436 10.7037 24.1524 10.4022 24.0729C10.1892 24.0167 10.0596 24.1376 8.58499 25.7696ZM14.993 24.1508C14.8786 24.2153 14.7589 24.3925 14.7153 24.5621C14.6523 24.8065 14.668 24.9042 14.8028 25.1051L14.9671 25.3501H22.689H30.4109L30.5752 25.1051C30.71 24.9042 30.7257 24.8065 30.6627 24.5621C30.6191 24.3925 30.4994 24.2153 30.385 24.1508C30.2288 24.0628 28.5168 24.0376 22.689 24.0376C16.8611 24.0376 15.1492 24.0628 14.993 24.1508ZM38.942 28.276C38.942 28.4699 37.5752 33.21 37.5392 33.1407C37.4927 33.051 36.172 28.3311 36.172 28.2547C36.172 28.2285 36.7953 28.2071 37.557 28.2071C38.3187 28.2071 38.942 28.2381 38.942 28.276ZM14.8552 29.6189C14.6866 29.8066 14.6558 29.9075 14.6962 30.1404C14.7237 30.2992 14.8236 30.5007 14.918 30.5879C15.0788 30.7366 15.5719 30.7466 22.7017 30.7466H30.3137L30.5228 30.5139C30.6914 30.3262 30.7222 30.2253 30.6818 29.9924C30.6543 29.8336 30.5544 29.6321 30.4599 29.5449C30.2991 29.3962 29.8061 29.3862 22.6763 29.3862H15.0643L14.8552 29.6189ZM37.5366 39.6124C37.2635 41.0451 36.2493 42.3876 34.9093 43.0904C33.8311 43.6557 34.565 43.6257 21.7871 43.6257H10.125L10.7065 42.9677C11.5839 41.975 12.1939 40.7244 12.3439 39.6108L12.4017 39.1815H25.0102H37.6188L37.5366 39.6124Z" fill="#747675"/>
                      </svg>