<svg xmlns="http://www.w3.org/2000/svg" width="18" height="20" viewBox="0 0 21 22" fill="none">
  <path d="M7 17C5.9 17 5.01 17.9 5.01 19C5.01 20.1 5.9 21 7 21C8.1 21 9 20.1 9 19C9 17.9 8.1 17 7 17ZM17 17C15.9 17 15.01 17.9 15.01 19C15.01 20.1 15.9 21 17 21C18.1 21 19 20.1 19 19C19 17.9 18.1 17 17 17ZM19 15C19 14.45 18.55 14 18 14H7L8.1 12H15.55C16.3 12 16.96 11.59 17.3 10.97L20.54 4.83C20.6622 4.59878 20.6887 4.32883 20.6139 4.07823C20.5391 3.82763 20.3689 3.6164 20.14 3.49C20.024 3.42649 19.8966 3.3867 19.7651 3.37295C19.6336 3.35921 19.5007 3.37179 19.3741 3.40995C19.2475 3.44811 19.1297 3.5111 19.0278 3.59524C18.9258 3.67937 18.8415 3.78298 18.78 3.9L15.55 10H8.53L4.54 1.57C4.45963 1.39931 4.3323 1.25504 4.17291 1.15409C4.01352 1.05315 3.82867 0.999697 3.64 1H2C1.45 1 1 1.45 1 2C1 2.55 1.45 3 2 3H3L6.6 10.59L5.25 13.03C4.52 14.37 5.48 16 7 16H18C18.55 16 19 15.55 19 15ZM11.29 1.71C11.3825 1.6173 11.4924 1.54375 11.6134 1.49357C11.7343 1.44339 11.864 1.41756 11.995 1.41756C12.126 1.41756 12.2557 1.44339 12.3766 1.49357C12.4976 1.54375 12.6075 1.6173 12.7 1.71L15.29 4.3C15.68 4.69 15.68 5.32 15.29 5.71L12.7 8.3C12.6074 8.39258 12.4975 8.46602 12.3765 8.51613C12.2556 8.56623 12.1259 8.59202 11.995 8.59202C11.8641 8.59202 11.7344 8.56623 11.6135 8.51613C11.4925 8.46602 11.3826 8.39258 11.29 8.3C11.1974 8.20742 11.124 8.09751 11.0739 7.97654C11.0238 7.85558 10.998 7.72593 10.998 7.595C10.998 7.46407 11.0238 7.33442 11.0739 7.21346C11.124 7.09249 11.1974 6.98258 11.29 6.89L12.17 6H9C8.45 6 8 5.55 8 5C8 4.45 8.45 4 9 4H12.17L11.29 3.12C11.1973 3.02749 11.1237 2.9176 11.0736 2.79663C11.0234 2.67565 10.9976 2.54597 10.9976 2.415C10.9976 2.28403 11.0234 2.15435 11.0736 2.03338C11.1237 1.9124 11.1973 1.80252 11.29 1.71Z" fill="currentColor" stroke="white" stroke-width="0.1"/>
</svg>