<svg width="16" height="18" viewBox="0 0 16 18" fill="none" xmlns="http://www.w3.org/2000/svg">
<path d="M14.25 6.25H11.4375V4.0625C11.4375 3.15082 11.0753 2.27648 10.4307 1.63182C9.78602 0.987164 8.91168 0.625 8 0.625C7.08832 0.625 6.21398 0.987164 5.56932 1.63182C4.92466 2.27648 4.5625 3.15082 4.5625 4.0625V6.25H1.75C1.4186 6.25038 1.10087 6.3822 0.866535 6.61654C0.632197 6.85087 0.500379 7.1686 0.5 7.5V16.25C0.500379 16.5814 0.632197 16.8991 0.866535 17.1335C1.10087 17.3678 1.4186 17.4996 1.75 17.5H14.25C14.5814 17.4996 14.8991 17.3678 15.1335 17.1335C15.3678 16.8991 15.4996 16.5814 15.5 16.25V7.5C15.4996 7.1686 15.3678 6.85087 15.1335 6.61654C14.8991 6.3822 14.5814 6.25038 14.25 6.25ZM8.625 13.0335V14.375C8.625 14.5408 8.55915 14.6997 8.44194 14.8169C8.32473 14.9342 8.16576 15 8 15C7.83424 15 7.67527 14.9342 7.55806 14.8169C7.44085 14.6997 7.375 14.5408 7.375 14.375V13.0335C6.87146 12.8834 6.43878 12.5571 6.15608 12.1141C5.87339 11.6712 5.75956 11.1414 5.83542 10.6214C5.91127 10.1015 6.17175 9.62622 6.56921 9.28254C6.96667 8.93886 7.47456 8.74973 8 8.74973C8.52544 8.74973 9.03333 8.93886 9.43079 9.28254C9.82825 9.62622 10.0887 10.1015 10.1646 10.6214C10.2404 11.1414 10.1266 11.6712 9.84392 12.1141C9.56122 12.5571 9.12854 12.8834 8.625 13.0335ZM10.1875 6.25H5.8125V4.0625C5.8125 3.48234 6.04297 2.92594 6.4532 2.5157C6.86344 2.10547 7.41984 1.875 8 1.875C8.58016 1.875 9.13656 2.10547 9.5468 2.5157C9.95703 2.92594 10.1875 3.48234 10.1875 4.0625V6.25Z" fill="currentColor"/>
</svg>
